<svg xmlns="http://www.w3.org/2000/svg" viewBox="0 0 1264 595">
	<g>
		<rect x="-0.2" y="-0.06" width="1264" height="595" fill="#dd8d50"/>
		<g>
			<path d="M519.8,167.05s5.7,22.1,6.6,29.5-14.8,23.8-14.8,32,3.3,22.9,21.3,30.3,20.5,26.2,20.5,37.7-6.6,33.6-6.6,33.6-4.1,54.9,18,64.7,17.2,9.8,22.1,9.8,41,14.8,62.3,9,27-12.3,27-12.3,21.3,1.6,27.9-17.2,10.7-58.2,8.2-76.2-5.7-41.8,9-50,30.3-18,27.9-26.2-15.6-19.7-15.6-19.7-3.3-20.5-.8-25.4,17.2-17.2,9-26.2-22.9-9-22.9-9l-18.8,1.6s-32-28.7-73.8-27-68,27-68,27-13.9-4.9-26.2,0S517.3,153.15,519.8,167.05Z" fill="#fba919"/>
			<path d="M594.7,289.05s-16.2,24.8-28.1,42.4c-1.8,2.7,11.9,2.9,11.9,2.9Zm7.7-51.4s-4.9,12.2-7.6,18.7c-2.9,7-14,10.5-14,10.5s5.7-6,5.7-21.3c0-6.4,8.3-9,8.3-9Z" fill="#e78724"/>
			<path d="M597.5,244.55s-10,11.9-28.6,5.2-20.5-30.5-20.5-37.2,35.3,6.7,40.1,9.5S602.2,236.45,597.5,244.55Zm-70.3-127.5s17.2-3.3,28.6,5.7S570.6,139,570.6,139l-19.3,15.4s-9.3-4.3-12.2-16.7S538.1,119.45,527.2,117.05Z" fill="#e78724"/>
			<path d="M592.4,210.05c-7.4-10.5-19.6-15.1-29.3-15.8-16.6-1.3-24.5,4.6-24.5,4.6s27.2,1.2,35,11.4c14.6,19.2,35.9,20.7,39.3,16.5-3.9.2-8.3-1.8-12.9-6.1C597.1,217.85,594.8,213.45,592.4,210.05Zm-45.8,37.2s-30.2-10.4-24.4-20.9,1.2-16.2,1.2-16.2-16.9,12.5-12.6,25.9c2.6,8.2,7.1,14.1,31.4,25.5,11.7,21.6,2.4,60.6,3,60.8.9.3,16.4-7.6,15.3-44.1C560.1,267.05,559.2,251.85,546.6,247.25Zm39.5-111.5c-12.6,6.4-30,15.4-30,15.4l6.8,3.4c-.7,1.1-1,1.7-1,1.7l7,3.2s17.1,12.4,27.5,20.3c-3.5-10.7-13.7-27.6-13.7-27.6S579.9,144.35,586.1,135.75Zm42,261.8c-38.9,0-52-19.7-52-19.7l6.1,14.8c2.3,6.4,26.8,26.3,45.9,26.3" fill="#e78724"/>
			<path d="M580.3,364.55s3.6,21.9,17.9,21.9c12.2,0,15.8-18.5,15.8-22.3Zm-23.8-33a161,161,0,0,0,7.2-30.5c1.7-15.4,1.1-38,1.1-38s-3.8,14.8-7.2,17.2-9.5,18.6-9.5,18.6-3.3,24.2-4.9,32.3C547.5,332,551.2,329.35,556.5,331.55Zm-34.6-95.7s8.1-2.9,10.5-20.5a78.76,78.76,0,0,0-2.9-32.9s.5,24.3-2.4,29.1-5.2,6.2-8.6,12.4,1.5,10,3.4,11.9Z" fill="#e78724"/>
			<path d="M531.6,121.25l-1.7-1C525.1,120.35,531.6,121.25,531.6,121.25Z" fill="#fdc168"/>
			<path d="M592.7,130.45s-7.6-1.3-11.5-7-14.6-17.2-31.9-17.3-34.3,4.6-34.3,4.6l14.9,9.4c1.6-.1,4.3,0,8.9.1,18.7.6,21.6,19.1,21.6,19.1l65.9-9.1" fill="#fba919"/>
			<path d="M599.1,232.55a25.82,25.82,0,0,1-22.6,6c-13.7-2.9-22-8.9-22.6-19.4s2.9-14.6,2.9-14.6,15.3,4.8,22.6,11.1S592,232.25,599.1,232.55Z" fill="#fff"/>
			<path d="M588.3,229.45a24.8,24.8,0,0,1-16.4.7c-11.3-3.8-12.1-15.5-12.1-15.5s-6.9,20.4,12.5,24.3c15.6,3.1,24.8-5.9,24.8-5.9Z" fill="#c9c9c9"/>
			<path d="M593.8,126.15c-.8-17.5,13.5-31.4,18.4-32,.3,3-.3,14.5,4.7,18,1.4-9.4,6.3-19.8,25.6-26.6-4.1,10.9-.6,20.1,1.2,24.4,13.2-11.9,22-10,22-10s-9.1,15.8-5.6,26.1c-26.4-1.9-66.2,2.9-66.3.1Zm-56,26.6c-6.3-5.2-1.6-10.1-2.1-16-.3-3.2-.5-6.1-1.6-7.8-5.8-9.2-19.5-11.9-19.6-12l-6.4-1.3,4.3-5c.6-.6,18-17.3,45-8.6,18.9,6.1,32.9,26.8,33.4,27.6l-9.5,4.5c-.1-.2-11.2-19.6-27.4-24.8-13.1-4.2-25.2-.2-30.4,2.4,5.5,2.2,12.7,6.2,17,13,2,3.2,2.4,7.3,2.7,11.2.4,5.2.8,10.1,4.7,13.3Zm-16.9,76.3s7.9-9.8,10.3-29c.9-7.5-.7-22.4-3.3-28.2a114.23,114.23,0,0,1-3.1,28.2S522.4,226.25,520.9,229.05Z" fill="#463014"/>
			<path d="M562.8,142.85s-2.5-11.1-9.6-16.8c-9.9-7.9-22.1-3.7-22.2-3.7l-1.8-5.4c.6-.2,14.5-4.6,27.3,4.4s14.4,17.2,14.6,18.2Zm-16.9,79.2s-4.2-6-3.4-12.5c.4-3.2,1.9-6.6,4.6-7.7,5-2.2,7.2,3.5,7.2,3.5S547.2,207,545.9,222.05Z" fill="#463014"/>
			<path d="M591.6,231.15a5.2,5.2,0,0,1,.3.5s-13,9.8-26.3-.1c-7.1-5.3-6.5-18.4-4.3-24a42.75,42.75,0,0,1,14.5,6.3c-5.1-4.5-9.5-7.9-9.5-8l-5.8-1.6-11.2-3.9c-.1.9-4.2,20.1,7.6,33.2,5.2,5.8,29.8,18.8,41.5-3.4Z" fill="#463014"/>
			<path d="M590.4,232.55c7.3,11.1,25.8,4.8,25.5-7,0,0-12.3,6.8-23.2-5.7-6.4-7.3-26.7-27.5-54.4-20.8C557.3,203.25,582.6,220.65,590.4,232.55Z" fill="#463014"/>
			<path d="M535.6,264c1.8,1,8,7.4,8,17.1,0,4.8-.5,29-2.9,43.8,3.6,2.3,6.1,2.8,9.7,5.2,1.8-17.1,3.1-42,2.5-52-.7-11.4-6.8-19.1-12.5-22.4-1.8-1-3.6-2-5.5-3-9.7-5.3-19.8-10.7-19.8-20,0-7.3,2.8-9.5,5.8-11.9l.3-.3a17.75,17.75,0,0,0,5.6-6.4c3.6-8.2,4.2-28.9,0-34.2-2.1-2.6-7.7-11.5-6.1-17.4a7.65,7.65,0,0,1,4.4-5.1c2.5-1.3,5.8-1.9,9.9-1.9,8,0,16.9,2.4,21.5,3.9,16.4,5.3,36.2,20.3,41.9,24.7a1.24,1.24,0,0,1,.3.2l3.6,2.5L600,183c-.1-.2-14.5-23.9-40.3-32.6-5-1.7-14.8-4.5-24.5-4.5-5.8,0-10.6,1-14.5,3a17.47,17.47,0,0,0-9.2,11.1c-3.2,11.9,7.3,25.2,7.7,25.6,1.2,2.2,1.8,18.2-1.1,24.6a10.53,10.53,0,0,1-2.8,2.9c-.4.3-.9.7-1.4,1.1-4,3-10.1,7.6-10.1,18.2,0,14.5,14.7,22.3,26.4,28.6,1.9,1.1,3.8,2.1,5.4,3Z" fill="#463014"/>
			<path d="M537.8,152.75c-6.3-5.2-1.6-10.1-2.1-16-.3-3.2-.5-6.1-1.6-7.8-5.8-9.2-19.5-11.9-19.6-12l-6.4-1.3,4.3-5c.6-.6,18-17.3,45-8.6,18.9,6.1,32.9,26.8,33.4,27.6l-9.5,4.5c-.1-.2-11.2-19.6-27.4-24.8-13.1-4.2-25.2-.2-30.4,2.4,5.5,2.2,12.7,6.2,17,13,2,3.2,2.4,7.3,2.7,11.2.4,5.2.8,10.1,4.7,13.3Z" fill="#463014"/>
			<path d="M537.6,153.85l-.4-.3c-4.7-3.9-3.8-7.7-3-11.4a15.73,15.73,0,0,0,.6-5.3c-.3-3-.5-5.9-1.4-7.4-5.5-8.7-18.9-11.5-19-11.5l-8-1.6,5.3-6.2c0-.1,11.2-11.4,30.2-11.4a51.74,51.74,0,0,1,15.8,2.6c19.7,6.4,33.8,27.8,33.9,28l.6.9-11.3,5.2-.4-.7c-1.2-2.1-11.8-19.6-26.9-24.4a37.52,37.52,0,0,0-11.6-1.8,43.16,43.16,0,0,0-16.2,3.3c5.2,2.3,11.5,6.3,15.5,12.6,2.2,3.4,2.5,7.6,2.9,11.7.4,5,.8,9.8,4.3,12.7l1.3,1.1Z" fill="#463014"/>
			<path d="M562.8,142.85s-2.5-11.1-9.6-16.8c-9.9-7.9-22.1-3.7-22.2-3.7l-1.8-5.4c.6-.2,14.5-4.6,27.3,4.4s14.4,17.2,14.6,18.2Z" fill="#463014"/>
			<path d="M562.1,144.15l-.2-1.1c0-.1-2.5-10.8-9.3-16.2a21.28,21.28,0,0,0-13.8-4.6,25.57,25.57,0,0,0-7.5,1.1l-.9.3-2.4-7.3.9-.3a33.17,33.17,0,0,1,9.3-1.3,32.44,32.44,0,0,1,18.8,5.8c13.2,9.3,14.8,17.8,14.9,18.8l.1.7Zm-23.3-23.8a23.78,23.78,0,0,1,15,5c6,4.8,8.8,13.2,9.7,16.2L570,139c-.6-2.3-3.2-9.2-14-16.8a30.75,30.75,0,0,0-17.8-5.5,35.89,35.89,0,0,0-7.8.9l1.2,3.6a34.14,34.14,0,0,1,7.2-.8Zm58.8,260.8a11.75,11.75,0,0,1-7.7-2.8c-1.5-1.3-6.7-6.1-9-11.9-.9-2.2-.7-3.9.6-5.2.9-.9,2.6-1.9,6.2-1.9h19.2c2.7,0,4.7.6,5.8,1.7a4.1,4.1,0,0,1,.6,4.4,49.06,49.06,0,0,1-8.5,12.7,9.56,9.56,0,0,1-7.2,3Zm3-147.9-10.2-.7a54.38,54.38,0,0,1,4.3,10.5c1.9,6.7-1.7,16.5-1.7,16.5s13.5-15.3,7.6-26.3Zm-12.7,174.8c-36.2-2.8-49-37-49-44.2h9.5c0,3.1,9.7,32.4,40.3,34.7Z" fill="#463014"/>
			<path d="M577.7,346.65a22.84,22.84,0,0,1,.1-9.4c-2.8-2.1-7.7-2.8-11.4-4-3-1.9-18.5,2-29.8-11.7-14.1-17.1-11.1-27.2-11.1-27.2-3.6,4-7.1,2.5-12.6,21.2s2.6,31.8,17.7,44.9c7.1,6.2,17.2,8.7,25.9,9.7-2.9-2.9,5-3.2,10.4-5.2-.4-4.4.3-8.6,3.6-12.1a18.58,18.58,0,0,1,7.1-4.3c.1-.3.3-.7.4-1a1.61,1.61,0,0,1-.3-.9Z" fill="#fff"/>
			<path d="M566.7,364.75c-.3-.9-.6-1.9-.8-2.8s-1.5-4,0-.6a8.65,8.65,0,0,1-.8-2.6c-24.5,0-45.8-16.8-41.7-52.2-3.2-4.3-7.7,8.6-7.7,8.6s-12.3,35.6,19.4,49.4c10.5,4.6,19.9,7.9,22.1,6.6,4.6.9,8.7-2.3,10.3-4.4a16.67,16.67,0,0,1-.8-2Z" fill="#c9c9c9"/>
			<path d="M577.2,341.55a18.68,18.68,0,0,1,2.1-8.8l.3-.6c-9.4-.1-20.3-1-29.5-4.7-10.2-4.1-22.9-18-25-34.3,0,0-19.1,14.8-13.5,46.3,5.3,29.7,30.1,39.3,58.4,41,0-.2-3.2-6.8-2.2-10.8-16.1,1.2-34-5-42.7-19.3-7.9-13.1-5.7-35.4-2.5-38.6,8,25.1,36.7,30.2,54.6,29.8Z" fill="#463014"/>
			<path d="M580.2,323.55c-5.1,14.9-15.5,27-15.5,27s14.3-.7,15.1-3.2c.6-1.9,12.9-30.8,17.7-64.6-4.5,7.4-16.9,39.5-17.3,40.8Z" fill="#463014"/>
			<path d="M661.3,289.05s16.2,24.8,28.1,42.4c1.8,2.7-11.9,2.9-11.9,2.9Zm-7.7-51.4s4.9,12.2,7.6,18.7c2.9,7,14,10.5,14,10.5s-5.7-6-5.7-21.3c0-6.4-8.3-9-8.3-9Z" fill="#e78724"/>
			<path d="M658.5,244.55s10,11.9,28.6,5.2,20.5-30.5,20.5-37.2-35.3,6.7-40.1,9.5S653.7,236.45,658.5,244.55Zm70.3-127.5s-17.2-3.3-28.6,5.7S685.4,139,685.4,139l19.3,15.3s9.3-4.3,12.2-16.7S717.8,119.45,728.8,117.05Z" fill="#e78724"/>
			<path d="M663.5,210.05c7.4-10.5,19.6-15.1,29.3-15.8,16.6-1.3,24.5,4.6,24.5,4.6s-27.2,1.2-35,11.4c-14.6,19.2-35.9,20.7-39.3,16.5,3.9.2,8.3-1.8,12.9-6.1,2.9-2.8,5.3-7.2,7.6-10.6Zm45.9,37.2s30.2-10.4,24.4-20.9-1.2-16.2-1.2-16.2,16.8,12.6,12.5,25.9c-2.6,8.2-7.1,14.1-31.4,25.5-11.7,21.6-2.4,60.6-3,60.8-.9.3-16.4-7.6-15.3-44.1C695.9,267.05,696.8,251.85,709.4,247.25Zm-39.5-111.5c12.6,6.4,30,15.4,30,15.4l-6.8,3.4c.7,1.1,1,1.7,1,1.7l-7,3.2s-17.1,12.4-27.6,20.3c3.5-10.7,13.7-27.6,13.7-27.6s2.9-7.8-3.3-16.4Zm-42,261.8c38.9,0,52-19.7,52-19.7l-6.1,14.8c-2.3,6.4-26.8,26.3-45.9,26.3" fill="#e78724"/>
			<path d="M675.6,364.55s-3.6,21.9-17.9,21.9c-12.2,0-15.8-18.5-15.8-22.3Zm23.9-33a161,161,0,0,1-7.2-30.5c-1.7-15.4-1.1-38-1.1-38s3.8,14.8,7.2,17.2,9.5,18.6,9.5,18.6,3.3,24.2,4.9,32.3C708.5,332,704.8,329.35,699.5,331.55Zm34.6-95.7s-8.1-2.9-10.5-20.5a78.76,78.76,0,0,1,2.9-32.9s-.5,24.3,2.4,29.1,5.2,6.2,8.6,12.4c3.2,6.1-1.5,10-3.4,11.9Z" fill="#e78724"/>
			<path d="M724.4,121.25l1.7-1C730.9,120.35,724.4,121.25,724.4,121.25Z" fill="#fdc168"/>
			<path d="M663.3,130.45s7.6-1.3,11.5-7,14.6-17.2,31.9-17.3,34.3,4.6,34.3,4.6l-14.9,9.4c-1.6-.1-4.3,0-8.9.1-18.7.6-21.6,19.1-21.6,19.1l-65.9-9.1" fill="#fba919"/>
			<path d="M656.9,232.55a25.82,25.82,0,0,0,22.6,6c13.7-2.9,22-8.9,22.6-19.4s-2.9-14.6-2.9-14.6-15.3,4.8-22.6,11.1-12.7,16.6-19.7,16.9Z" fill="#fff"/>
			<path d="M667.7,229.45a24.8,24.8,0,0,0,16.4.7c11.3-3.8,12.1-15.5,12.1-15.5s6.9,20.4-12.5,24.3c-15.6,3.1-24.8-5.9-24.8-5.9Z" fill="#c9c9c9"/>
			<g>
				<path d="M718.2,152.75c6.3-5.2,1.6-10.1,2.1-16,.3-3.2.5-6.1,1.6-7.8,5.8-9.2,19.5-11.9,19.6-12l6.4-1.3-4.3-5c-.6-.6-18-17.3-45-8.6-18.9,6.1-32.9,26.8-33.4,27.6l9.5,4.5c.1-.2,11.2-19.6,27.4-24.8,13.1-4.2,25.2-.2,30.4,2.4-5.5,2.2-12.7,6.2-17,13-2,3.2-2.4,7.3-2.7,11.2-.4,5.2-.9,10.1-4.7,13.3Zm16.8,76.3s-7.9-9.8-10.3-29c-.9-7.5.7-22.4,3.3-28.2a114.23,114.23,0,0,0,3.1,28.2S733.6,226.25,735,229.05Z" fill="#463014"/>
				<path d="M693.2,142.85s2.5-11.1,9.6-16.8c9.9-7.9,22.1-3.7,22.2-3.7l1.8-5.4c-.6-.2-14.5-4.6-27.3,4.4s-14.4,17.2-14.6,18.2Zm16.9,79.2s4.2-6,3.4-12.5c-.4-3.2-1.9-6.6-4.5-7.7-5-2.2-7.2,3.5-7.2,3.5S708.8,207,710.1,222.05Z" fill="#463014"/>
				<path d="M664.4,231.15a5.2,5.2,0,0,0-.3.5s13,9.8,26.3-.1c7.1-5.3,6.5-18.4,4.3-24a42.75,42.75,0,0,0-14.5,6.3c5.1-4.5,9.5-7.9,9.5-8l5.8-1.6,11.2-3.9c.1.9,4.2,20.1-7.6,33.2-5.2,5.8-29.8,18.8-41.5-3.4Z" fill="#463014"/>
				<path d="M665.6,232.55c-7.3,11.1-25.8,4.8-25.5-7,0,0,12.3,6.8,23.2-5.7,6.4-7.3,26.8-27.5,54.4-20.8-19,4.2-44.3,21.6-52.1,33.5Z" fill="#463014"/>
				<path d="M720.3,264c-1.8,1-8,7.4-8,17.1,0,4.8.5,29,2.9,43.8-3.6,2.3-6.1,2.8-9.7,5.2-1.8-17.1-3.1-42-2.5-52,.7-11.4,6.8-19.1,12.5-22.4,1.8-1,3.6-2,5.5-3,9.7-5.3,19.8-10.7,19.8-20,0-7.3-2.8-9.5-5.8-11.9l-.3-.3a17.75,17.75,0,0,1-5.6-6.4c-3.6-8.2-4.2-28.9,0-34.2,2.1-2.6,7.7-11.5,6.1-17.4a7.65,7.65,0,0,0-4.4-5.1c-2.5-1.3-5.8-1.9-9.9-1.9-8,0-16.9,2.4-21.5,3.9-16.3,5.3-36.1,20.3-41.8,24.7a1.24,1.24,0,0,0-.3.2l-3.6,2.5L656,183c.1-.2,14.5-23.9,40.3-32.6,5-1.7,14.8-4.5,24.5-4.5,5.8,0,10.6,1,14.5,3a17.47,17.47,0,0,1,9.2,11.1c3.2,11.9-7.3,25.2-7.7,25.6-1.2,2.2-1.8,18.2,1.1,24.6a10.53,10.53,0,0,0,2.8,2.9c.4.3.9.7,1.4,1.1,4,3,10.1,7.6,10.1,18.2,0,14.5-14.7,22.3-26.4,28.6-2,1.1-3.8,2.1-5.5,3Z" fill="#463014"/>
				<path d="M702.8,151.05c-2.3-4-8.3-11.6-22-18.3-15.3-7.5-33.1-11.3-52.8-11.3s-37.4,3.8-52.8,11.3c-13.7,6.7-19.7,14.3-22,18.3l-1,1.3L564,155l.4-.5.2-.4c.2-.8,1.8-5,14.9-11.4,14-6.8,30.4-10.3,48.6-10.3s34.6,3.5,48.6,10.3c13.1,6.4,14.7,10.6,14.9,11.4l.2.4.4.5,11.8-2.6Z" fill="#463014"/>
				<path d="M718.2,152.75c6.3-5.2,1.6-10.1,2.1-16,.3-3.2.5-6.1,1.6-7.8,5.8-9.2,19.5-11.9,19.6-12l6.4-1.3-4.3-5c-.6-.6-18-17.3-45-8.6-18.9,6.1-32.9,26.8-33.4,27.6l9.5,4.5c.1-.2,11.2-19.6,27.4-24.8,13.1-4.2,25.2-.2,30.4,2.4-5.5,2.2-12.7,6.2-17,13-2,3.2-2.4,7.3-2.7,11.2-.4,5.2-.9,10.1-4.7,13.3Z" fill="#463014"/>
				<path d="M706.1,149.75l1.3-1.1c3.5-2.9,3.9-7.7,4.4-12.7.3-4,.7-8.2,2.9-11.7,4-6.3,10.3-10.2,15.5-12.6a42.7,42.7,0,0,0-16.2-3.3,37.52,37.52,0,0,0-11.6,1.8c-15,4.9-25.7,22.4-26.9,24.4l-.5.7-11.1-5.1.6-.9c.1-.2,14.2-21.6,33.9-28a51.74,51.74,0,0,1,15.8-2.6,44.86,44.86,0,0,1,30.3,11.4l5.3,6.2-8,1.6c-.1,0-13.5,2.8-19,11.5-.9,1.5-1.2,4.3-1.4,7.4a15.73,15.73,0,0,0,.6,5.3c.8,3.7,1.6,7.5-3,11.4l-.4.3Z" fill="#463014"/>
				<path d="M693.2,142.85s2.5-11.1,9.6-16.8c9.9-7.9,22.1-3.7,22.2-3.7l1.8-5.4c-.6-.2-14.5-4.6-27.3,4.4s-14.4,17.2-14.6,18.2Z" fill="#463014"/>
				<path d="M683.9,140.15l.1-.7c.1-.9,1.8-9.5,14.9-18.8a32.44,32.44,0,0,1,18.8-5.8,29.44,29.44,0,0,1,9.3,1.3l.9.3-2.4,7.3-.9-.3a25.57,25.57,0,0,0-7.5-1.1,22.06,22.06,0,0,0-13.8,4.6c-6.7,5.4-9.2,16.1-9.3,16.2l-.2,1.1Zm40.5-18.9,1.2-3.6a30.45,30.45,0,0,0-7.8-.9,29.74,29.74,0,0,0-17.7,5.5c-10.8,7.6-13.4,14.5-14,16.8l6.5,2.6c.9-3,3.7-11.4,9.7-16.2a23.59,23.59,0,0,1,15-5,24.17,24.17,0,0,1,7.1.8Zm-73.3,257a47.42,47.42,0,0,1-8.5-12.7,3.91,3.91,0,0,1,.6-4.4c1.1-1.1,3.1-1.7,5.8-1.7h19.2c3.6,0,5.3,1,6.2,1.9,1.2,1.2,1.4,3,.6,5.2-2.3,5.8-7.4,10.6-9,11.9a12.31,12.31,0,0,1-7.7,2.8,10.74,10.74,0,0,1-7.2-3Zm4.3-145,10.2-.7a54.38,54.38,0,0,0-4.3,10.5c-1.9,6.7,1.7,16.5,1.7,16.5s-13.5-15.3-7.6-26.3Z" fill="#463014"/>
			</g>
			<path d="M628,196.85c-6.5,0-14.9-.2-21.3-4.7,0,0,8.3,14.6,21.3,14.6v0c13,0,21.3-14.6,21.3-14.6C642.9,196.65,634.5,196.85,628,196.85Z" fill="#e78724"/>
			<path d="M645.9,196.75a32.37,32.37,0,0,1-35.8,0s9.5,11.6,17.8,11.7c8.5-.1,18-11.7,18-11.7Zm22.2,211.3-.7-9.4c30.6-2.4,40.2-31.6,40.2-34.7h9.5c0,7-12.8,41.3-49,44.1Z" fill="#463014"/>
			<path d="M678.3,346.65a22.84,22.84,0,0,0-.1-9.4c2.8-2.1,7.7-2.8,11.4-4,3-1.9,18.6,2,29.8-11.7,14.1-17.1,11.1-27.2,11.1-27.2,3.6,4,7.1,2.5,12.6,21.2s-2.6,31.8-17.7,44.9c-7.1,6.2-17.2,8.7-25.9,9.7,2.9-2.9-5-3.2-10.4-5.2.4-4.4-.3-8.6-3.6-12.1a18.58,18.58,0,0,0-7.1-4.3c-.1-.3-.3-.7-.4-1a3.18,3.18,0,0,0,.3-.9Z" fill="#fff"/>
			<path d="M689.2,364.75c.3-.9.6-1.9.8-2.8s1.5-4,0-.6a8.65,8.65,0,0,0,.8-2.6c24.5,0,45.8-16.8,41.7-52.2,3.2-4.3,7.7,8.6,7.7,8.6s12.3,35.6-19.4,49.4c-10.5,4.6-19.9,7.9-22.1,6.6-4.6.9-8.7-2.3-10.3-4.4a8.36,8.36,0,0,0,.8-2Z" fill="#c9c9c9"/>
			<path d="M678.7,341.55a18.68,18.68,0,0,0-2.1-8.8l-.3-.6c9.4-.1,20.3-1,29.5-4.7,10.2-4.1,22.9-18,25-34.3,0,0,19.1,14.8,13.5,46.3-5.3,29.7-30.1,39.3-58.4,41,0-.2,3.2-6.8,2.2-10.8,16.1,1.2,34-5,42.7-19.3,7.9-13.1,5.7-35.4,2.4-38.6-7.8,25.1-36.5,30.2-54.5,29.8Z" fill="#463014"/>
			<path d="M690.2,349c-3.4-3.7-9.6-8-23.9-8H589.9c-14.3,0-20.6,4.4-23.9,8-4.9,5.3-5.7,12.7-2.3,22,9.1,24.6,21.8,49.6,64.4,49.7s55.4-25.1,64.4-49.7C695.9,361.75,695.1,354.35,690.2,349Zm-6.7,20.3c-4.3,12.4-15.9,42.3-55.5,42.4-39.6-.1-51.2-30-55.5-42.4-2.4-6.9-2.2-11.9.6-15.1,1.9-2.2,6.2-4.7,16.1-4.7h77.6c9.9,0,14.2,2.6,16.1,4.7C685.7,357.25,685.9,362.35,683.5,369.25Z" fill="#463014"/>
			<path d="M675.8,323.55c5.1,14.9,15.5,27,15.5,27s-14.3-.7-15.1-3.2c-.6-1.9-12.9-30.8-17.7-64.6,4.5,7.4,16.8,39.5,17.3,40.8Z" fill="#463014"/>
			<path d="M514.1,443.35a36.71,36.71,0,0,0-6.3-3,51.14,51.14,0,0,0-7.5-2,47.92,47.92,0,0,0-8.7-.7,48.71,48.71,0,0,0-16.2,2.6,38.71,38.71,0,0,0-12.5,7.4,34.08,34.08,0,0,0-8,11.4,37.85,37.85,0,0,0-2.8,14.5,35.48,35.48,0,0,0,2.9,14.3,34.08,34.08,0,0,0,8,11.4,37.41,37.41,0,0,0,12.1,7.5,41.34,41.34,0,0,0,15.1,2.7,73.94,73.94,0,0,0,8.4-.4,54.2,54.2,0,0,0,7.4-1.3,46.7,46.7,0,0,0,6.6-2.3,35.58,35.58,0,0,0,6-3.4,1.33,1.33,0,0,0,.6-1v-28.7a1.32,1.32,0,0,0-1.3-1.3H492.2a1.32,1.32,0,0,0-1.3,1.3v11.5a1.32,1.32,0,0,0,1.3,1.3h9.2v8.1a24.55,24.55,0,0,1-4.1,1.1,26.5,26.5,0,0,1-5.9.5,22.2,22.2,0,0,1-7.9-1.4,16.41,16.41,0,0,1-6.2-4.1,20,20,0,0,1-4.1-6.6,25.72,25.72,0,0,1-1.5-9.2,24.65,24.65,0,0,1,1.4-8.4,19.42,19.42,0,0,1,3.8-6.4,16,16,0,0,1,6-4.1,20,20,0,0,1,8-1.5c1.6,0,3.1.1,4.4.2a22,22,0,0,1,3.7.7,14,14,0,0,1,3.4,1.3c1.2.5,6.6,3.6,7.8,4.3.9.5,1.4.5,2-.3l7.3-10.6a1.26,1.26,0,0,0-.2-1.7,58.5,58.5,0,0,0-5.2-3.7Zm63.8,40a11.94,11.94,0,0,0-2.8-3.1,10.47,10.47,0,0,0-1.1-.8,27.54,27.54,0,0,0,4.1-2.4,23.83,23.83,0,0,0,4.8-4.7,21.32,21.32,0,0,0,3-5.8,20.7,20.7,0,0,0,1-6.6,21.86,21.86,0,0,0-1.7-8.5,17.23,17.23,0,0,0-5.5-6.9,26.16,26.16,0,0,0-9.5-4.4,54.25,54.25,0,0,0-13.7-1.6H533.1a1.32,1.32,0,0,0-1.3,1.3v67.8a1.32,1.32,0,0,0,1.3,1.3h16.8a1.32,1.32,0,0,0,1.3-1.3v-23.9h3a5.07,5.07,0,0,1,2.4.4,3.74,3.74,0,0,1,1.4,1.4l12,19.7c1.5,2.4,3.9,3.6,7.1,3.6h15.2a1.32,1.32,0,0,0,1.3-1.3,1.27,1.27,0,0,0-.4-.9Zm-10.5-18.6a7,7,0,0,1-1.9,2.9,10.72,10.72,0,0,1-3.5,2,17.27,17.27,0,0,1-5.4.7h-5.5v-17.6h5.5c4,0,7,.8,8.8,2.2a7.08,7.08,0,0,1,2.6,6A11.22,11.22,0,0,1,567.4,464.75Zm94.8-26.3H645.4a1.32,1.32,0,0,0-1.3,1.3V480a18.46,18.46,0,0,1-.9,6,11.36,11.36,0,0,1-2.5,4.3,10.14,10.14,0,0,1-4,2.7,16.28,16.28,0,0,1-11.1,0,10.14,10.14,0,0,1-4-2.7,11.79,11.79,0,0,1-2.5-4.4,18.46,18.46,0,0,1-.9-6v-40.2a1.32,1.32,0,0,0-1.3-1.3H600.1a1.32,1.32,0,0,0-1.3,1.3v40.2a32.72,32.72,0,0,0,2.2,11.9,26.89,26.89,0,0,0,6.5,9.4,28.9,28.9,0,0,0,10.2,6.1,40.48,40.48,0,0,0,13.4,2.2,38.06,38.06,0,0,0,13.4-2.2,30.45,30.45,0,0,0,10.2-6.1,26.89,26.89,0,0,0,6.5-9.4,30.92,30.92,0,0,0,2.3-12v-40.2a1.4,1.4,0,0,0-1.3-1.1Zm78.9,0H726.3a1.32,1.32,0,0,0-1.3,1.3v35.9c0,1.1,0,2.2.1,3.4l-31.8-37.8a18.37,18.37,0,0,0-1.4-1.4,6,6,0,0,0-1.5-.9,4.71,4.71,0,0,0-1.7-.4,11.52,11.52,0,0,0-2-.1h-8.8a1.32,1.32,0,0,0-1.3,1.3v67.9a1.32,1.32,0,0,0,1.3,1.3h14.8a1.32,1.32,0,0,0,1.3-1.3v-36.4c0-.9,0-1.9-.1-2.9l31.6,37.5a8.41,8.41,0,0,0,3.1,2.4,10.31,10.31,0,0,0,3.8.7h8.7a1.32,1.32,0,0,0,1.3-1.3v-67.9a1.32,1.32,0,0,0-1.3-1.3Zm69.3,0H753a1.32,1.32,0,0,0-1.3,1.3v12.5a1.32,1.32,0,0,0,1.3,1.3h19.1v54.1a1.32,1.32,0,0,0,1.3,1.3h16.8a1.32,1.32,0,0,0,1.3-1.3v-54.1h19.1a1.32,1.32,0,0,0,1.3-1.3v-12.5a1.69,1.69,0,0,0-1.5-1.3Z" fill="#463014"/>
		</g>
	</g>
</svg>
