<svg viewBox="0 0 360 424"
	xmlns="http://www.w3.org/2000/svg">
	<path d="m67.9 81.4s5.7 22.1 6.6 29.5c.8 7.4-14.8 23.8-14.8 32s3.3 22.9 21.3 30.3 20.5 26.2 20.5 37.7-6.6 33.6-6.6 33.6-4.1 54.9 18 64.7 17.2 9.8 22.1 9.8 41 14.8 62.3 9c21.3-5.7 27-12.3 27-12.3s21.3 1.6 27.9-17.2 10.7-58.2 8.2-76.2-5.7-41.8 9-50c14.8-8.2 30.3-18 27.9-26.2-2.5-8.2-15.6-19.7-15.6-19.7s-3.3-20.5-.8-25.4 17.2-17.2 9-26.2-22.9-9-22.9-9l-18.8 1.6s-32-28.7-73.8-27c-41.8 1.6-68 27-68 27s-13.9-4.9-26.2 0c-12.3 5-14.8.1-12.3 14z" fill="#fba919"/>
	<path d="m142.8 203.4s-16.2 24.8-28.1 42.4c-1.8 2.7 11.9 2.9 11.9 2.9zm7.7-51.4s-4.9 12.2-7.6 18.7c-2.9 7-14 10.5-14 10.5s5.7-6 5.7-21.3c0-6.4 8.3-9 8.3-9z" fill="#e78724"/>
	<path d="m145.6 158.9s-10 11.9-28.6 5.2-20.5-30.5-20.5-37.2 35.3 6.7 40.1 9.5 13.7 14.4 9 22.5zm-70.3-127.5s17.2-3.3 28.6 5.7c11.5 9.1 14.8 16.2 14.8 16.2l-19.3 15.4s-9.3-4.3-12.2-16.7c-2.9-12.5-1-18.2-11.9-20.6z" fill="#e78724"/>
	<path d="m140.5 124.4c-7.4-10.5-19.6-15.1-29.3-15.8-16.6-1.3-24.5 4.6-24.5 4.6s27.2 1.2 35 11.4c14.6 19.2 35.9 20.7 39.3 16.5-3.9.2-8.3-1.8-12.9-6.1-2.9-2.8-5.2-7.2-7.6-10.6zm-45.8 37.2s-30.2-10.4-24.4-20.9c5.7-10.5 1.2-16.2 1.2-16.2s-16.9 12.5-12.6 25.9c2.6 8.2 7.1 14.1 31.4 25.5 11.7 21.6 2.4 60.6 3 60.8.9.3 16.4-7.6 15.3-44.1-.4-11.2-1.3-26.4-13.9-31zm39.5-111.5c-12.6 6.4-30 15.4-30 15.4l6.8 3.4c-.7 1.1-1 1.7-1 1.7l7 3.2s17.1 12.4 27.5 20.3c-3.5-10.7-13.7-27.6-13.7-27.6s-2.8-7.8 3.4-16.4zm42 261.8c-38.9 0-52-19.7-52-19.7l6.1 14.8c2.3 6.4 26.8 26.3 45.9 26.3" fill="#e78724"/>
	<path d="m128.4 278.9s3.6 21.9 17.9 21.9c12.2 0 15.8-18.5 15.8-22.3zm-23.8-33c1.3-3.5 5.7-17.7 7.2-30.5 1.7-15.4 1.1-38 1.1-38s-3.8 14.8-7.2 17.2c-3.3 2.4-9.5 18.6-9.5 18.6s-3.3 24.2-4.9 32.3c4.3.8 8-1.8 13.3.4zm-34.6-95.7s8.1-2.9 10.5-20.5c2.4-17.7-2.9-32.9-2.9-32.9s.5 24.3-2.4 29.1-5.2 6.2-8.6 12.4c-3.3 6.1 1.5 10 3.4 11.9z" fill="#e78724"/>
	<path d="m79.7 35.6-1.7-1c-4.8.1 1.7 1 1.7 1z" fill="#fdc168"/>
	<path d="m140.8 44.8s-7.6-1.3-11.5-7c-3.8-5.7-14.6-17.2-31.9-17.3-17.2-.1-34.3 4.6-34.3 4.6l14.9 9.4c1.6-.1 4.3 0 8.9.1 18.7.6 21.6 19.1 21.6 19.1l65.9-9.1" fill="#fba919"/>
	<path d="m147.2 146.9s-8.9 8.9-22.6 6-22-8.9-22.6-19.4 2.9-14.6 2.9-14.6 15.3 4.8 22.6 11.1c7.2 6.4 12.6 16.6 19.7 16.9z" fill="#fff"/>
	<path d="m136.4 143.8s-7.7 3.5-16.4.7c-11.3-3.8-12.1-15.5-12.1-15.5s-6.9 20.4 12.5 24.3c15.6 3.1 24.8-5.9 24.8-5.9z" fill="#c9c9c9"/>
	<path d="m141.9 40.5c-.8-17.5 13.5-31.4 18.4-32 .3 3-.3 14.5 4.7 18 1.4-9.4 6.3-19.8 25.6-26.6-4.1 10.9-.6 20.1 1.2 24.4 13.2-11.9 22-10 22-10s-9.1 15.8-5.6 26.1c-26.4-1.9-66.2 2.9-66.3.1zm-56 26.6c-6.3-5.2-1.6-10.1-2.1-16-.3-3.2-.5-6.1-1.6-7.8-5.8-9.2-19.5-11.9-19.6-12l-6.4-1.3 4.3-5c.6-.6 18-17.3 45-8.6 18.9 6.1 32.9 26.8 33.4 27.6l-9.5 4.5c-.1-.2-11.2-19.6-27.4-24.8-13.1-4.2-25.2-.2-30.4 2.4 5.5 2.2 12.7 6.2 17 13 2 3.2 2.4 7.3 2.7 11.2.4 5.2.8 10.1 4.7 13.3zm-16.9 76.3s7.9-9.8 10.3-29c.9-7.5-.7-22.4-3.3-28.2.5 14.1-3.1 28.2-3.1 28.2s-2.4 26.2-3.9 29z" fill="#463014"/>
	<path d="m110.9 57.2s-2.5-11.1-9.6-16.8c-9.9-7.9-22.1-3.7-22.2-3.7l-1.8-5.4c.6-.2 14.5-4.6 27.3 4.4 12.9 9 14.4 17.2 14.6 18.2zm-16.9 79.2s-4.2-6-3.4-12.5c.4-3.2 1.9-6.6 4.6-7.7 5-2.2 7.2 3.5 7.2 3.5s-7.1 1.6-8.4 16.7z" fill="#463014"/>
	<path d="m139.7 145.5c.2.3.3.5.3.5s-13 9.8-26.3-.1c-7.1-5.3-6.5-18.4-4.3-24 5.7 1.3 10.5 3.6 14.5 6.3-5.1-4.5-9.5-7.9-9.5-8l-5.8-1.6-11.2-3.9c-.1.9-4.2 20.1 7.6 33.2 5.2 5.8 29.8 18.8 41.5-3.4z" fill="#463014"/>
	<path d="m138.5 146.9c7.3 11.1 25.8 4.8 25.5-7 0 0-12.3 6.8-23.2-5.7-6.4-7.3-26.7-27.5-54.4-20.8 19 4.2 44.3 21.6 52.1 33.5z" fill="#463014"/>
	<path d="m83.7 178.3c1.8 1 8 7.4 8 17.1 0 4.8-.5 29-2.9 43.8 3.6 2.3 6.1 2.8 9.7 5.2 1.8-17.1 3.1-42 2.5-52-.7-11.4-6.8-19.1-12.5-22.4-1.8-1-3.6-2-5.5-3-9.7-5.3-19.8-10.7-19.8-20 0-7.3 2.8-9.5 5.8-11.9l.3-.3c2-1.6 4.2-3.4 5.6-6.4 3.6-8.2 4.2-28.9 0-34.2-2.1-2.6-7.7-11.5-6.1-17.4.6-2.3 2-3.9 4.4-5.1 2.5-1.3 5.8-1.9 9.9-1.9 8 0 16.9 2.4 21.5 3.9 16.4 5.3 36.2 20.3 41.9 24.7.2.1.3.2.3.2l3.6 2.5-2.3-3.8c-.1-.2-14.5-23.9-40.3-32.6-5-1.7-14.8-4.5-24.5-4.5-5.8 0-10.6 1-14.5 3-4.7 2.4-7.9 6.3-9.2 11.1-3.2 11.9 7.3 25.2 7.7 25.6 1.2 2.2 1.8 18.2-1.1 24.6-.4.9-1.5 1.8-2.8 2.9-.4.3-.9.7-1.4 1.1-4 3-10.1 7.6-10.1 18.2 0 14.5 14.7 22.3 26.4 28.6 1.9 1.1 3.8 2.1 5.4 3z" fill="#463014"/>
	<path d="m85.9 67.1c-6.3-5.2-1.6-10.1-2.1-16-.3-3.2-.5-6.1-1.6-7.8-5.8-9.2-19.5-11.9-19.6-12l-6.4-1.3 4.3-5c.6-.6 18-17.3 45-8.6 18.9 6.1 32.9 26.8 33.4 27.6l-9.5 4.5c-.1-.2-11.2-19.6-27.4-24.8-13.1-4.2-25.2-.2-30.4 2.4 5.5 2.2 12.7 6.2 17 13 2 3.2 2.4 7.3 2.7 11.2.4 5.2.8 10.1 4.7 13.3z" fill="#463014"/>
	<path d="m85.7 68.2-.4-.3c-4.7-3.9-3.8-7.7-3-11.4.4-1.7.8-3.5.6-5.3-.3-3-.5-5.9-1.4-7.4-5.5-8.7-18.9-11.5-19-11.5l-8-1.6 5.3-6.2c0-.1 11.2-11.4 30.2-11.4 5.2 0 10.5.9 15.8 2.6 19.7 6.4 33.8 27.8 33.9 28l.6.9-11.3 5.2-.4-.7c-1.2-2.1-11.8-19.6-26.9-24.4-3.7-1.2-7.6-1.8-11.6-1.8-7.2 0-13 2-16.2 3.3 5.2 2.3 11.5 6.3 15.5 12.6 2.2 3.4 2.5 7.6 2.9 11.7.4 5 .8 9.8 4.3 12.7l1.3 1.1z" fill="#463014"/>
	<path d="m110.9 57.2s-2.5-11.1-9.6-16.8c-9.9-7.9-22.1-3.7-22.2-3.7l-1.8-5.4c.6-.2 14.5-4.6 27.3 4.4 12.9 9 14.4 17.2 14.6 18.2z" fill="#463014"/>
	<path d="m110.2 58.5-.2-1.1c0-.1-2.5-10.8-9.3-16.2-3.8-3.1-8.5-4.6-13.8-4.6-4.1 0-7.2 1-7.5 1.1l-.9.3-2.4-7.3.9-.3c.4-.1 4.1-1.3 9.3-1.3 6.9 0 13.4 2 18.8 5.8 13.2 9.3 14.8 17.8 14.9 18.8l.1.7zm-23.3-23.8c5.7 0 10.8 1.7 15 5 6 4.8 8.8 13.2 9.7 16.2l6.5-2.6c-.6-2.3-3.2-9.2-14-16.8-5.2-3.6-11.2-5.5-17.8-5.5-3.6 0-6.4.6-7.8.9l1.2 3.6c1.4-.3 4-.8 7.2-.8zm58.8 260.8c-2.8 0-5.7-1-7.7-2.8-1.5-1.3-6.7-6.1-9-11.9-.9-2.2-.7-3.9.6-5.2.9-.9 2.6-1.9 6.2-1.9h19.2c2.7 0 4.7.6 5.8 1.7 1.4 1.5 1 3.4.6 4.4-.7 1.7-3.6 7.4-8.5 12.7-1.7 1.9-4.3 3-7.2 3zm3-147.9-10.2-.7s2.6 4.6 4.3 10.5c1.9 6.7-1.7 16.5-1.7 16.5s13.5-15.3 7.6-26.3zm-12.7 174.8c-36.2-2.8-49-37-49-44.2h9.5-4.7 4.7c0 3.1 9.7 32.4 40.3 34.7z" fill="#463014"/>
	<path d="m125.8 261c-.6-3.3-.6-6.4.1-9.4-2.8-2.1-7.7-2.8-11.4-4-3-1.9-18.5 2-29.8-11.7-14.1-17.1-11.1-27.2-11.1-27.2-3.6 4-7.1 2.5-12.6 21.2s2.6 31.8 17.7 44.9c7.1 6.2 17.2 8.7 25.9 9.7-2.9-2.9 5-3.2 10.4-5.2-.4-4.4.3-8.6 3.6-12.1 2-2.1 4.5-3.3 7.1-4.3.1-.3.3-.7.4-1-.2-.3-.3-.6-.3-.9z" fill="#fff"/>
	<path d="m114.8 279.1c-.3-.9-.6-1.9-.8-2.8-.3-1-1.5-4 0-.6-.4-.9-.7-1.7-.8-2.6-24.5 0-45.8-16.8-41.7-52.2-3.2-4.3-7.7 8.6-7.7 8.6s-12.3 35.6 19.4 49.4c10.5 4.6 19.9 7.9 22.1 6.6 4.6.9 8.7-2.3 10.3-4.4-.3-.7-.6-1.3-.8-2z" fill="#c9c9c9"/>
	<path d="m125.3 255.9c0-3 .6-5.9 2.1-8.8l.3-.6c-9.4-.1-20.3-1-29.5-4.7-10.2-4.1-22.9-18-25-34.3 0 0-19.1 14.8-13.5 46.3 5.3 29.7 30.1 39.3 58.4 41 0-.2-3.2-6.8-2.2-10.8-16.1 1.2-34-5-42.7-19.3-7.9-13.1-5.7-35.4-2.5-38.6 8 25.1 36.7 30.2 54.6 29.8z" fill="#463014"/>
	<path d="m128.3 237.9c-5.1 14.9-15.5 27-15.5 27s14.3-.7 15.1-3.2c.6-1.9 12.9-30.8 17.7-64.6-4.5 7.4-16.9 39.5-17.3 40.8z" fill="#463014"/>
	<path d="m209.4 203.4s16.2 24.8 28.1 42.4c1.8 2.7-11.9 2.9-11.9 2.9zm-7.7-51.4s4.9 12.2 7.6 18.7c2.9 7 14 10.5 14 10.5s-5.7-6-5.7-21.3c0-6.4-8.3-9-8.3-9z" fill="#e78724"/>
	<path d="m206.6 158.9s10 11.9 28.6 5.2 20.5-30.5 20.5-37.2-35.3 6.7-40.1 9.5c-4.7 2.9-13.8 14.4-9 22.5zm70.3-127.5s-17.2-3.3-28.6 5.7c-11.5 9.1-14.8 16.2-14.8 16.2l19.3 15.3s9.3-4.3 12.2-16.7c2.8-12.4.9-18.1 11.9-20.5z" fill="#e78724"/>
	<path d="m211.6 124.4c7.4-10.5 19.6-15.1 29.3-15.8 16.6-1.3 24.5 4.6 24.5 4.6s-27.2 1.2-35 11.4c-14.6 19.2-35.9 20.7-39.3 16.5 3.9.2 8.3-1.8 12.9-6.1 2.9-2.8 5.3-7.2 7.6-10.6zm45.9 37.2s30.2-10.4 24.4-20.9c-5.7-10.5-1.2-16.2-1.2-16.2s16.8 12.6 12.5 25.9c-2.6 8.2-7.1 14.1-31.4 25.5-11.7 21.6-2.4 60.6-3 60.8-.9.3-16.4-7.6-15.3-44.1.5-11.2 1.4-26.4 14-31zm-39.5-111.5c12.6 6.4 30 15.4 30 15.4l-6.8 3.4c.7 1.1 1 1.7 1 1.7l-7 3.2s-17.1 12.4-27.6 20.3c3.5-10.7 13.7-27.6 13.7-27.6s2.9-7.8-3.3-16.4zm-42 261.8c38.9 0 52-19.7 52-19.7l-6.1 14.8c-2.3 6.4-26.8 26.3-45.9 26.3" fill="#e78724"/>
	<path d="m223.7 278.9s-3.6 21.9-17.9 21.9c-12.2 0-15.8-18.5-15.8-22.3zm23.9-33c-1.3-3.5-5.7-17.7-7.2-30.5-1.7-15.4-1.1-38-1.1-38s3.8 14.8 7.2 17.2c3.3 2.4 9.5 18.6 9.5 18.6s3.3 24.2 4.9 32.3c-4.3.8-8-1.8-13.3.4zm34.6-95.7s-8.1-2.9-10.5-20.5c-2.4-17.7 2.9-32.9 2.9-32.9s-.5 24.3 2.4 29.1 5.2 6.2 8.6 12.4c3.2 6.1-1.5 10-3.4 11.9z" fill="#e78724"/>
	<path d="m272.5 35.6 1.7-1c4.8.1-1.7 1-1.7 1z" fill="#fdc168"/>
	<path d="m211.4 44.8s7.6-1.3 11.5-7c3.8-5.7 14.6-17.2 31.9-17.3 17.2-.1 34.3 4.6 34.3 4.6l-14.9 9.4c-1.6-.1-4.3 0-8.9.1-18.7.6-21.6 19.1-21.6 19.1l-65.9-9.1" fill="#fba919"/>
	<path d="m205 146.9s8.9 8.9 22.6 6 22-8.9 22.6-19.4-2.9-14.6-2.9-14.6-15.3 4.8-22.6 11.1-12.7 16.6-19.7 16.9z" fill="#fff"/>
	<path d="m215.8 143.8s7.7 3.5 16.4.7c11.3-3.8 12.1-15.5 12.1-15.5s6.9 20.4-12.5 24.3c-15.6 3.1-24.8-5.9-24.8-5.9z" fill="#c9c9c9"/>
	<g fill="#463014">
		<path d="m266.3 67.1c6.3-5.2 1.6-10.1 2.1-16 .3-3.2.5-6.1 1.6-7.8 5.8-9.2 19.5-11.9 19.6-12l6.4-1.3-4.3-5c-.6-.6-18-17.3-45-8.6-18.9 6.1-32.9 26.8-33.4 27.6l9.5 4.5c.1-.2 11.2-19.6 27.4-24.8 13.1-4.2 25.2-.2 30.4 2.4-5.5 2.2-12.7 6.2-17 13-2 3.2-2.4 7.3-2.7 11.2-.4 5.2-.9 10.1-4.7 13.3zm16.8 76.3s-7.9-9.8-10.3-29c-.9-7.5.7-22.4 3.3-28.2-.5 14.1 3.1 28.2 3.1 28.2s2.5 26.2 3.9 29z"/>
		<path d="m241.3 57.2s2.5-11.1 9.6-16.8c9.9-7.9 22.1-3.7 22.2-3.7l1.8-5.4c-.6-.2-14.5-4.6-27.3 4.4-12.9 9-14.4 17.2-14.6 18.2zm16.9 79.2s4.2-6 3.4-12.5c-.4-3.2-1.9-6.6-4.5-7.7-5-2.2-7.2 3.5-7.2 3.5s7 1.6 8.3 16.7z"/>
		<path d="m212.5 145.5c-.2.3-.3.5-.3.5s13 9.8 26.3-.1c7.1-5.3 6.5-18.4 4.3-24-5.7 1.3-10.5 3.6-14.5 6.3 5.1-4.5 9.5-7.9 9.5-8l5.8-1.6 11.2-3.9c.1.9 4.2 20.1-7.6 33.2-5.2 5.8-29.8 18.8-41.5-3.4z"/>
		<path d="m213.7 146.9c-7.3 11.1-25.8 4.8-25.5-7 0 0 12.3 6.8 23.2-5.7 6.4-7.3 26.8-27.5 54.4-20.8-19 4.2-44.3 21.6-52.1 33.5z"/>
		<path d="m268.4 178.3c-1.8 1-8 7.4-8 17.1 0 4.8.5 29 2.9 43.8-3.6 2.3-6.1 2.8-9.7 5.2-1.8-17.1-3.1-42-2.5-52 .7-11.4 6.8-19.1 12.5-22.4 1.8-1 3.6-2 5.5-3 9.7-5.3 19.8-10.7 19.8-20 0-7.3-2.8-9.5-5.8-11.9l-.3-.3c-2-1.6-4.2-3.4-5.6-6.4-3.6-8.2-4.2-28.9 0-34.2 2.1-2.6 7.7-11.5 6.1-17.4-.6-2.3-2-3.9-4.4-5.1-2.5-1.3-5.8-1.9-9.9-1.9-8 0-16.9 2.4-21.5 3.9-16.3 5.3-36.1 20.3-41.8 24.7-.2.1-.3.2-.3.2l-3.6 2.5 2.3-3.8c.1-.2 14.5-23.9 40.3-32.6 5-1.7 14.8-4.5 24.5-4.5 5.8 0 10.6 1 14.5 3 4.7 2.4 7.9 6.3 9.2 11.1 3.2 11.9-7.3 25.2-7.7 25.6-1.2 2.2-1.8 18.2 1.1 24.6.4.9 1.5 1.8 2.8 2.9.4.3.9.7 1.4 1.1 4 3 10.1 7.6 10.1 18.2 0 14.5-14.7 22.3-26.4 28.6-2 1.1-3.8 2.1-5.5 3z"/>
		<path d="m250.9 65.4c-2.3-4-8.3-11.6-22-18.3-15.3-7.5-33.1-11.3-52.8-11.3s-37.4 3.8-52.8 11.3c-13.7 6.7-19.7 14.3-22 18.3l-1 1.3 11.8 2.6.4-.5.2-.4c.2-.8 1.8-5 14.9-11.4 14-6.8 30.4-10.3 48.6-10.3s34.6 3.5 48.6 10.3c13.1 6.4 14.7 10.6 14.9 11.4l.2.4.4.5 11.8-2.6z"/>
		<path d="m266.3 67.1c6.3-5.2 1.6-10.1 2.1-16 .3-3.2.5-6.1 1.6-7.8 5.8-9.2 19.5-11.9 19.6-12l6.4-1.3-4.3-5c-.6-.6-18-17.3-45-8.6-18.9 6.1-32.9 26.8-33.4 27.6l9.5 4.5c.1-.2 11.2-19.6 27.4-24.8 13.1-4.2 25.2-.2 30.4 2.4-5.5 2.2-12.7 6.2-17 13-2 3.2-2.4 7.3-2.7 11.2-.4 5.2-.9 10.1-4.7 13.3z"/>
		<path d="m254.2 64.1 1.3-1.1c3.5-2.9 3.9-7.7 4.4-12.7.3-4 .7-8.2 2.9-11.7 4-6.3 10.3-10.2 15.5-12.6-3.1-1.3-9-3.3-16.2-3.3-4 0-7.9.6-11.6 1.8-15 4.9-25.7 22.4-26.9 24.4l-.5.7-11.1-5.1.6-.9c.1-.2 14.2-21.6 33.9-28 5.3-1.7 10.6-2.6 15.8-2.6 19 0 30.2 11.3 30.3 11.4l5.3 6.2-8 1.6c-.1 0-13.5 2.8-19 11.5-.9 1.5-1.2 4.3-1.4 7.4-.2 1.8.2 3.6.6 5.3.8 3.7 1.6 7.5-3 11.4l-.4.3z"/>
		<path d="m241.3 57.2s2.5-11.1 9.6-16.8c9.9-7.9 22.1-3.7 22.2-3.7l1.8-5.4c-.6-.2-14.5-4.6-27.3 4.4-12.9 9-14.4 17.2-14.6 18.2z"/>
		<path d="m232 54.5.1-.7c.1-.9 1.8-9.5 14.9-18.8 5.4-3.8 11.9-5.8 18.8-5.8 5.2 0 8.9 1.1 9.3 1.3l.9.3-2.4 7.3-.9-.3c-.3-.1-3.4-1.1-7.5-1.1-5.3 0-9.9 1.6-13.8 4.6-6.7 5.4-9.2 16.1-9.3 16.2l-.2 1.1zm40.5-18.9 1.2-3.6c-1.4-.4-4.2-.9-7.8-.9-6.6 0-12.5 1.8-17.7 5.5-10.8 7.6-13.4 14.5-14 16.8l6.5 2.6c.9-3 3.7-11.4 9.7-16.2 4.1-3.3 9.3-5 15-5 3.1-.1 5.7.4 7.1.8zm-73.3 257c-4.9-5.3-7.8-10.9-8.5-12.7-.4-1-.9-2.9.6-4.4 1.1-1.1 3.1-1.7 5.8-1.7h19.2c3.6 0 5.3 1 6.2 1.9 1.2 1.2 1.4 3 .6 5.2-2.3 5.8-7.4 10.6-9 11.9-2 1.7-4.9 2.8-7.7 2.8-2.8-.1-5.4-1.2-7.2-3zm4.3-145 10.2-.7s-2.6 4.6-4.3 10.5c-1.9 6.7 1.7 16.5 1.7 16.5s-13.5-15.3-7.6-26.3z"/>
	</g>
	<path d="m176.1 111.2c-6.5 0-14.9-.2-21.3-4.7 0 0 8.3 14.6 21.3 14.6v-1.8 1.8c13 0 21.3-14.6 21.3-14.6-6.4 4.5-14.8 4.7-21.3 4.7z" fill="#e78724"/>
	<path d="m194 111.1c-6.5 3.9-12.3 5.3-17.9 5.4-5.5-.1-11.4-1.5-17.9-5.4 0 0 9.5 11.6 17.8 11.7 8.5-.1 18-11.7 18-11.7zm22.2 211.3-.7-9.4c30.6-2.4 40.2-31.6 40.2-34.7h9.5c0 7-12.8 41.3-49 44.1z" fill="#463014"/>
	<path d="m226.4 261c.6-3.3.6-6.4-.1-9.4 2.8-2.1 7.7-2.8 11.4-4 3-1.9 18.6 2 29.8-11.7 14.1-17.1 11.1-27.2 11.1-27.2 3.6 4 7.1 2.5 12.6 21.2s-2.6 31.8-17.7 44.9c-7.1 6.2-17.2 8.7-25.9 9.7 2.9-2.9-5-3.2-10.4-5.2.4-4.4-.3-8.6-3.6-12.1-2-2.1-4.5-3.3-7.1-4.3-.1-.3-.3-.7-.4-1 .2-.3.2-.6.3-.9z" fill="#fff"/>
	<path d="m237.3 279.1c.3-.9.6-1.9.8-2.8.3-1 1.5-4 0-.6.4-.9.7-1.7.8-2.6 24.5 0 45.8-16.8 41.7-52.2 3.2-4.3 7.7 8.6 7.7 8.6s12.3 35.6-19.4 49.4c-10.5 4.6-19.9 7.9-22.1 6.6-4.6.9-8.7-2.3-10.3-4.4.4-.7.6-1.3.8-2z" fill="#c9c9c9"/>
	<path d="m226.8 255.9c0-3-.6-5.9-2.1-8.8l-.3-.6c9.4-.1 20.3-1 29.5-4.7 10.2-4.1 22.9-18 25-34.3 0 0 19.1 14.8 13.5 46.3-5.3 29.7-30.1 39.3-58.4 41 0-.2 3.2-6.8 2.2-10.8 16.1 1.2 34-5 42.7-19.3 7.9-13.1 5.7-35.4 2.4-38.6-7.8 25.1-36.5 30.2-54.5 29.8z" fill="#463014"/>
	<path d="m238.3 263.3c-3.4-3.7-9.6-8-23.9-8h-76.4c-14.3 0-20.6 4.4-23.9 8-4.9 5.3-5.7 12.7-2.3 22 9.1 24.6 21.8 49.6 64.4 49.7 42.6 0 55.4-25.1 64.4-49.7 3.4-9.2 2.6-16.6-2.3-22zm-6.7 20.3c-4.3 12.4-15.9 42.3-55.5 42.4-39.6-.1-51.2-30-55.5-42.4-2.4-6.9-2.2-11.9.6-15.1 1.9-2.2 6.2-4.7 16.1-4.7h77.6c9.9 0 14.2 2.6 16.1 4.7 2.8 3.1 3 8.2.6 15.1z" fill="#463014"/>
	<path d="m223.9 237.9c5.1 14.9 15.5 27 15.5 27s-14.3-.7-15.1-3.2c-.6-1.9-12.9-30.8-17.7-64.6 4.5 7.4 16.8 39.5 17.3 40.8z" fill="#463014"/>
	<path d="m62.2 357.7c-1.9-1.1-4-2.2-6.3-3s-4.8-1.5-7.5-2-5.6-.7-8.7-.7c-5.9 0-11.4.9-16.2 2.6-4.9 1.8-9 4.3-12.5 7.4-3.4 3.2-6.1 7-8 11.4-1.8 4.4-2.8 9.2-2.8 14.5 0 5.1 1 10 2.9 14.3 1.9 4.4 4.6 8.2 8 11.4s7.5 5.7 12.1 7.5 9.7 2.7 15.1 2.7c3 0 5.8-.1 8.4-.4s5.1-.7 7.4-1.3 4.5-1.4 6.6-2.3 4.1-2.1 6-3.4c.3-.2.6-.6.6-1v-28.7c0-.7-.6-1.3-1.3-1.3h-25.7c-.7 0-1.3.6-1.3 1.3v11.5c0 .7.6 1.3 1.3 1.3h9.2v8.1c-1.3.5-2.6.8-4.1 1.1-1.7.4-3.7.5-5.9.5-2.9 0-5.5-.5-7.9-1.4s-4.5-2.3-6.2-4.1-3.1-4-4.1-6.6-1.5-5.7-1.5-9.2c0-3.1.5-5.9 1.4-8.4s2.2-4.6 3.8-6.4 3.6-3.1 6-4.1c2.3-1 5-1.5 8-1.5 1.6 0 3.1.1 4.4.2s2.5.4 3.7.7 2.3.7 3.4 1.3c1.2.5 6.6 3.6 7.8 4.3.9.5 1.4.5 2-.3l7.3-10.6c.4-.5.3-1.2-.2-1.7-1.5-1.2-3.3-2.5-5.2-3.7zm63.8 40c-.8-1.2-1.7-2.3-2.8-3.1-.3-.3-.7-.5-1.1-.8 1.5-.7 2.8-1.5 4.1-2.4 1.9-1.4 3.5-3 4.8-4.7 1.3-1.8 2.3-3.7 3-5.8s1-4.3 1-6.6c0-3-.6-5.9-1.7-8.5s-3-5-5.5-6.9-5.6-3.4-9.5-4.4c-3.8-1-8.4-1.6-13.7-1.6h-23.4c-.7 0-1.3.6-1.3 1.3v67.8c0 .7.6 1.3 1.3 1.3h16.8c.7 0 1.3-.6 1.3-1.3v-23.9h3c1.3 0 2.1.2 2.4.4.5.3 1 .7 1.4 1.4l12 19.7c1.5 2.4 3.9 3.6 7.1 3.6h15.2c.7 0 1.3-.6 1.3-1.3 0-.4-.2-.7-.4-.9zm-10.5-18.6c-.4 1.1-1 2.1-1.9 2.9s-2.1 1.5-3.5 2c-1.5.5-3.3.7-5.4.7h-5.5v-17.6h5.5c4 0 7 .8 8.8 2.2s2.6 3.4 2.6 6c0 1.4-.2 2.7-.6 3.8zm94.8-26.3h-16.8c-.7 0-1.3.6-1.3 1.3v40.2c0 2.2-.3 4.3-.9 6s-1.4 3.2-2.5 4.3c-1.1 1.2-2.4 2.1-4 2.7-3.2 1.3-7.9 1.3-11.1 0-1.6-.6-2.9-1.5-4-2.7s-1.9-2.6-2.5-4.4c-.6-1.7-.9-3.8-.9-6v-40.2c0-.7-.6-1.3-1.3-1.3h-16.8c-.7 0-1.3.6-1.3 1.3v40.2c0 4.3.8 8.3 2.2 11.9 1.5 3.6 3.7 6.8 6.5 9.4s6.2 4.7 10.2 6.1 8.5 2.2 13.4 2.2 9.4-.7 13.4-2.2 7.4-3.5 10.2-6.1 5-5.8 6.5-9.4 2.3-7.6 2.3-12v-40.2c-.1-.5-.6-1.1-1.3-1.1zm78.9 0h-14.8c-.7 0-1.3.6-1.3 1.3v35.9c0 1.1 0 2.2.1 3.4l-31.8-37.8c-.5-.6-1-1-1.4-1.4-.5-.4-1-.7-1.5-.9s-1.1-.4-1.7-.4c-.5-.1-1.2-.1-2-.1h-8.8c-.7 0-1.3.6-1.3 1.3v67.9c0 .7.6 1.3 1.3 1.3h14.8c.7 0 1.3-.6 1.3-1.3v-36.4c0-.9 0-1.9-.1-2.9l31.6 37.5c1 1.1 2 2 3.1 2.4 1 .4 2.3.7 3.8.7h8.7c.7 0 1.3-.6 1.3-1.3v-67.9c0-.7-.6-1.3-1.3-1.3zm69.3 0h-57.4c-.7 0-1.3.6-1.3 1.3v12.5c0 .7.6 1.3 1.3 1.3h19.1v54.1c0 .7.6 1.3 1.3 1.3h16.8c.7 0 1.3-.6 1.3-1.3v-54.1h19.1c.7 0 1.3-.6 1.3-1.3v-12.5c-.2-.7-.8-1.3-1.5-1.3z" fill="#463014"/>
</svg>