<svg xmlns="http://www.w3.org/2000/svg" viewBox="0 0 1264 595">
	<g>
		<rect width="1264" height="595" fill="#da4648"/>
		<g>
			<path d="M745.46,58.26l0,0c1.2-1.36-1.24-5.57-5.28-9.17s-8.41-4.83-9.77-3.46l0,0-60.55,63.72L657.43,157.4c-8.33-.27-17-.41-25.94-.41-63.07,0-114.2,7-114.2,15.75l1.45,8.45,13.47,124,3.64,38.15,7.5,78.61,5.44,9.44,14.69,25.09,5.74,78.39c0,8.79,27.92,15.91,62.35,15.91s62.36-7.12,62.36-15.91l4.55-79.24,13.89-24.31,5.28-9.38,10.77-93.46,1.41-12.2,14.58-135.11,1.28-8.44c0-6.37-27.44-11.86-66.9-14.34l9.92-40.22Z" fill="#da4648"/>
			<g>
				<path d="M663.51,178.43c-6,0-10.92-1.07-10.92-2.39a.56.56,0,0,1,.1-.33l.17-.65c-1.82.63-2.92,1.42-2.92,2.28,0,2,6.08,3.7,13.57,3.7s13.58-1.66,13.58-3.7c0-.79-.91-1.51-2.45-2.11l-.2.81C674.44,177.36,669.55,178.43,663.51,178.43Z" fill="none"/>
				<path d="M630.5,444.12A277.57,277.57,0,0,1,567,437a121.34,121.34,0,0,1-18.17-5.62l14.69,25.09,5.74,78.39c0,8.79,27.92,15.91,62.35,15.91s62.36-7.12,62.36-15.91l4.55-79.24,13.89-24.31A121.59,121.59,0,0,1,694,437,277.46,277.46,0,0,1,630.5,444.12Z" fill="#fff"/>
				<path d="M712.85,189h0c-21.75,3-50.61,4.71-81.28,4.71s-59.52-1.67-81.27-4.71c-10.77-1.5-19.29-3.28-25.33-5.27a37.33,37.33,0,0,1-6.23-2.58l13.47,124q.94-3.21,2.1-6.4A120.62,120.62,0,0,1,539.8,286a114,114,0,0,1,6.78-11.79A91.44,91.44,0,0,1,554.39,264a63.31,63.31,0,0,1,8.49-8,40.48,40.48,0,0,1,8.8-5.25,22.17,22.17,0,0,1,8.8-1.9,19,19,0,0,1,9.71,2.75,27.8,27.8,0,0,1,8.77,8.88,7.12,7.12,0,0,1,1.18,2.78,14.77,14.77,0,0,1,.25,2.64,7.1,7.1,0,0,1-1.4,4.64,4.2,4.2,0,0,1-3.34,1.7,4.26,4.26,0,0,1-3.28-1.86A34.48,34.48,0,0,1,589,265a12.86,12.86,0,0,0-3.88-4.54,8.24,8.24,0,0,0-4.61-1.4q-3.86,0-8.25,3.2a47.58,47.58,0,0,0-8.68,8.46,92.79,92.79,0,0,0-8.25,12,125.55,125.55,0,0,0-7,13.85,98.41,98.41,0,0,0-4.82,14A49.5,49.5,0,0,0,541.7,323a30.27,30.27,0,0,0,.25,3.75,12.84,12.84,0,0,0,.94,3.5,7.07,7.07,0,0,0,1.87,2.58,4.51,4.51,0,0,0,3,1,10.18,10.18,0,0,0,4.63-1.37,34.68,34.68,0,0,0,5.38-3.59,66.64,66.64,0,0,0,5.6-5c1.88-1.87,3.62-3.76,5.24-5.68s3-3.76,4.3-5.52a32.84,32.84,0,0,0,2.82-4.61l5.13-15.35a7.24,7.24,0,0,1,2.45-3.53,5.47,5.47,0,0,1,3.12-1,4.88,4.88,0,0,1,1.54.26,3.84,3.84,0,0,1,1.38.81,3.93,3.93,0,0,1,1,1.44,5.66,5.66,0,0,1,.35,2.06,29.66,29.66,0,0,1-.55,5.88,45.32,45.32,0,0,1-1.4,5.36q-.86,2.61-1.91,5.26t-2,5.52a13.57,13.57,0,0,0-.8,2.06c-.38,1.15-.85,2.6-1.4,4.34s-1.15,3.69-1.8,5.85-1.3,4.35-2,6.6-1.34,4.44-2,6.6-1.19,4.1-1.68,5.85-.91,3.19-1.24,4.37-.54,1.87-.61,2.09a13.43,13.43,0,0,1-.88,2.32,15.92,15.92,0,0,1-1.44,2.42,8.88,8.88,0,0,1-1.82,1.89,3.36,3.36,0,0,1-2,.76,2.87,2.87,0,0,1-2.56-1.18c-.54-.78-.8-2.22-.8-4.31v-.92a8.58,8.58,0,0,1,.05-1,23.48,23.48,0,0,1,.83-3.92q.76-2.86,1.85-6.5c.71-2.42,1.49-4.92,2.31-7.51s1.58-4.91,2.24-7q-2.92,3.27-6.35,6.5a67.66,67.66,0,0,1-7,5.82,41.41,41.41,0,0,1-7.23,4.21,17,17,0,0,1-7,1.63,12.46,12.46,0,0,1-6.65-1.7c-.34-.2-.65-.43-1-.66l7.5,78.61c1.95,4.89,38.7,16.91,87.15,16.91s85.23-12,87.15-16.92l10.77-93.46-2.59,2.39a111.86,111.86,0,0,1-8.75,7.42,39.14,39.14,0,0,1-8,4.8,20.9,20.9,0,0,1-8.39,1.7,10.16,10.16,0,0,1-6.48-1.83,6.11,6.11,0,0,1-2.29-5v-.49a3.25,3.25,0,0,1,.06-.56,11.87,11.87,0,0,1,1.71-4.51,52.6,52.6,0,0,1,3.58-5.29q2.1-2.74,4.47-5.55t4.39-5.33a51.39,51.39,0,0,0,3.33-4.6,6.92,6.92,0,0,0,1.33-3.4,1.56,1.56,0,0,0-.55-1.24,2.91,2.91,0,0,0-1.82-.46,10.37,10.37,0,0,0-4.55,1.14,22.76,22.76,0,0,0-4.64,3.08,42.07,42.07,0,0,0-4.47,4.41,63.3,63.3,0,0,0-4.08,5.16c-1.27,1.78-2.42,3.58-3.47,5.39s-1.94,3.47-2.68,5c-.22.48-.53,1.16-.94,2s-.84,1.85-1.32,2.94-1,2.21-1.52,3.36-1,2.25-1.46,3.27-.84,1.94-1.18,2.75-.6,1.36-.75,1.66-.49,1.13-.91,2.22-.91,2.37-1.46,3.83l-1.74,4.6c-.6,1.61-1.18,3.14-1.71,4.58l-1.4,3.79q-.61,1.62-.78,2.22a25.43,25.43,0,0,1-1.29,3.2,13.72,13.72,0,0,1-1.71,2.65,7.79,7.79,0,0,1-2.21,1.82,5.65,5.65,0,0,1-2.78.69,5.45,5.45,0,0,1-3.29-1c-.86-.63-1.29-1.84-1.29-3.62a11.36,11.36,0,0,1,.33-2.68,21.7,21.7,0,0,1,.83-2.71c.33-.9.67-1.77,1-2.62s.67-1.66,1-2.45q3-6.52,6.07-13.1t5.93-13c.39-.89.75-1.77,1.14-2.66l-.34.34a71.65,71.65,0,0,1-7.15,6.11,38.29,38.29,0,0,1-7,4.22,16.73,16.73,0,0,1-6.82,1.56,8.79,8.79,0,0,1-3.78-.72,6.2,6.2,0,0,1-2.42-2,7.74,7.74,0,0,1-1.3-2.94c-.09-.38-.14-.79-.2-1.19-.64.5-1.3,1-2,1.46a39.81,39.81,0,0,1-6.73,3.88,14.91,14.91,0,0,1-6,1.47,5.65,5.65,0,0,1-4.3-1.76q-1.65-1.77-1.65-6a32.64,32.64,0,0,1,.88-7,35.51,35.51,0,0,1-3.59,5.16,31.28,31.28,0,0,1-4.91,4.77,24.28,24.28,0,0,1-6.18,3.49,20.08,20.08,0,0,1-7.44,1.34,13.56,13.56,0,0,1-3.51-.45,7.44,7.44,0,0,1-2.95-1.57,8,8,0,0,1-2-3,12.41,12.41,0,0,1-.77-4.68s.07-.7.22-2a43.34,43.34,0,0,1,1.41-6.08q1.18-4.14,3.66-10.74t7-16a8.8,8.8,0,0,1,2.68-3.56,5.53,5.53,0,0,1,3.28-1.08,6.12,6.12,0,0,1,1.6.23,5,5,0,0,1,1.54.72,3.82,3.82,0,0,1,1.16,1.24,3.4,3.4,0,0,1,.44,1.73,4.53,4.53,0,0,1-.16,1.24,15.09,15.09,0,0,1-1.19,2.91c-.61,1.2-1.31,2.57-2.12,4.12s-1.67,3.21-2.57,5-1.74,3.63-2.51,5.55a55.12,55.12,0,0,0-2,5.85,25.13,25.13,0,0,0-.94,5.78,4.27,4.27,0,0,0,.55,2.15,1.92,1.92,0,0,0,1.82,1,11.48,11.48,0,0,0,6.84-2.35,30.39,30.39,0,0,0,6-5.85,56,56,0,0,0,5-7.51q2.24-4,3.72-7.35a38.17,38.17,0,0,0,1.85-4.77,47,47,0,0,1,1.73-4.7,14.67,14.67,0,0,1,2.16-3.6,3.82,3.82,0,0,1,3-1.44,3.76,3.76,0,0,1,3.14,1.51,5.66,5.66,0,0,1,1.16,3.59,10.5,10.5,0,0,1-.74,3.24q-.75,2.06-1.88,4.7c-.75,1.76-1.57,3.65-2.45,5.65s-1.71,4-2.46,6.11a60,60,0,0,0-1.87,6.08,22.64,22.64,0,0,0-.75,5.52,2.12,2.12,0,0,0,2.43,2.35A10.55,10.55,0,0,0,638,333.1a28.75,28.75,0,0,0,5.32-3.3c.46-.35.93-.72,1.39-1.11a45.22,45.22,0,0,1,1.84-5.91q1.92-5.1,3.91-10.13t3.64-9.21l16.72-42.14a7,7,0,0,1,2.67-3.59,6.35,6.35,0,0,1,3.4-1,4.92,4.92,0,0,1,3.11,1.11,4.31,4.31,0,0,1,1.41,3.6,7.42,7.42,0,0,1-.47,2.48,29.28,29.28,0,0,1-1.19,2.81q-1.38,3.07-3.28,7.51t-4.08,9.67q-2.18,5.24-4.47,10.88l-4.47,11q-2.17,5.36-4.08,10.16t-3.28,8.33c-.41,1-.8,2.17-1.19,3.49a13.16,13.16,0,0,0-.57,3.57,3.17,3.17,0,0,0,.33,1.56,1.32,1.32,0,0,0,1.26.59,7.07,7.07,0,0,0,2.9-.82,29,29,0,0,0,3.75-2.15q2-1.35,4.19-3.07t4.33-3.6q2.16-1.86,4.11-3.72c1.31-1.24,2.48-2.39,3.51-3.43a2.48,2.48,0,0,1,.84-.56c.62-1.86,1.19-3.67,1.69-5.45.3-.79.7-1.9,1.22-3.33a44.75,44.75,0,0,1,1.76-4.25,18.66,18.66,0,0,1,2.23-3.63,3.49,3.49,0,0,1,2.68-1.53,4.35,4.35,0,0,1,3.2,1,4.1,4.1,0,0,1,1,3,9.39,9.39,0,0,1-.11,1.24q-.1.86-.27,1.8t-.36,1.8a8,8,0,0,1-.36,1.24q2-2.22,4.41-4.41a44.93,44.93,0,0,1,4.91-4,27.8,27.8,0,0,1,5.19-2.88A13.58,13.58,0,0,1,712,295.6a13.13,13.13,0,0,1,3.61.52,10.22,10.22,0,0,1,3.2,1.54,7.9,7.9,0,0,1,2.29,2.55,7,7,0,0,1,.88,3.56,14,14,0,0,1-1.35,5.72,41.42,41.42,0,0,1-3.39,6.1q-2,3.07-4.41,6t-4.44,5.29q-2.07,2.38-3.48,4.05a6.3,6.3,0,0,0-1.46,2.26,1.7,1.7,0,0,0,.5,1.27,2.28,2.28,0,0,0,1.65.49,6.4,6.4,0,0,0,2.76-1,47.37,47.37,0,0,0,5.1-3.63q3.28-2.58,8.33-6.92c2.31-2,5-4.36,8.06-7l14.58-135.11a36.67,36.67,0,0,1-6.23,2.59C732.14,185.76,723.62,187.54,712.85,189Z" fill="#fff"/>
				<path d="M678.79,158.4l9.92-40.22,56.75-59.92,0,0c1.2-1.36-1.24-5.57-5.28-9.17s-8.41-4.83-9.77-3.46l0,0-60.55,63.72L657.43,157.4c-8.33-.27-17-.41-25.94-.41-63.07,0-114.2,7-114.2,15.75s51.13,15.75,114.2,15.75,114.2-7.05,114.2-15.75C745.69,166.37,718.25,160.88,678.79,158.4ZM663.51,181c-7.49,0-13.57-1.66-13.57-3.7,0-.86,1.1-1.65,2.92-2.28l-.17.65a.56.56,0,0,0-.1.33c0,1.32,4.89,2.39,10.92,2.39s10.93-1.07,10.93-2.39l.2-.81c1.54.6,2.45,1.32,2.45,2.11C677.09,179.38,671,181,663.51,181Z" fill="#fff"/>
			</g>
		</g>
	</g>
</svg>
