<svg xmlns="http://www.w3.org/2000/svg" viewBox="0 0 1264 595">
	<g>
		<rect width="1264" height="595" fill="#da4648"/>
		<g>
			<g>
				<path d="M899.82,196.3l0,0c.62-.7-.63-2.84-2.69-4.68s-4.29-2.46-5-1.76l0,0-30.87,32.48-6.35,24.51c-4.25-.13-8.67-.21-13.23-.21-32.15,0-58.22,3.6-58.22,8l.74,4.3,6.87,63.23,1.85,19.46,3.83,40.08,2.77,4.81,7.49,12.8,2.93,40c0,4.48,14.23,8.11,31.79,8.11s31.79-3.63,31.79-8.11l2.32-40.41L883,386.52l2.69-4.78,5.49-47.66.72-6.22L899.28,259l.65-4.3c0-3.25-14-6-34.11-7.32l5.06-20.5Z" fill="#da4648"/>
				<g opacity="0.2">
					<path d="M858,257.57c-3.07,0-5.57-.55-5.57-1.22a.27.27,0,0,1,.06-.17l.08-.33c-.93.32-1.49.72-1.49,1.16,0,1,3.1,1.89,6.92,1.89S865,258.05,865,257c0-.4-.46-.77-1.24-1.08l-.11.42C863.6,257,861.11,257.57,858,257.57Z" fill="none"/>
					<path d="M841.2,393a141.65,141.65,0,0,1-32.4-3.62,61.83,61.83,0,0,1-9.26-2.87l7.49,12.8,2.93,40c0,4.48,14.23,8.11,31.79,8.11s31.79-3.63,31.79-8.11l2.32-40.41L883,386.52a63.46,63.46,0,0,1-9.35,2.9A141.65,141.65,0,0,1,841.2,393Z" fill="#fff"/>
					<path d="M883.19,263h0a315.63,315.63,0,0,1-41.44,2.4,315.52,315.52,0,0,1-41.44-2.4,77.66,77.66,0,0,1-12.92-2.69,18.37,18.37,0,0,1-3.17-1.32l6.87,63.23c.32-1.09.67-2.17,1.07-3.26a62.17,62.17,0,0,1,2.79-6.51,59.25,59.25,0,0,1,3.46-6,47.73,47.73,0,0,1,4-5.22,32.18,32.18,0,0,1,4.33-4.09,20.4,20.4,0,0,1,4.49-2.68,11.29,11.29,0,0,1,4.49-1,9.73,9.73,0,0,1,4.95,1.4,14.2,14.2,0,0,1,4.47,4.53,3.58,3.58,0,0,1,.6,1.41,7.32,7.32,0,0,1,.13,1.35,3.61,3.61,0,0,1-.72,2.37,2.12,2.12,0,0,1-1.7.86,2.16,2.16,0,0,1-1.67-.94,18.14,18.14,0,0,1-1.73-2.72,6.44,6.44,0,0,0-2-2.31,4.19,4.19,0,0,0-2.35-.72,7.24,7.24,0,0,0-4.21,1.63,24.46,24.46,0,0,0-4.43,4.32,46.86,46.86,0,0,0-4.2,6.13,63.05,63.05,0,0,0-3.56,7.06,50.29,50.29,0,0,0-2.46,7.13,25.29,25.29,0,0,0-.92,6.31,15.72,15.72,0,0,0,.13,1.91,6.53,6.53,0,0,0,.48,1.79,3.46,3.46,0,0,0,1,1.31,2.24,2.24,0,0,0,1.53.52,5.12,5.12,0,0,0,2.36-.7,18.14,18.14,0,0,0,2.74-1.83A34.69,34.69,0,0,0,807,331.7c.95-.95,1.85-1.92,2.67-2.9s1.56-1.91,2.19-2.81a16.45,16.45,0,0,0,1.44-2.35l2.61-7.83a3.72,3.72,0,0,1,1.26-1.8,2.77,2.77,0,0,1,1.58-.53,2.38,2.38,0,0,1,.79.13,2,2,0,0,1,1.2,1.15,2.82,2.82,0,0,1,.18,1.05,15,15,0,0,1-.28,3,24.88,24.88,0,0,1-.72,2.73c-.29.89-.61,1.78-1,2.68s-.7,1.84-1,2.82a7.07,7.07,0,0,0-.41,1l-.71,2.21c-.29.89-.59,1.89-.92,3s-.66,2.22-1,3.36-.68,2.27-1,3.36-.61,2.1-.86,3l-.63,2.23c-.17.6-.27.95-.31,1.06a6.41,6.41,0,0,1-.45,1.19,8.47,8.47,0,0,1-.73,1.23,4.26,4.26,0,0,1-.93,1,1.69,1.69,0,0,1-1,.39,1.47,1.47,0,0,1-1.31-.6,4.22,4.22,0,0,1-.4-2.2v-.47a4.44,4.44,0,0,1,0-.5,12.44,12.44,0,0,1,.42-2c.27-1,.58-2.08,1-3.31s.76-2.51,1.18-3.83.8-2.5,1.14-3.55c-1,1.11-2.07,2.22-3.24,3.32a34.55,34.55,0,0,1-3.57,3A21.56,21.56,0,0,1,800.4,342a8.81,8.81,0,0,1-3.58.83,6.47,6.47,0,0,1-3.39-.86l-.49-.34,3.83,40.08c1,2.49,19.73,8.62,44.43,8.62s43.46-6.13,44.44-8.62l5.49-47.66-1.32,1.22a55.73,55.73,0,0,1-4.46,3.78,20.19,20.19,0,0,1-4.09,2.45,10.6,10.6,0,0,1-4.28.87,5.17,5.17,0,0,1-3.3-.94,3.09,3.09,0,0,1-1.17-2.56v-.25a1.78,1.78,0,0,1,0-.29,5.88,5.88,0,0,1,.87-2.29,26.88,26.88,0,0,1,1.83-2.7c.71-.93,1.47-1.88,2.28-2.83s1.55-1.86,2.23-2.72a24.86,24.86,0,0,0,1.7-2.35,3.53,3.53,0,0,0,.68-1.73.78.78,0,0,0-.28-.63,1.44,1.44,0,0,0-.93-.24,5.28,5.28,0,0,0-2.32.59,11.46,11.46,0,0,0-2.36,1.56,21.91,21.91,0,0,0-2.28,2.25,32.43,32.43,0,0,0-2.08,2.63c-.65.91-1.24,1.83-1.77,2.75s-1,1.77-1.37,2.55c-.11.24-.27.59-.48,1s-.43.95-.67,1.5-.5,1.13-.78,1.72-.52,1.14-.74,1.66-.43,1-.6,1.4-.31.7-.39.85-.24.58-.46,1.13-.46,1.21-.74,1.95-.58,1.53-.89,2.35-.6,1.6-.87,2.33-.51,1.38-.72,1.94-.34.93-.39,1.13a12.6,12.6,0,0,1-.66,1.63,7,7,0,0,1-.88,1.35,3.81,3.81,0,0,1-1.12.93,3.12,3.12,0,0,1-3.1-.13,2.17,2.17,0,0,1-.66-1.85,5.89,5.89,0,0,1,.17-1.36,13.86,13.86,0,0,1,.42-1.39c.17-.45.35-.9.53-1.33s.34-.85.49-1.25q1.51-3.33,3.09-6.68t3-6.63c.21-.45.39-.9.59-1.35l-.18.17a37,37,0,0,1-3.64,3.11,19.1,19.1,0,0,1-3.6,2.15,8.36,8.36,0,0,1-3.47.8,4.59,4.59,0,0,1-1.93-.36,3.25,3.25,0,0,1-1.24-1,3.94,3.94,0,0,1-.66-1.5c0-.2-.07-.41-.1-.61-.33.26-.66.5-1,.74a20,20,0,0,1-3.43,2,7.54,7.54,0,0,1-3,.75,2.88,2.88,0,0,1-2.2-.9,4.44,4.44,0,0,1-.84-3.06,16.86,16.86,0,0,1,.45-3.57,18.52,18.52,0,0,1-1.83,2.64,16.94,16.94,0,0,1-2.5,2.43,12.77,12.77,0,0,1-3.15,1.78,10.26,10.26,0,0,1-3.8.68,7.08,7.08,0,0,1-1.79-.23,3.75,3.75,0,0,1-1.5-.8,4,4,0,0,1-1-1.52,6.25,6.25,0,0,1-.4-2.38s0-.36.12-1a21.1,21.1,0,0,1,.71-3.1q.61-2.11,1.87-5.48t3.58-8.16a4.51,4.51,0,0,1,1.36-1.82,2.81,2.81,0,0,1,1.67-.55,3,3,0,0,1,1.61.48,2,2,0,0,1,.59.64,1.69,1.69,0,0,1,.22.88,2.59,2.59,0,0,1-.08.63,7.89,7.89,0,0,1-.61,1.48q-.46.93-1.08,2.1c-.41.79-.85,1.64-1.31,2.55s-.88,1.86-1.28,2.83a29.19,29.19,0,0,0-1,3,13.05,13.05,0,0,0-.48,2.94,2.28,2.28,0,0,0,.28,1.1,1,1,0,0,0,.93.5,5.87,5.87,0,0,0,3.49-1.2,15.39,15.39,0,0,0,3.07-3,29.24,29.24,0,0,0,2.54-3.83c.76-1.37,1.39-2.61,1.9-3.75a17.8,17.8,0,0,0,.94-2.43,23.71,23.71,0,0,1,.89-2.4A7.57,7.57,0,0,1,843,318a2,2,0,0,1,1.55-.73,1.9,1.9,0,0,1,1.6.76,2.92,2.92,0,0,1,.59,1.84,5,5,0,0,1-.38,1.65c-.25.69-.57,1.49-.95,2.39s-.8,1.86-1.25,2.88-.87,2.06-1.25,3.12a29.52,29.52,0,0,0-1,3.1,11.79,11.79,0,0,0-.38,2.81,1.08,1.08,0,0,0,1.24,1.2,5.37,5.37,0,0,0,2.16-.6,14.8,14.8,0,0,0,2.72-1.68l.71-.57a22.71,22.71,0,0,1,.93-3c.66-1.73,1.32-3.45,2-5.16s1.29-3.28,1.86-4.7l8.52-21.49A3.61,3.61,0,0,1,863.1,298a3.2,3.2,0,0,1,1.73-.53,2.55,2.55,0,0,1,1.59.56,2.2,2.2,0,0,1,.72,1.84,3.73,3.73,0,0,1-.24,1.26,13.59,13.59,0,0,1-.61,1.43c-.46,1.05-1,2.32-1.67,3.83s-1.34,3.16-2.08,4.93-1.5,3.63-2.28,5.55L858,322.47c-.74,1.83-1.43,3.55-2.08,5.18s-1.2,3.05-1.67,4.25a18.48,18.48,0,0,0-.61,1.79,6.77,6.77,0,0,0-.29,1.81,1.67,1.67,0,0,0,.17.8.67.67,0,0,0,.64.3,3.61,3.61,0,0,0,1.48-.42,13.5,13.5,0,0,0,1.91-1.1c.69-.45,1.4-1,2.14-1.56s1.48-1.2,2.21-1.83,1.43-1.27,2.09-1.9,1.26-1.22,1.79-1.75a1.26,1.26,0,0,1,.43-.29c.32-.94.61-1.87.86-2.78.15-.4.36-1,.62-1.7a22.4,22.4,0,0,1,.9-2.16,9.4,9.4,0,0,1,1.14-1.85,1.78,1.78,0,0,1,1.37-.78,2.23,2.23,0,0,1,1.63.51,2.12,2.12,0,0,1,.5,1.52c0,.13,0,.34-.05.63s-.09.6-.14.92-.12.63-.19.92a3.64,3.64,0,0,1-.18.63q1-1.14,2.25-2.25a24.56,24.56,0,0,1,2.5-2,14.76,14.76,0,0,1,2.65-1.46,6.89,6.89,0,0,1,2.7-.57,6.45,6.45,0,0,1,1.84.27,5.47,5.47,0,0,1,1.63.78,4.17,4.17,0,0,1,1.17,1.3,3.59,3.59,0,0,1,.45,1.82,7.16,7.16,0,0,1-.69,2.91,21.55,21.55,0,0,1-1.73,3.11,36.25,36.25,0,0,1-2.25,3.05c-.81,1-1.56,1.89-2.26,2.7s-1.3,1.5-1.78,2.07a3.13,3.13,0,0,0-.74,1.15.88.88,0,0,0,.25.65,1.2,1.2,0,0,0,.84.25,3.23,3.23,0,0,0,1.41-.54,22.37,22.37,0,0,0,2.6-1.85c1.12-.87,2.53-2.05,4.25-3.53,1.18-1,2.55-2.22,4.11-3.59L899.28,259a18.37,18.37,0,0,1-3.17,1.32A77.66,77.66,0,0,1,883.19,263Z" fill="#fff"/>
					<path d="M865.82,247.35l5.06-20.5,28.94-30.55,0,0c.62-.7-.63-2.84-2.69-4.68s-4.29-2.46-5-1.76l0,0-30.87,32.48-6.35,24.51c-4.25-.13-8.67-.21-13.23-.21-32.15,0-58.22,3.6-58.22,8s26.07,8,58.22,8,58.23-3.6,58.23-8C899.93,251.42,885.94,248.62,865.82,247.35ZM858,258.9c-3.82,0-6.92-.85-6.92-1.89,0-.44.56-.84,1.49-1.16l-.08.33a.27.27,0,0,0-.06.17c0,.67,2.5,1.22,5.57,1.22s5.57-.55,5.57-1.22l.11-.42c.78.31,1.24.68,1.24,1.08C865,258.05,861.86,258.9,858,258.9Z" fill="#fff"/>
				</g>
			</g>
			<g>
				<path d="M819.31,159.07l0,0c.76-.87-.8-3.56-3.38-5.86s-5.38-3.09-6.25-2.21l0,0L771,191.72l-8,30.73c-5.33-.17-10.89-.26-16.59-.26-40.33,0-73,4.51-73,10.08l.93,5.4L683,317l2.33,24.4,4.79,50.26,3.48,6,9.39,16,3.67,50.13c0,5.61,17.85,10.17,39.87,10.17s39.87-4.56,39.87-10.17l2.91-50.67,8.88-15.55,3.38-6,6.89-59.76.9-7.8,9.32-86.39.82-5.4c0-4.08-17.54-7.59-42.78-9.17L783,197.38Z" fill="#da4648"/>
				<g opacity="0.6">
					<path d="M766.91,235.9c-3.85,0-7-.68-7-1.53a.42.42,0,0,1,.06-.21l.11-.41c-1.16.4-1.86.91-1.86,1.46,0,1.3,3.88,2.36,8.67,2.36s8.68-1.06,8.68-2.36c0-.5-.58-1-1.56-1.35l-.13.51C773.9,235.22,770.77,235.9,766.91,235.9Z" fill="none"/>
					<path d="M745.8,405.8a177,177,0,0,1-40.62-4.55,78.46,78.46,0,0,1-11.62-3.59l9.39,16,3.67,50.13c0,5.61,17.85,10.17,39.87,10.17s39.87-4.56,39.87-10.17l2.91-50.67,8.88-15.55a76.54,76.54,0,0,1-11.72,3.64A177,177,0,0,1,745.8,405.8Z" fill="#fff"/>
					<path d="M798.46,242.69h0c-13.91,1.94-32.36,3-52,3s-38.06-1.07-52-3a97.67,97.67,0,0,1-16.19-3.37,22.54,22.54,0,0,1-4-1.65L683,317c.4-1.36.84-2.73,1.34-4.09a77.11,77.11,0,0,1,3.51-8.16,70.6,70.6,0,0,1,4.34-7.54,56.81,56.81,0,0,1,5-6.54,39.25,39.25,0,0,1,5.43-5.14,25.77,25.77,0,0,1,5.62-3.36,14.26,14.26,0,0,1,5.63-1.22,12.15,12.15,0,0,1,6.21,1.76,17.76,17.76,0,0,1,5.61,5.68,4.48,4.48,0,0,1,.75,1.78,9.34,9.34,0,0,1,.16,1.69,4.49,4.49,0,0,1-.9,3,2.67,2.67,0,0,1-2.13,1.09,2.75,2.75,0,0,1-2.1-1.19,22.36,22.36,0,0,1-2.17-3.4,8.25,8.25,0,0,0-2.48-2.91,5.25,5.25,0,0,0-2.95-.9,9.12,9.12,0,0,0-5.27,2,30.81,30.81,0,0,0-5.56,5.41,59,59,0,0,0-5.27,7.69,79.68,79.68,0,0,0-4.46,8.85,63.75,63.75,0,0,0-3.09,8.94,32,32,0,0,0-1.14,7.92,19.82,19.82,0,0,0,.15,2.4,8.36,8.36,0,0,0,.6,2.24,4.63,4.63,0,0,0,1.2,1.65,2.88,2.88,0,0,0,1.92.65,6.55,6.55,0,0,0,3-.88,22.89,22.89,0,0,0,3.44-2.3,44.8,44.8,0,0,0,3.58-3.22c1.2-1.19,2.31-2.4,3.35-3.63s2-2.4,2.75-3.53a20.74,20.74,0,0,0,1.8-2.95l3.28-9.81a4.62,4.62,0,0,1,1.57-2.26,3.5,3.5,0,0,1,2-.67,3.12,3.12,0,0,1,1,.17,2.53,2.53,0,0,1,.88.52,2.57,2.57,0,0,1,.62.92,3.58,3.58,0,0,1,.23,1.32,18.75,18.75,0,0,1-.36,3.76,27.7,27.7,0,0,1-.9,3.42c-.36,1.12-.77,2.24-1.21,3.36s-.89,2.31-1.31,3.54a8.58,8.58,0,0,0-.51,1.31c-.25.74-.55,1.67-.9,2.78s-.73,2.36-1.15,3.74l-1.26,4.22c-.44,1.43-.86,2.84-1.26,4.22s-.76,2.62-1.07,3.74-.58,2-.8,2.8-.34,1.19-.38,1.33a8.51,8.51,0,0,1-.57,1.48,9.31,9.31,0,0,1-.92,1.55,5.59,5.59,0,0,1-1.16,1.21,2.14,2.14,0,0,1-1.31.48,1.83,1.83,0,0,1-1.63-.75,5.15,5.15,0,0,1-.52-2.76v-.58c0-.2,0-.41,0-.63a14.75,14.75,0,0,1,.53-2.51c.33-1.22.72-2.6,1.18-4.15s1-3.15,1.48-4.81l1.43-4.44q-1.87,2.08-4.06,4.15a43.49,43.49,0,0,1-4.48,3.72,26.53,26.53,0,0,1-4.62,2.7,11,11,0,0,1-4.48,1,8,8,0,0,1-4.25-1.09c-.21-.13-.41-.28-.61-.42l4.79,50.26c1.25,3.13,24.74,10.82,55.72,10.82s54.5-7.7,55.73-10.82l6.89-59.76c-.57.52-1.13,1-1.66,1.53q-3,2.75-5.59,4.74A25.64,25.64,0,0,1,796,341.2a13.4,13.4,0,0,1-5.36,1.08,6.51,6.51,0,0,1-4.15-1.17,3.89,3.89,0,0,1-1.46-3.21v-.32a2.6,2.6,0,0,1,0-.35,7.57,7.57,0,0,1,1.1-2.88,32.67,32.67,0,0,1,2.29-3.39q1.34-1.75,2.86-3.55t2.8-3.4a31.9,31.9,0,0,0,2.13-2.95,4.37,4.37,0,0,0,.85-2.17,1,1,0,0,0-.35-.8,1.89,1.89,0,0,0-1.17-.29,6.73,6.73,0,0,0-2.91.73,14.78,14.78,0,0,0-3,2,27,27,0,0,0-2.86,2.82q-1.38,1.59-2.61,3.3t-2.22,3.45c-.67,1.15-1.24,2.22-1.71,3.19l-.6,1.29c-.26.56-.54,1.19-.85,1.89s-.62,1.41-1,2.15-.65,1.43-.93,2.09l-.76,1.75-.47,1.07c-.12.25-.32.72-.59,1.42s-.58,1.51-.93,2.44l-1.11,2.95c-.39,1-.75,2-1.1,2.92s-.64,1.73-.89,2.42-.43,1.17-.5,1.42a13.93,13.93,0,0,1-.83,2.05,8.18,8.18,0,0,1-1.09,1.69,4.9,4.9,0,0,1-1.41,1.17,3.53,3.53,0,0,1-1.78.44,3.42,3.42,0,0,1-2.1-.61,2.7,2.7,0,0,1-.83-2.31,7.42,7.42,0,0,1,.21-1.72,15.63,15.63,0,0,1,.53-1.73c.21-.57.43-1.13.65-1.67s.43-1.07.62-1.57q1.9-4.17,3.88-8.37t3.79-8.32c.25-.57.49-1.13.73-1.7-.07.07-.14.15-.22.22a47.6,47.6,0,0,1-4.56,3.91,24.87,24.87,0,0,1-4.52,2.69,10.57,10.57,0,0,1-4.36,1,5.57,5.57,0,0,1-2.41-.46,3.92,3.92,0,0,1-1.55-1.25,5,5,0,0,1-.83-1.88c-.06-.25-.09-.51-.13-.76-.41.32-.83.63-1.25.93a24.9,24.9,0,0,1-4.3,2.48,9.47,9.47,0,0,1-3.81.94,3.58,3.58,0,0,1-2.75-1.13,5.53,5.53,0,0,1-1.06-3.84,21.41,21.41,0,0,1,.56-4.47,22.12,22.12,0,0,1-2.29,3.3,19.32,19.32,0,0,1-3.14,3,15.44,15.44,0,0,1-3.95,2.24,13,13,0,0,1-4.76.85,8.76,8.76,0,0,1-2.24-.29,4.74,4.74,0,0,1-1.88-1,5,5,0,0,1-1.31-1.9,7.86,7.86,0,0,1-.49-3s0-.45.14-1.28a26.23,26.23,0,0,1,.9-3.88q.75-2.65,2.34-6.87t4.48-10.24a5.72,5.72,0,0,1,1.71-2.27,3.57,3.57,0,0,1,2.1-.69,4.1,4.1,0,0,1,1,.14,3.2,3.2,0,0,1,1,.46,2.46,2.46,0,0,1,.74.8,2.09,2.09,0,0,1,.28,1.1,3,3,0,0,1-.1.8,9.4,9.4,0,0,1-.76,1.85c-.39.77-.84,1.65-1.36,2.64s-1.06,2.05-1.64,3.19-1.11,2.33-1.6,3.56a33.44,33.44,0,0,0-1.27,3.73,15.93,15.93,0,0,0-.6,3.7,2.83,2.83,0,0,0,.35,1.38,1.23,1.23,0,0,0,1.17.63A7.39,7.39,0,0,0,735,333.3a19.07,19.07,0,0,0,3.84-3.74,35.39,35.39,0,0,0,3.19-4.8c1-1.71,1.75-3.28,2.39-4.7a25.45,25.45,0,0,0,1.18-3.05,29.79,29.79,0,0,1,1.11-3,9.65,9.65,0,0,1,1.37-2.3,2.46,2.46,0,0,1,1.94-.92,2.38,2.38,0,0,1,2,1,3.59,3.59,0,0,1,.74,2.29,6.47,6.47,0,0,1-.47,2.07c-.32.88-.72,1.88-1.2,3s-1,2.33-1.57,3.61-1.09,2.59-1.57,3.91-.88,2.62-1.2,3.88a14.49,14.49,0,0,0-.47,3.53,1.35,1.35,0,0,0,1.55,1.51,6.75,6.75,0,0,0,2.71-.75A19.57,19.57,0,0,0,754,332.7l.89-.71a29,29,0,0,1,1.17-3.78c.82-2.18,1.66-4.33,2.5-6.48s1.63-4.11,2.33-5.89l10.69-26.95a4.45,4.45,0,0,1,1.71-2.29,4,4,0,0,1,2.17-.67,3.09,3.09,0,0,1,2,.71,2.75,2.75,0,0,1,.9,2.3,4.63,4.63,0,0,1-.3,1.58,18.1,18.1,0,0,1-.76,1.8q-.87,2-2.1,4.8t-2.61,6.19c-.93,2.23-1.88,4.54-2.85,6.95l-2.86,7c-.93,2.29-1.8,4.45-2.61,6.5l-2.1,5.32c-.26.64-.51,1.39-.76,2.24a8.54,8.54,0,0,0-.37,2.28,2,2,0,0,0,.22,1,.85.85,0,0,0,.81.38,4.59,4.59,0,0,0,1.85-.53,18.27,18.27,0,0,0,2.4-1.38c.85-.57,1.75-1.22,2.68-2s1.85-1.5,2.76-2.3,1.8-1.58,2.63-2.38,1.58-1.52,2.24-2.19a1.54,1.54,0,0,1,.55-.36c.39-1.19.76-2.35,1.07-3.48.19-.51.45-1.22.78-2.14s.71-1.82,1.13-2.71a11.3,11.3,0,0,1,1.43-2.32,2.24,2.24,0,0,1,1.71-1,2.72,2.72,0,0,1,2,.65,2.57,2.57,0,0,1,.64,1.9,6.29,6.29,0,0,1-.07.79c0,.36-.11.75-.18,1.15s-.14.79-.23,1.15a4.73,4.73,0,0,1-.23.79c.87-.94,1.81-1.88,2.83-2.82a29.27,29.27,0,0,1,3.13-2.52,17.63,17.63,0,0,1,3.32-1.84,8.6,8.6,0,0,1,3.39-.71,8.37,8.37,0,0,1,2.31.33,6.65,6.65,0,0,1,2,1,5.34,5.34,0,0,1,1.47,1.63,4.56,4.56,0,0,1,.56,2.28,9.08,9.08,0,0,1-.86,3.65,26.83,26.83,0,0,1-2.17,3.91q-1.31,2-2.82,3.82c-1,1.24-2,2.37-2.84,3.39s-1.63,1.88-2.23,2.59a3.93,3.93,0,0,0-.93,1.44,1.1,1.1,0,0,0,.32.81,1.45,1.45,0,0,0,1,.32,4.19,4.19,0,0,0,1.77-.67,31.61,31.61,0,0,0,3.26-2.32q2.1-1.65,5.33-4.43c1.47-1.27,3.2-2.78,5.15-4.5l9.32-86.39a23.62,23.62,0,0,1-4,1.65A97.6,97.6,0,0,1,798.46,242.69Z" fill="#fff"/>
					<path d="M776.68,223.1,783,197.38l36.29-38.31,0,0c.76-.87-.8-3.56-3.38-5.86s-5.38-3.09-6.25-2.21l0,0L771,191.72l-8,30.73c-5.33-.17-10.89-.26-16.59-.26-40.33,0-73,4.51-73,10.08s32.7,10.07,73,10.07,73-4.51,73-10.07C819.46,228.19,801.92,224.68,776.68,223.1Zm-9.77,14.47c-4.79,0-8.67-1.06-8.67-2.36,0-.55.7-1.06,1.86-1.46l-.11.41a.42.42,0,0,0-.06.21c0,.85,3.13,1.53,7,1.53s7-.68,7-1.53l.13-.51c1,.38,1.56.85,1.56,1.35C775.59,236.51,771.71,237.57,766.91,237.57Z" fill="#fff"/>
				</g>
			</g>
			<g>
				<path d="M718.48,113.11l0,0c1-1.1-1-4.48-4.26-7.39s-6.77-3.89-7.87-2.78l0,0-48.79,51.34-10,38.74c-6.72-.22-13.72-.33-20.91-.33-50.83,0-92,5.68-92,12.69l1.17,6.81,10.86,99.93,2.93,30.74,6,63.35,4.38,7.6L571.83,434l4.63,63.17c0,7.08,22.5,12.82,50.25,12.82S677,504.26,677,497.18l3.67-63.86,11.19-19.58,4.26-7.56,8.68-75.31,1.13-9.83,11.76-108.87,1-6.81c0-5.13-22.11-9.56-53.91-11.56l8-32.41Z" fill="#da4648"/>
				<g opacity="0.8">
					<path d="M652.44,209.94c-4.86,0-8.8-.86-8.8-1.92a.56.56,0,0,1,.08-.27l.14-.52c-1.47.5-2.35,1.14-2.35,1.84,0,1.64,4.89,3,10.93,3s10.94-1.34,10.94-3c0-.63-.73-1.22-2-1.7l-.16.65C661.25,209.08,657.31,209.94,652.44,209.94Z" fill="none"/>
					<path d="M625.84,424.05a223.21,223.21,0,0,1-51.2-5.73A97.31,97.31,0,0,1,560,413.79L571.83,434l4.63,63.17c0,7.08,22.5,12.82,50.25,12.82S677,504.26,677,497.18l3.67-63.86,11.19-19.58A97.87,97.87,0,0,1,677,418.32,223.21,223.21,0,0,1,625.84,424.05Z" fill="#fff"/>
					<path d="M692.2,218.5h0c-17.53,2.45-40.78,3.79-65.49,3.79s-48-1.34-65.49-3.79a122.25,122.25,0,0,1-20.42-4.25,29.71,29.71,0,0,1-5-2.08l10.86,99.93q.76-2.58,1.69-5.16a99.27,99.27,0,0,1,4.42-10.29,92,92,0,0,1,5.47-9.5,74.1,74.1,0,0,1,6.29-8.24,49.64,49.64,0,0,1,6.85-6.48,32.55,32.55,0,0,1,7.08-4.23,18,18,0,0,1,7.09-1.53,15.34,15.34,0,0,1,7.83,2.21,22.44,22.44,0,0,1,7.07,7.16,5.72,5.72,0,0,1,1,2.24,11.58,11.58,0,0,1,.2,2.13,5.72,5.72,0,0,1-1.13,3.74,3.41,3.41,0,0,1-2.69,1.37,3.46,3.46,0,0,1-2.65-1.5,29,29,0,0,1-2.73-4.29,10.29,10.29,0,0,0-3.13-3.66,6.56,6.56,0,0,0-3.72-1.13,11.53,11.53,0,0,0-6.64,2.57,38.73,38.73,0,0,0-7,6.82,75.58,75.58,0,0,0-6.65,9.69,102.21,102.21,0,0,0-5.62,11.16,80.66,80.66,0,0,0-3.89,11.27,40.18,40.18,0,0,0-1.44,10,22.45,22.45,0,0,0,.2,3,10.06,10.06,0,0,0,.75,2.82,5.85,5.85,0,0,0,1.51,2.08,3.64,3.64,0,0,0,2.43.81,8.24,8.24,0,0,0,3.73-1.1,27.72,27.72,0,0,0,4.33-2.9,54.57,54.57,0,0,0,4.52-4.05q2.26-2.26,4.22-4.58c1.3-1.55,2.46-3,3.46-4.45a25.85,25.85,0,0,0,2.27-3.71L585.85,302a5.8,5.8,0,0,1,2-2.85,4.42,4.42,0,0,1,2.52-.84,3.89,3.89,0,0,1,1.24.21,3.06,3.06,0,0,1,1.89,1.82,4.4,4.4,0,0,1,.29,1.66,23.66,23.66,0,0,1-.45,4.73,36,36,0,0,1-1.13,4.32c-.46,1.4-1,2.82-1.53,4.24s-1.12,2.9-1.65,4.45a9.82,9.82,0,0,0-.64,1.66c-.31.93-.69,2.09-1.14,3.5s-.92,3-1.44,4.71-1,3.51-1.6,5.32-1.07,3.58-1.58,5.32-1,3.3-1.35,4.71l-1,3.52c-.26.95-.42,1.51-.48,1.69a11.79,11.79,0,0,1-.71,1.87,13.73,13.73,0,0,1-1.16,1.95,6.88,6.88,0,0,1-1.47,1.52,2.71,2.71,0,0,1-1.64.61,2.33,2.33,0,0,1-2.07-.95,6.61,6.61,0,0,1-.64-3.47V351a7.33,7.33,0,0,1,0-.79,18.41,18.41,0,0,1,.67-3.16q.62-2.31,1.49-5.24c.58-1.95,1.2-4,1.86-6l1.8-5.61c-1.57,1.76-3.27,3.5-5.11,5.24a54.61,54.61,0,0,1-5.64,4.68,33.38,33.38,0,0,1-5.83,3.4,13.69,13.69,0,0,1-5.64,1.32,10.15,10.15,0,0,1-5.36-1.37c-.27-.17-.52-.35-.78-.54l6,63.35c1.57,3.94,31.18,13.63,70.22,13.63s68.68-9.7,70.23-13.64l8.68-75.31c-.72.66-1.42,1.3-2.09,1.93a92.34,92.34,0,0,1-7,6,31.52,31.52,0,0,1-6.46,3.87,16.88,16.88,0,0,1-6.76,1.37,8.11,8.11,0,0,1-5.22-1.48,4.9,4.9,0,0,1-1.85-4v-.39a2.68,2.68,0,0,1,0-.45,9.53,9.53,0,0,1,1.37-3.63,43.55,43.55,0,0,1,2.89-4.27c1.13-1.47,2.33-3,3.6-4.47s2.46-2.94,3.54-4.3a39.58,39.58,0,0,0,2.69-3.71,5.55,5.55,0,0,0,1.06-2.73,1.27,1.27,0,0,0-.44-1,2.37,2.37,0,0,0-1.47-.36,8.22,8.22,0,0,0-3.66.92,18.29,18.29,0,0,0-3.74,2.47,33.47,33.47,0,0,0-3.6,3.56,52.07,52.07,0,0,0-3.29,4.15c-1,1.45-2,2.89-2.8,4.35s-1.56,2.8-2.16,4c-.17.38-.42.93-.75,1.63s-.68,1.49-1.07,2.37-.79,1.78-1.22,2.71-.82,1.81-1.18,2.63-.67,1.56-.95,2.21-.48,1.1-.6,1.35-.4.91-.74,1.78-.73,1.91-1.17,3.08l-1.41,3.72-1.37,3.68-1.14,3.06c-.32.87-.53,1.47-.62,1.79a18.52,18.52,0,0,1-1,2.58,10.84,10.84,0,0,1-1.38,2.13,6.38,6.38,0,0,1-1.78,1.47,4.53,4.53,0,0,1-2.24.55,4.37,4.37,0,0,1-2.65-.76,3.44,3.44,0,0,1-1-2.92,9.65,9.65,0,0,1,.26-2.16,18.3,18.3,0,0,1,.67-2.18c.27-.72.54-1.42.82-2.11s.54-1.34.78-2q2.4-5.26,4.89-10.56t4.78-10.48c.32-.72.61-1.42.92-2.14l-.28.27a58.4,58.4,0,0,1-5.75,4.93,30.33,30.33,0,0,1-5.69,3.39,13.43,13.43,0,0,1-5.49,1.27,7.21,7.21,0,0,1-3-.58,5.18,5.18,0,0,1-2-1.58,6.4,6.4,0,0,1-1-2.37c-.07-.31-.11-.64-.16-1-.52.4-1,.8-1.57,1.17a32.14,32.14,0,0,1-5.42,3.13,12,12,0,0,1-4.8,1.19,4.53,4.53,0,0,1-3.47-1.43c-.89-.94-1.33-2.56-1.33-4.84a26.11,26.11,0,0,1,.71-5.63,29.58,29.58,0,0,1-2.89,4.16,25.75,25.75,0,0,1-4,3.84,19.59,19.59,0,0,1-5,2.82,16.25,16.25,0,0,1-6,1.08,10.9,10.9,0,0,1-2.82-.37,6,6,0,0,1-2.38-1.27,6.23,6.23,0,0,1-1.64-2.39,9.81,9.81,0,0,1-.62-3.77s.06-.57.17-1.6a34.38,34.38,0,0,1,1.14-4.9c.63-2.23,1.62-5.11,2.95-8.66s3.22-7.84,5.65-12.9a7.17,7.17,0,0,1,2.15-2.87,4.49,4.49,0,0,1,2.65-.87,5,5,0,0,1,1.29.19,3.9,3.9,0,0,1,1.24.58,3.1,3.1,0,0,1,.94,1,2.76,2.76,0,0,1,.35,1.39,3.61,3.61,0,0,1-.13,1,12.08,12.08,0,0,1-1,2.35c-.49,1-1.06,2.07-1.71,3.31s-1.34,2.59-2.07,4-1.4,2.93-2,4.48a45.79,45.79,0,0,0-1.6,4.71,20.09,20.09,0,0,0-.75,4.66,3.46,3.46,0,0,0,.44,1.74,1.57,1.57,0,0,0,1.47.78,9.3,9.3,0,0,0,5.51-1.89,24.13,24.13,0,0,0,4.84-4.71,44.6,44.6,0,0,0,4-6.06q1.8-3.24,3-5.92a31,31,0,0,0,1.49-3.84,34.61,34.61,0,0,1,1.4-3.79,11.59,11.59,0,0,1,1.73-2.9,3.21,3.21,0,0,1,5,0,4.64,4.64,0,0,1,.93,2.9,8.32,8.32,0,0,1-.6,2.61c-.4,1.1-.9,2.36-1.51,3.79s-1.27,2.94-2,4.55-1.37,3.25-2,4.92a48.68,48.68,0,0,0-1.51,4.9,18.34,18.34,0,0,0-.6,4.45c0,1.26.65,1.89,2,1.89a8.38,8.38,0,0,0,3.42-.95,23.06,23.06,0,0,0,4.29-2.66c.37-.28.75-.58,1.12-.89a37.08,37.08,0,0,1,1.48-4.76q1.56-4.11,3.16-8.16c1.06-2.71,2-5.18,2.93-7.43l13.47-34a5.69,5.69,0,0,1,2.15-2.89,5.18,5.18,0,0,1,2.74-.84,4,4,0,0,1,2.51.89,3.49,3.49,0,0,1,1.13,2.9,5.73,5.73,0,0,1-.38,2c-.25.7-.57,1.45-1,2.26q-1.11,2.47-2.65,6.06t-3.29,7.79q-1.75,4.22-3.6,8.76t-3.6,8.87c-1.17,2.88-2.26,5.61-3.29,8.19s-1.9,4.82-2.64,6.71a28.71,28.71,0,0,0-1,2.82,10.44,10.44,0,0,0-.46,2.87,2.63,2.63,0,0,0,.26,1.26,1.07,1.07,0,0,0,1,.48,5.74,5.74,0,0,0,2.33-.66,24.09,24.09,0,0,0,3-1.74c1.09-.72,2.21-1.54,3.38-2.47s2.33-1.9,3.49-2.9,2.26-2,3.31-3,2-1.92,2.82-2.76a1.83,1.83,0,0,1,.69-.45c.5-1.5,1-3,1.36-4.4.24-.63.56-1.52,1-2.68a36.25,36.25,0,0,1,1.42-3.42,14.29,14.29,0,0,1,1.8-2.93,2.81,2.81,0,0,1,2.15-1.23,3.5,3.5,0,0,1,2.58.81,3.28,3.28,0,0,1,.8,2.4,8.68,8.68,0,0,1-.09,1c-.06.46-.13.94-.22,1.45s-.18,1-.29,1.45a6.15,6.15,0,0,1-.29,1c1.1-1.2,2.28-2.38,3.56-3.56a35.58,35.58,0,0,1,4-3.18,22.46,22.46,0,0,1,4.18-2.32,10.87,10.87,0,0,1,4.26-.9,10.36,10.36,0,0,1,2.91.43A8.43,8.43,0,0,1,697,306a6.39,6.39,0,0,1,1.84,2.06,5.59,5.59,0,0,1,.72,2.87,11.43,11.43,0,0,1-1.09,4.6,32.74,32.74,0,0,1-2.74,4.92,58.52,58.52,0,0,1-3.55,4.82q-1.92,2.34-3.58,4.27c-1.11,1.28-2.05,2.37-2.8,3.26a5,5,0,0,0-1.18,1.82,1.43,1.43,0,0,0,.4,1,1.87,1.87,0,0,0,1.33.39,5.14,5.14,0,0,0,2.23-.84,39.1,39.1,0,0,0,4.11-2.92q2.64-2.08,6.71-5.59c1.86-1.6,4-3.5,6.49-5.67l11.76-108.87a29.75,29.75,0,0,1-5,2.08A121.87,121.87,0,0,1,692.2,218.5Z" fill="#fff"/>
					<path d="M664.75,193.8l8-32.41,45.73-48.28,0,0c1-1.1-1-4.48-4.26-7.39s-6.77-3.89-7.87-2.78l0,0-48.79,51.34-10,38.74c-6.72-.22-13.72-.33-20.91-.33-50.83,0-92,5.68-92,12.69s41.2,12.69,92,12.69,92-5.68,92-12.69C718.66,200.23,696.55,195.8,664.75,193.8Zm-12.31,18.25c-6,0-10.93-1.34-10.93-3,0-.7.88-1.34,2.35-1.84l-.14.52a.56.56,0,0,0-.08.27c0,1.06,3.94,1.92,8.8,1.92s8.81-.86,8.81-1.92l.16-.65c1.24.48,2,1.07,2,1.7C663.38,210.71,658.49,212.05,652.44,212.05Z" fill="#fff"/>
				</g>
			</g>
			<g>
				<path d="M592.79,61.09l.05-.06c1.2-1.36-1.24-5.56-5.28-9.17s-8.41-4.83-9.77-3.45l0,0-60.55,63.71-12.45,48.07c-8.33-.27-17-.41-25.94-.41-63.07,0-114.2,7.05-114.2,15.75l1.45,8.45,13.47,124,3.64,38.15,7.5,78.61,5.44,9.44,14.69,25.09,5.74,78.39c0,8.79,27.92,15.91,62.35,15.91s62.36-7.12,62.36-15.91l4.55-79.24,13.89-24.31,5.28-9.37,10.77-93.47,1.41-12.2L591.74,184l1.28-8.45c0-6.37-27.44-11.86-66.9-14.34L536,121Z" fill="#da4648"/>
				<g>
					<path d="M510.84,181.25c-6,0-10.92-1.07-10.92-2.39a.6.6,0,0,1,.1-.33l.17-.65c-1.82.63-2.92,1.42-2.92,2.28,0,2.05,6.08,3.7,13.57,3.7s13.58-1.65,13.58-3.7c0-.78-.91-1.51-2.45-2.11l-.2.81C521.77,180.18,516.88,181.25,510.84,181.25Z" fill="none"/>
					<path d="M477.83,447a276.83,276.83,0,0,1-63.54-7.11,121.34,121.34,0,0,1-18.17-5.62l14.69,25.09,5.74,78.39c0,8.79,27.92,15.91,62.35,15.91s62.36-7.12,62.36-15.91l4.55-79.24,13.89-24.31a120.44,120.44,0,0,1-18.34,5.69A276.73,276.73,0,0,1,477.83,447Z" fill="#fff"/>
					<path d="M560.18,191.87h0c-21.75,3-50.61,4.71-81.28,4.71s-59.52-1.68-81.27-4.71c-10.77-1.51-19.29-3.28-25.33-5.28a36.49,36.49,0,0,1-6.23-2.58l13.47,124q.94-3.21,2.1-6.4a120.62,120.62,0,0,1,5.49-12.77,114,114,0,0,1,6.78-11.79,92.37,92.37,0,0,1,7.81-10.23,62.58,62.58,0,0,1,8.49-8,40.54,40.54,0,0,1,8.8-5.26,22.38,22.38,0,0,1,8.8-1.9,19,19,0,0,1,9.71,2.75,27.8,27.8,0,0,1,8.77,8.88,7.12,7.12,0,0,1,1.18,2.78,14.87,14.87,0,0,1,.25,2.65,7.12,7.12,0,0,1-1.4,4.64A4.22,4.22,0,0,1,443,275a4.26,4.26,0,0,1-3.28-1.86,35.87,35.87,0,0,1-3.4-5.32,12.77,12.77,0,0,0-3.88-4.54,8.18,8.18,0,0,0-4.61-1.41q-3.85,0-8.25,3.2a48.25,48.25,0,0,0-8.68,8.46,92.93,92.93,0,0,0-8.25,12,123.81,123.81,0,0,0-7,13.85,97.87,97.87,0,0,0-4.82,14A49.5,49.5,0,0,0,389,325.8a30.56,30.56,0,0,0,.25,3.76,12.77,12.77,0,0,0,.94,3.49,7,7,0,0,0,1.87,2.58,4.47,4.47,0,0,0,3,1,10.06,10.06,0,0,0,4.63-1.37,34.68,34.68,0,0,0,5.38-3.59,68.24,68.24,0,0,0,5.6-5c1.88-1.87,3.62-3.77,5.24-5.69s3.05-3.75,4.3-5.52a33.4,33.4,0,0,0,2.82-4.6l5.13-15.36a7.16,7.16,0,0,1,2.45-3.52,5.41,5.41,0,0,1,3.12-1,4.88,4.88,0,0,1,1.54.26,3.81,3.81,0,0,1,2.35,2.26,5.37,5.37,0,0,1,.35,2.05,29.66,29.66,0,0,1-.55,5.88,45.32,45.32,0,0,1-1.4,5.36c-.57,1.74-1.21,3.5-1.91,5.26s-1.38,3.6-2,5.52a13.57,13.57,0,0,0-.8,2.06c-.38,1.15-.85,2.6-1.4,4.34s-1.15,3.7-1.8,5.85-1.3,4.36-2,6.6-1.33,4.44-2,6.6-1.19,4.11-1.68,5.85-.91,3.2-1.24,4.37-.54,1.88-.61,2.1a13.35,13.35,0,0,1-.88,2.31,15.14,15.14,0,0,1-1.44,2.42,8.94,8.94,0,0,1-1.82,1.9,3.34,3.34,0,0,1-2,.75,2.85,2.85,0,0,1-2.56-1.18c-.54-.78-.8-2.22-.8-4.31v-.91a8.36,8.36,0,0,1,0-1,23.33,23.33,0,0,1,.83-3.93q.76-2.86,1.85-6.5c.71-2.41,1.49-4.92,2.31-7.51s1.58-4.91,2.24-7q-2.92,3.27-6.35,6.5a67.66,67.66,0,0,1-7,5.82,41.41,41.41,0,0,1-7.23,4.21,17,17,0,0,1-7,1.64,12.55,12.55,0,0,1-6.65-1.7c-.34-.21-.65-.44-1-.67l7.5,78.61c1.95,4.9,38.7,16.92,87.15,16.92s85.23-12,87.15-16.92l10.77-93.47c-.89.82-1.76,1.62-2.59,2.4a113.8,113.8,0,0,1-8.75,7.41,39.14,39.14,0,0,1-8,4.8,20.73,20.73,0,0,1-8.39,1.7,10.16,10.16,0,0,1-6.48-1.83,6.1,6.1,0,0,1-2.29-5v-.49a3.25,3.25,0,0,1,.06-.56,11.94,11.94,0,0,1,1.71-4.5,51.49,51.49,0,0,1,3.58-5.29c1.4-1.83,2.89-3.69,4.47-5.56s3.05-3.65,4.39-5.32a51.41,51.41,0,0,0,3.33-4.61,6.85,6.85,0,0,0,1.33-3.4,1.56,1.56,0,0,0-.55-1.24,2.91,2.91,0,0,0-1.82-.46,10.39,10.39,0,0,0-4.55,1.15,22.7,22.7,0,0,0-4.64,3.07,43,43,0,0,0-4.47,4.41,65.07,65.07,0,0,0-4.08,5.16c-1.27,1.79-2.42,3.58-3.47,5.39s-1.94,3.47-2.68,5c-.22.48-.53,1.15-.94,2s-.84,1.86-1.32,2.94-1,2.22-1.52,3.37-1,2.24-1.46,3.27l-1.18,2.74c-.35.8-.6,1.36-.75,1.67s-.49,1.13-.91,2.22-.91,2.36-1.46,3.82l-1.74,4.61c-.6,1.6-1.18,3.13-1.71,4.57l-1.4,3.79q-.62,1.64-.78,2.22a23.48,23.48,0,0,1-1.29,3.2,13.72,13.72,0,0,1-1.71,2.65,8,8,0,0,1-2.21,1.83,5.64,5.64,0,0,1-2.78.68,5.45,5.45,0,0,1-3.29-.95c-.86-.63-1.29-1.84-1.29-3.62a11.42,11.42,0,0,1,.33-2.68,22.23,22.23,0,0,1,.83-2.71c.33-.9.67-1.76,1-2.61s.67-1.67,1-2.45q3-6.54,6.07-13.1t5.93-13c.39-.89.75-1.77,1.14-2.66l-.34.34a72.72,72.72,0,0,1-7.14,6.11,38.13,38.13,0,0,1-7.06,4.22,16.75,16.75,0,0,1-6.82,1.57,8.79,8.79,0,0,1-3.78-.72,6.28,6.28,0,0,1-2.42-2,7.88,7.88,0,0,1-1.3-2.94c-.09-.39-.14-.79-.2-1.2-.64.51-1.3,1-1.95,1.46a39.51,39.51,0,0,1-6.73,3.89,14.91,14.91,0,0,1-6,1.47,5.62,5.62,0,0,1-4.3-1.77c-1.1-1.17-1.65-3.18-1.65-6a32.79,32.79,0,0,1,.88-7A35.51,35.51,0,0,1,468,338a31.28,31.28,0,0,1-4.91,4.77,24.61,24.61,0,0,1-6.18,3.5,20.29,20.29,0,0,1-7.44,1.34,13.57,13.57,0,0,1-3.51-.46,7.44,7.44,0,0,1-3-1.57,8,8,0,0,1-2-3,12.35,12.35,0,0,1-.77-4.67c0-.05.07-.71.22-2a43.29,43.29,0,0,1,1.41-6.07q1.18-4.15,3.66-10.75t7-16a8.87,8.87,0,0,1,2.68-3.56,5.53,5.53,0,0,1,3.28-1.08,6.12,6.12,0,0,1,1.6.23,5.28,5.28,0,0,1,1.54.72,3.82,3.82,0,0,1,1.16,1.24,3.4,3.4,0,0,1,.44,1.73,4.53,4.53,0,0,1-.16,1.24,14.84,14.84,0,0,1-1.19,2.91q-.9,1.8-2.12,4.12t-2.57,5c-.9,1.78-1.73,3.63-2.51,5.55a55.9,55.9,0,0,0-2,5.85,25.13,25.13,0,0,0-.94,5.78,4.34,4.34,0,0,0,.55,2.16,1.94,1.94,0,0,0,1.82,1,11.5,11.5,0,0,0,6.84-2.36,30.05,30.05,0,0,0,6-5.84,56.11,56.11,0,0,0,5-7.52q2.23-4,3.72-7.35a38.17,38.17,0,0,0,1.85-4.77,48,48,0,0,1,1.73-4.7,14.41,14.41,0,0,1,2.16-3.59,4,4,0,0,1,6.17.06,5.66,5.66,0,0,1,1.16,3.59,10.39,10.39,0,0,1-.74,3.24q-.75,2.06-1.88,4.7T483.69,317c-.88,2-1.7,4-2.46,6.11a60.76,60.76,0,0,0-1.87,6.08,22.64,22.64,0,0,0-.75,5.52A2.11,2.11,0,0,0,481,337.1a10.68,10.68,0,0,0,4.25-1.17,29.86,29.86,0,0,0,5.32-3.3c.46-.36.93-.73,1.39-1.11a45.38,45.38,0,0,1,1.84-5.92q1.92-5.1,3.91-10.12t3.65-9.22l16.71-42.14a7,7,0,0,1,2.67-3.59,6.35,6.35,0,0,1,3.4-1,4.92,4.92,0,0,1,3.11,1.11,4.32,4.32,0,0,1,1.41,3.6,7.42,7.42,0,0,1-.47,2.48,29.28,29.28,0,0,1-1.19,2.81q-1.38,3.07-3.28,7.51t-4.08,9.67q-2.17,5.23-4.47,10.88t-4.47,11q-2.17,5.35-4.08,10.16T503.38,327a36.28,36.28,0,0,0-1.19,3.5,13,13,0,0,0-.57,3.56,3.17,3.17,0,0,0,.33,1.56,1.3,1.3,0,0,0,1.26.59,7.2,7.2,0,0,0,2.9-.81,30.43,30.43,0,0,0,3.75-2.16c1.34-.89,2.74-1.92,4.19-3.07s2.9-2.35,4.33-3.59,2.81-2.49,4.11-3.73,2.48-2.38,3.51-3.43a2.48,2.48,0,0,1,.84-.56q.95-2.77,1.69-5.45c.3-.78.7-1.89,1.22-3.33a45.86,45.86,0,0,1,1.76-4.25,18.28,18.28,0,0,1,2.23-3.62,3.48,3.48,0,0,1,2.68-1.54,4.35,4.35,0,0,1,3.2,1,4.11,4.11,0,0,1,1,3,9.53,9.53,0,0,1-.11,1.24q-.11.84-.27,1.8c-.11.63-.23,1.23-.36,1.79a8,8,0,0,1-.36,1.24q2-2.22,4.41-4.41a44.93,44.93,0,0,1,4.91-3.95,28.38,28.38,0,0,1,5.19-2.88,13.58,13.58,0,0,1,5.29-1.11,12.72,12.72,0,0,1,3.61.53,10.2,10.2,0,0,1,3.2,1.53,8,8,0,0,1,2.29,2.55,7,7,0,0,1,.88,3.56,14,14,0,0,1-1.35,5.72,41.42,41.42,0,0,1-3.39,6.1,74.17,74.17,0,0,1-4.41,6c-1.58,1.94-3.06,3.71-4.44,5.29s-2.54,2.95-3.48,4.06a6.21,6.21,0,0,0-1.46,2.25,1.74,1.74,0,0,0,.5,1.28,2.32,2.32,0,0,0,1.65.49,6.32,6.32,0,0,0,2.76-1.05,46,46,0,0,0,5.1-3.63q3.29-2.58,8.33-6.92c2.31-2,5-4.35,8.06-7.05L591.74,184a36.16,36.16,0,0,1-6.23,2.58C579.47,188.59,571,190.36,560.18,191.87Z" fill="#fff"/>
					<path d="M526.12,161.22,536,121l56.75-59.91.05-.06c1.2-1.36-1.24-5.56-5.28-9.17s-8.41-4.83-9.77-3.45l0,0-60.55,63.71-12.45,48.07c-8.33-.27-17-.41-25.94-.41-63.07,0-114.2,7.05-114.2,15.75s51.13,15.75,114.2,15.75S593,184.26,593,175.56C593,169.19,565.58,163.7,526.12,161.22Zm-15.28,22.64c-7.49,0-13.57-1.65-13.57-3.7,0-.86,1.1-1.65,2.92-2.28l-.17.65a.6.6,0,0,0-.1.33c0,1.32,4.89,2.39,10.92,2.39s10.93-1.07,10.93-2.39l.2-.81c1.54.6,2.45,1.33,2.45,2.11C524.42,182.21,518.34,183.86,510.84,183.86Z" fill="#fff"/>
				</g>
			</g>
		</g>
	</g>
</svg>
