<?xml version="1.0" encoding="utf-8"?>
<!-- Generator: Adobe Illustrator 24.0.2, SVG Export Plug-In . SVG Version: 6.00 Build 0)  -->
<svg version="1.1" id="Capa_1" xmlns="http://www.w3.org/2000/svg" xmlns:xlink="http://www.w3.org/1999/xlink" x="0px" y="0px"
	 viewBox="0 0 1000 1000" style="enable-background:new 0 0 1000 1000;" xml:space="preserve">
<path d="M1000,541.8v-1.9c-10.8,6.4-21.8,12.7-24.5,14.4c-17.7,10.9-30.9,20.9-41.1,31.8c-9.3,9.9-20.7,16.8-37.4,23.6
	c-2.4,1-4.9,2-8,3.2l-7.9,3c-16.3,6.2-24.7,10.4-31.6,16.8c-7,6.5-16.1,11-27.9,14.7c-3.2,1-6.6,2-10.8,3l-10.2,2.5
	c-8.8,2.2-13.8,3.9-17.6,6.3c-5.1,3.2-11,5.4-21.2,8.4c-2.7,0.8-5.4,1.5-8,2.3c-3.4,1-6,1.7-8.6,2.5c-6.3,1.9-12.6,4.2-18.7,6.7
	c-4.5,1.9-9.2,6.5-14.6,14c-3.6,5-7,10.1-10.2,15.3c-9.6,15.1-12.6,19.6-17.1,24.2c-2.4,2.5-5,4.8-7.7,7
	c-3.9,3.2-17.3,12.6-19.7,14.6c-2.5,1.9-4.5,4.2-6.1,6.9c-2.1,3.8-3.2,7.6-4.6,14.8c-3.6,17.7-5.9,24.7-13.7,36.8
	c-6.8,10.5-11.3,16.5-16.4,21.6c-0.8,0.8-1.6,1.6-2.5,2.5l-6.2,5.9c-2.8,2.7-5.3,5.2-8.1,8.2c-7.6,8-13.3,17.7-16.5,28.2
	c-4.2,13.5-4.5,25.8-2.9,45.4c0.8,9.7,0.9,10.6,0.9,13.6c0,17.5,0.2,29.2,1,43c0.4,6.7,0.9,13,1.6,18.7h1.5
	c-1.9-16-2.5-36.4-2.5-61.7c0-3.1-0.1-4-0.9-13.8c-1.6-19.4-1.2-31.4,2.9-44.7c3.1-10.3,8.6-19.8,16.1-27.6c2.8-2.9,5.3-5.4,8-8.1
	c1.1-1,5.2-4.9,6.2-5.9c0.9-0.8,1.7-1.7,2.5-2.5c5.1-5.3,9.8-11.3,16.6-21.9c7.9-12.4,10.2-19.5,13.9-37.4c1.4-7,2.5-10.7,4.5-14.3
	c1.1-2.1,3-4.1,5.7-6.4c2.3-1.9,15.7-11.3,19.7-14.5c2.8-2.3,5.4-4.7,7.8-7.2c4.5-4.7,7.6-9.2,17.3-24.4c3.2-5.2,6.6-10.3,10.2-15.2
	c5.3-7.2,9.8-11.7,13.9-13.4c5.8-2.5,11.8-4.6,18.5-6.7c4.2-1.3,8.4-2.5,12.7-3.7l4-1.1c10.3-3,16.3-5.3,21.6-8.6
	c3.6-2.2,8.5-3.9,17.1-6.1l10.2-2.5c4.2-1,7.6-2,10.9-3c12.1-3.8,21.3-8.4,28.6-15.1c6.7-6.2,15-10.3,31.1-16.5l7.9-3
	c3.1-1.2,5.6-2.2,8.1-3.2c16.8-6.9,28.4-13.9,37.9-24c10.1-10.7,23.2-20.7,40.8-31.5C979,554.1,989.4,548,1000,541.8l0-107.6
	c-6.7,13.6-14.2,24.7-21.2,29.8c-4.2,3-9,6.7-15.1,11.5c-3.5,2.8-6.9,5.5-10.4,8.3l-2.1,1.7c-2.7,2.2-5.4,4.3-8.1,6.5
	c-12.6,10-21.5,16.7-29.3,22c-5.2,3.4-6.4,4.6-13.4,11.9c-9.7,10.1-19.5,14.4-48.6,18.2c-18.8,2.5-33.4,8.2-51.2,18.4
	c-2.7,1.6-12.1,7.1-11.6,6.8c-4.5,2.6-7.8,4.5-11.1,6.1c-9.4,4.7-17.4,6.9-26.2,6.9c-28.5,0-69.1,19.2-86,38
	c-20.1,22.3-52.4,46.2-75.4,51.9c-12.3,3.1-19.7,11.7-23.4,24.5c-2.1,7.3-2.6,13.8-2.6,23c0,1.4,0,1.6,0.4,6
	c0.8,8.6,0.6,14.5-1.3,22.1c-2.5,10.3-8.1,21-17.6,32.4c-23.1,27.7-38.1,77.6-38.1,119.5c0,4,0,7.1,0.1,14.6
	c0.2,18,0.2,26.3-0.4,36.6c-0.9,18.6-3.5,34.5-8.3,48.8h-1.7c4.9-14.3,7.5-30.2,8.4-48.9c0.5-10.2,0.6-18.5,0.4-36.5
	c-0.1-7.5-0.1-10.6-0.1-14.6c0-42.2,15.1-92.4,38.5-120.5c9.3-11.2,14.8-21.6,17.3-31.7c1.8-7.3,2-13.1,1.2-21.5
	c-0.4-4.5-0.4-4.8-0.4-6.2c0-9.4,0.5-15.9,2.7-23.5c3.8-13.2,11.6-22.4,24.6-25.6c22.7-5.7,54.7-29.3,74.6-51.4
	c17.3-19.2,58.2-38.6,87.3-38.6c8.4,0,16.3-2.2,25.4-6.8c3.2-1.6,6.5-3.4,11-6c-0.5,0.3,8.9-5.3,11.6-6.8
	c18-10.3,32.8-16.1,51.8-18.7c28.7-3.8,38.2-7.9,47.6-17.7c7.1-7.3,8.4-8.6,13.7-12.1c7.8-5.2,16.7-11.9,29.2-21.9
	c2.7-2.2,5.4-4.3,8.1-6.5l2.1-1.7c3.5-2.8,6.9-5.5,10.4-8.3c6.1-4.8,10.9-8.5,15.1-11.6c7.3-5.3,15.3-17.6,22.1-32.3L1000,541.8
	L1000,541.8z M1000,348.1c-1,0-2.1,0.1-3.2,0.2c-10.2,1-23,5.7-36.4,12.4c-6.1,3-14.1,4.4-23.6,4.5c-7.8,0.1-16.2-0.8-24.5-2.2
	c-2.8-0.5-5.4-1-7.8-1.5c-2-0.4-3.9-0.7-5.9-0.9c-9.2-0.8-18.5-1.3-27.8-1.5c-17.4-0.3-28.7,1.2-29.9,4.5c-0.6,1.6,1,4.2,5,8.1
	c1.7,1.6,3.7,3.4,6.7,5.9c2.7,2.2,5.3,4.5,8,6.7c2.3,2,5.2,3.2,9.2,4.2c1.2,0.3,1.4,0.3,4.4,0.9c5.9,1.2,8.4,2.1,10.2,4.4
	c2.3,2.9,2.3,7.6-0.3,14.8c-4.1,11.4-9.5,16.7-17,17.2c-6,0.4-12.7-2.1-24.2-8.4c-7.5-4.1-11.4-12.2-13.9-25.4
	c-0.3-1.4-0.5-3-0.8-4.8l-0.7-4.6c-1.7-11-3.2-15.3-6.2-16.8c-1.3-0.7-2.6-1.2-3.9-1.7c-3.8-1.3-7.7-1.7-13.5-1.5
	c-3.8,0.1-24.5,1.7-22.9,1.5c-34.2,2.3-48,8.4-61.8,25c-2.4,3-4.8,6-7.1,9.1l-3.8,5.1l-4.2,5.5c-6.8,8.9-11.8,14.1-17.3,18.5
	c-1.1,0.9-2.2,1.7-3.5,2.7l-6.8,4.9c-2.9,2.1-5.8,4.3-8.6,6.6c-7.6,6.2-16.2,14.3-27.1,25.6c-13.7,14.3-19.6,22.6-19.5,26.6
	c0.1,2.7,2.7,3.5,11.3,4c2.7,0.1,3.6,0.2,5,0.3c4.9,0.4,8.5,1.2,11.3,2.8c12.5,6.9,19.4,12.1,23.2,19.3c5.5,10.2,1.3,21.5-14.8,33.8
	c-13.8,10.5-18.5,17.3-18.8,24.9c-0.1,1.9,0,3.2,0.4,7.4c1.1,10.8,0.4,17.7-4.7,29c-1.9,4.4-4.2,8.6-6.9,12.5
	c-4.7,6.6-9.1,9.6-17.7,12.8c-0.7,0.3-5.6,2-7.1,2.6c-3,1.1-5.6,2.3-8.3,3.6c-7,3.3-14,7.7-21.8,13.7c-14.1,10.8-22,24.3-26.6,41.8
	c-1.8,7-2.6,11.3-4.7,25.3c-2.1,14.3-3.6,21.1-6.8,27.6c-3.5,7.1-19.9,44.3-21.6,48.1c-3.4,7.5-6.9,15-10.6,22.3
	c-6.8,13.5-12.7,23.4-17.9,29.7c-9,10.8-15,23.9-22.9,47.4c-1.1,3.1-2.1,6.2-3.1,9.3c-3,8.9-4.9,14.3-7.1,19.7
	c-10.2,25.5-42.4,43.8-77.4,43.8c-18.7,0-34.3-4.6-51.7-14.2c-9.3-5.2-7.6-4-37.1-24.2c-23.9-16.3-29.5-17.9-34.1-11.5
	c-0.6,0.8-3,4.6-3,4.6c-2.5,3.5-5.3,6.8-8.2,9.8c-1.2,1.3-9.2,9.8-11.6,12.4c-4,4.3-7.2,8-10,11.5c-3.2,4-6.1,8.2-8.5,12.8
	c-2.1,4.3-3.2,8.7-4.4,17.7c-0.3,1.8-0.5,3.5-0.8,5.3h-1.7l0.8-5.5c1.3-9.1,2.3-13.7,4.6-18.2c2.4-4.6,5.3-9,8.7-13.1
	c2.8-3.6,6-7.3,10-11.6c2.4-2.7,10.4-11.1,11.6-12.4c2.9-3,5.6-6.2,8.1-9.6c0,0,2.4-3.8,3.1-4.7c5.4-7.5,11.8-5.7,36.4,11.1
	c29.4,20.1,27.7,19,37,24.1c17.2,9.5,32.5,14,50.9,14c34.4,0,65.9-17.9,75.9-42.8c2.5-6.5,4.9-13,7.1-19.7c1-3.1,2.1-6.2,3.1-9.3
	c8-23.6,14.1-36.9,23.3-47.9c5.1-6.1,10.9-15.9,17.7-29.3c3.3-6.5,6.7-13.8,10.6-22.3c1.7-3.8,18.1-41,21.6-48.2
	c3.1-6.3,4.6-12.9,6.7-27.1c2.1-14.1,2.8-18.4,4.7-25.5c4.7-17.8,12.8-31.6,27.2-42.7c6.9-5.4,14.3-10.1,22.1-13.9
	c2.8-1.3,5.4-2.5,8.5-3.6c1.6-0.6,6.4-2.4,7.1-2.6c8.2-3.1,12.4-5.9,16.9-12.2c2.2-3.2,4.5-7.2,6.8-12.3c4.9-11,5.6-17.6,4.5-28.2
	c-0.4-2.5-0.5-5.1-0.5-7.6c0.4-8.2,5.3-15.4,19.5-26.2c15.5-11.8,19.4-22.2,14.4-31.7c-3.7-6.8-10.4-11.9-22.6-18.6
	c-2.6-1.5-6-2.2-10.7-2.6c-1.3-0.1-2.2-0.2-4.9-0.3c-9.6-0.5-12.7-1.4-12.9-5.6c-0.2-4.7,5.8-13.1,19.9-27.8
	c10.9-11.3,19.6-19.5,27.2-25.7c3-2.4,5.7-4.5,8.7-6.7l6.9-4.9c1.3-1,2.4-1.8,3.5-2.6c5.4-4.3,10.3-9.4,17-18.2
	c1.4-1.8,2.8-3.7,4.2-5.5l3.8-5.1c3-4,5.1-6.7,7.1-9.1c14.1-16.9,28.3-23.3,62.1-25.5c-0.7,0,20-1.5,23.9-1.6
	c6-0.2,10.1,0.3,14.1,1.6c1.3,0.5,2.7,1,4.1,1.7c3.8,1.9,5.3,6.4,7.1,18.1l0.7,4.6c0.3,1.8,0.5,3.3,0.8,4.7c2.4,12.8,6,20.5,13,24.3
	c11.3,6.1,17.7,8.6,23.3,8.2c6.7-0.4,11.6-5.3,15.5-16.1c2.4-6.7,2.4-10.8,0.5-13.2c-1.5-1.9-3.8-2.7-9.3-3.8
	c-1.5-0.3-3-0.6-4.4-0.9c-4.2-1-7.3-2.3-9.9-4.5c-2.6-2.3-5.3-4.5-8-6.7c-2.3-1.9-4.6-3.9-6.8-6c-4.5-4.3-6.4-7.4-5.5-9.9
	c1.7-4.4,13-5.9,31.5-5.6c9.3,0.2,18.6,0.6,27.9,1.5c4.6,0.6,5.3,0.8,6.1,1c2.3,0.5,4.9,1,7.7,1.5c8,1.4,16.1,2.2,24.3,2.2
	c9.3-0.1,17.1-1.4,22.9-4.3c13.5-6.7,26.5-11.5,36.9-12.6c1.2-0.1,2.3-0.2,3.4-0.2L1000,348.1L1000,348.1z M1000,179.9v2.5
	c-14.4,26.7-28.8,49.2-39.4,59.9c-5.3,5.3-12.7,8.2-22.6,9.3c-7.4,0.8-13.8,0.7-32-0.3c-16.5-0.9-25.5-0.7-34.2,1.3
	c-8.2,1.9-16.6,3.1-25,3.5l-3.7,0.2c-20.8,1.2-32.3,3-54.5,9.6c-7.5,2.2-15.4,4.1-23.8,5.8c-17.9,3.4-36.1,5.6-54.3,6.6
	c-12.6,0.7-22,0.9-33.7,0.9c-9,0-19.8,2.7-30,8.6c-13.8,8.1-25.1,21.4-32.5,40.8c-2.1,5.6-4.6,11.1-7.6,16.3
	c-6,10.3-11.5,15-22.3,20.3l-6.7,3.3c-9.2,4.5-17.7,10.2-25.3,17.1c-13.7,12.2-22.9,27.7-37.6,59.3l-3.5,7.5
	c-12.2,26.2-19.2,38.8-28.9,49.8c-12.8,14.4-33.7,24-67.2,33.5c-7.3,2-31.7,8.5-32.1,8.5c-11.5,3.1-19.5,5.6-26,8.2
	c-17.6,7-31.2,17.5-60.6,44.2l-2.8,2.6c-14.3,12.9-22.3,19.8-31.3,26.5c-6.6,4.8-13.3,9.4-21.6,14.8c-3.4,2.2-17.2,11-20.5,13.2
	c-19.2,12.5-30.9,21.7-41,33.5c-4,4.6-7.6,9.5-10.7,14.7c-6.9,11.5-10.4,21.9-15.3,41.8l-2.6,10.4c-1,4.1-1.9,7.6-2.9,11
	c-4.9,17.8-11.5,28.9-24.6,44.8l-6.8,8.3c-2.4,2.9-4.7,5.8-7,8.8c-2.4,3.2-4.4,6.7-5.7,10.5c-1.9,5.4-2.5,9.8-3.1,19.9
	c-1,16.7-2.4,25.1-7.7,37.8c-2.6,6.2-9.4,23.4-10.7,26.3C80,925.9,78,930,75.8,934c-4.8,8.6-11.2,16.9-21.9,28.2
	c-9.9,10.6-14.8,18.2-17.7,26.7c-0.9,2.6-1.7,5.3-2.3,8l-0.8,3.1h-1.7l0.9-3.5c0.9-3.5,1.5-5.8,2.3-8.2c3-8.7,8-16.5,18.1-27.3
	c10.6-11.3,16.9-19.5,21.6-27.9c2.2-3.9,4.1-8,5.9-12.1c1.2-2.9,8.1-20.1,10.7-26.3c5.3-12.5,6.6-20.7,7.6-37.2
	c0.6-10.2,1.2-14.8,3.2-20.4c1.4-3.9,3.4-7.6,6-10.9c2.1-2.8,4.3-5.6,7-8.9l6.8-8.2c13-15.8,19.4-26.7,24.3-44.2
	c0.9-3.4,1.8-6.9,2.8-10.9l2.5-10.4c4.9-20.1,8.5-30.6,15.5-42.3c3.1-5.1,6.7-10.1,10.9-15c10.3-11.9,22.1-21.2,41.4-33.8
	c3.4-2.2,17.1-11,20.5-13.2c8.3-5.4,15-10,21.5-14.8c8.9-6.6,17-13.5,31.2-26.4l2.8-2.6c29.6-26.8,43.3-37.4,61.1-44.5
	c6.7-2.7,14.7-5.1,26.2-8.3c0.4-0.1,24.8-6.5,32-8.5c33.2-9.3,53.9-18.8,66.4-33c9.6-10.8,16.5-23.4,28.6-49.4l3.5-7.5
	c14.8-31.8,24.1-47.4,37.9-59.8c7.7-7,16.3-12.8,25.6-17.3l6.7-3.3c10.5-5.2,15.8-9.6,21.6-19.6c2.9-5.2,5.4-10.6,7.5-16.1
	c7.6-19.7,19.1-33.4,33.3-41.7c10.4-6.1,21.5-8.9,30.8-8.9c11.7,0,21.1-0.2,33.6-0.9c18.2-1,36.2-3.2,54.1-6.6
	c8.3-1.6,16.2-3.5,23.7-5.7c22.4-6.6,34-8.4,54.9-9.6l3.7-0.2c9.6-0.6,16.3-1.5,24.7-3.5c8.8-2.1,18-2.2,37.7-1.2
	c15.1,0.8,21.4,1,28.7,0.2c9.5-1,16.6-3.8,21.6-8.8C970.2,230.3,984.9,207.1,1000,179.9L1000,179.9z M1000,930.2
	c-2.1-7.7-3.7-17.6-5.5-33.7l-0.4-3.4l-0.4-3.4c-3-26.2-5.1-36.6-9.2-40.8c-4.1-4.1-5.1-8.4-4.2-14.4c0.2-1,0.3-1.8,0.7-3.6
	c1.1-5.9,1.3-8.4,0.1-11.4c-1.5-4-5.5-7.3-13-10.4c-8.5-3.5-10.9-8.1-8.1-14.1c1.1-2.4,3-5,5.9-8.3c1.7-2,9.1-9.9,8.5-9.2
	c10.2-11.2,15-18.9,15-27.5c-0.2-8.5,3.8-16.6,10.8-21.5v2.1c-6,4.6-9.4,11.8-9.2,19.4c0,9.1-4.9,17.1-15.4,28.6
	c0.6-0.7-6.7,7.2-8.4,9.2c-2.8,3.2-4.6,5.7-5.6,7.9c-2.3,5.1-0.4,8.7,7.3,11.8c7.8,3.2,12.2,6.9,13.9,11.4c1.3,3.4,1.2,6.1-0.1,12.3
	c-0.3,1.7-0.5,2.5-0.6,3.5c-0.8,5.5,0.1,9.3,3.7,13c4.6,4.6,6.6,14.9,9.7,41.8l0.4,3.4l0.4,3.4c1.4,11.7,2.5,20.1,3.9,26.7
	L1000,930.2L1000,930.2z M1000,826.6c-2.3-5.2-7.4-16.5-8.2-18.6c-1.7-4.2-2.1-6.3-1.5-8.6c0.3-1.4,3.4-7.8,3.9-8.9
	c2.5-6,4.5-12.3,5.9-18.7v6.6c-1.2,4.3-2.6,8.5-4.4,12.7c-0.5,1.2-3.5,7.4-3.8,8.6c-0.5,1.9-0.1,3.7,1.4,7.6
	c0.7,1.7,4.2,9.5,6.7,15.1V826.6z M1000,684.8c-2.8,2.8-6.1,4.8-10.7,6.9c-0.4,0.2-23.3,9.1-34,14c-15.6,7.2-27.8,9.8-38.4,8.7
	c-8.5-0.9-15-3.7-24.6-9.9l-5.3-3.4c-2.9-1.9-6-3.8-9.1-5.4c-6.7-3.6-5.4-9.7,2.4-17.4c6.2-6.1,16-13.2,31.2-23l7.4-4.7
	c29.9-18.9,30.4-19.2,37.1-24.6c18.7-15,32.8-23.4,43.8-25.2v1.7c-10.6,1.8-24.4,10-42.8,24.8c-6.8,5.5-7.2,5.7-37.3,24.7
	c-2.5,1.6-5,3.1-7.4,4.7c-15.1,9.7-24.9,16.7-30.9,22.8c-7.2,7.1-8.2,11.9-2.8,14.8c2.8,1.5,5.5,3.1,9.2,5.5l5.3,3.5
	c9.4,6,15.7,8.7,23.9,9.6c10.2,1.1,22.2-1.5,37.5-8.6c10.8-5,33.6-13.9,34-14.1c5.1-2.3,8.5-4.5,11.3-7.8L1000,684.8L1000,684.8z
	 M1000,615.9v1.7c-10.9,0.4-20.2,5.2-32.8,15.1l-7.7,6.1c-2.4,1.9-4.8,3.6-7.3,5.2c-1.4,0.9-9.2,5.5-10.4,6.3
	c-5.5,3.3-10.2,6.3-14.8,9.3c-4.7,3.1-9.2,6.4-13.6,9.9c-7.7,6.2-12.3,11.5-13.3,15.6c-1,4.4,2.5,7.5,11.7,9.1
	c17.8,3,34.9-0.1,50.7-7.7c10.6-5.1,20.2-12,28.5-20.3c3.4-3.8,6.4-7.9,8.9-12.4v3.2c-2.2,3.7-4.8,7.1-7.7,10.3
	c-8.4,8.5-18.2,15.5-29,20.7c-16.2,7.8-33.5,10.9-51.7,7.9c-10.1-1.7-14.4-5.5-13.1-11.1c1.1-4.6,5.9-10.1,13.8-16.5
	c3.9-3.2,8.5-6.5,13.7-9.9c4.5-3,9.3-6,14.8-9.4c1.2-0.7,9-5.4,10.4-6.2c2.1-1.3,4.3-2.9,7.2-5.1c1.3-1,6.5-5.2,7.7-6.1
	C979.1,621.2,988.6,616.3,1000,615.9L1000,615.9z M1000,358.2v1.7c-2.9-0.4-7.2,0.4-13,2.6c-16.7,6.2-23,8.4-31.9,11.3
	c-3,0.9-4.4,1.4-6.4,2.1c-2.5,0.8-5.3,1.3-11.2,1.9c-1.5,0.2-2.9,0.3-4.4,0.5c-13,1.6-18.8,4.1-18.8,10.1c0,7.4,4.8,22,13.3,43
	c1.6,4.1,2.9,8.4,3.9,12.7c0.5,1.9,0.9,3.8,1.4,5.8c3.1,12.7,5.3,17.8,9.3,19.4c3.7,1.5,7.8,1,12.4-1.2c5.8-2.8,12-8.2,18.7-15.8
	c2.5-2.8,4.9-5.8,7.6-9.3l5.3-6.8c4.3-5.4,10.1-20.3,14-33.7v5.7c-3.8,12-8.8,24.2-12.7,29c-0.7,0.9-4.4,5.8-5.2,6.8
	c-2.7,3.5-5.2,6.5-7.7,9.4c-6.8,7.7-13.2,13.2-19.2,16.2c-5,2.4-9.6,2.9-13.8,1.2c-4.7-1.9-7-7.2-10.2-20.6
	c-0.5-1.9-0.9-3.8-1.4-5.8c-1.3-5.3-2.4-9.1-3.8-12.4c-8.6-21.3-13.4-35.9-13.4-43.6c0-7.3,6.4-10.1,20.3-11.8
	c1.5-0.2,2.9-0.3,4.4-0.5c5.8-0.6,8.6-1.1,10.9-1.8c2.1-0.7,3.5-1.2,6.5-2.1c8.9-2.8,15.2-5,31.8-11.2
	C992.2,358.7,996.7,357.8,1000,358.2L1000,358.2z M0,486.7c16.9-18.8,30.2-38.7,38.4-59c5.5-13.6,10.1-26.9,18-50.9l2.6-8.1
	C70,335.5,76,319,83.7,302.8c10.1-21.2,20.9-35.3,33.8-42.6c11.1-6.3,17-13.1,20.4-21.9c1.3-3.6,2.3-7.2,3.1-11
	c2-8.7,3.4-12.6,6.5-17.3c4.1-6,10.4-10.9,20.2-14.9c26.3-11,27.9-11.7,30.1-15c1.1-1.6,1.4-3.6,1.2-7.5c-0.1-1.2-0.4-6.4-0.4-6.7
	c-0.2-3.1-0.3-6.2-0.3-9.2c0-16.7,0.3-18.9,3.9-21.9c0.9-0.7,1.9-1.3,3.4-2.2c0.4-0.2,3.6-1.9,4.7-2.5c5.3-2.9,10.4-6.1,15.2-9.8
	c3.4-2.6,4.4-3.6,13.3-13.2c6.3-6.8,10.3-10.6,14.9-13.5c6.1-3.9,12-5.2,18.2-3.5c7.3,2,18,3.3,31.3,4.1c11.5,0.7,21.5,0.8,36.6,0.8
	c8.1,0,14.9,0.8,25.7,2.6c12.9,2.2,15.5,2.6,20.6,2.6c6.7,0,12.4-1.5,17.8-4.9c8.4-5.4,13.5-7.8,18.7-8.7c6-1.1,7.9-0.8,27.6,3.4
	c28.8,6.2,51.4,2.3,68.4-16.2c8.5-9.2,9.1-14.8,5.8-24.7c-1.4-4-1.7-5.2-1.9-7.2c-0.5-4.2,0.8-7.8,4.5-11.5
	c4.4-4.4,7.9-15.3,10.4-30.5h3.4c-2.6,16.2-6.3,27.7-11.4,32.8c-3,3-3.9,5.6-3.6,8.8c0.2,1.7,0.5,2.7,1.8,6.5
	c3.7,10.9,2.9,17.8-6.5,28c-17.9,19.4-41.8,23.5-71.6,17.2c-19-4.1-20.9-4.4-26.3-3.4c-4.6,0.8-9.4,3.1-17.4,8.2
	c-5.8,3.7-12.7,5.6-19.6,5.4c-5.4,0-8-0.4-21.2-2.6c-10.5-1.8-17.2-2.6-25.1-2.6c-15.2,0-25.2-0.2-36.8-0.8
	c-13.5-0.8-24.4-2.1-32-4.2c-9.4-2.5-16.9,2.3-29.7,16.1c-9.2,9.9-10.1,10.9-13.8,13.6c-4.9,3.8-10.2,7.1-15.6,10
	c-1.1,0.6-4.3,2.2-4.7,2.5c-1.4,0.7-2.2,1.3-2.9,1.8c-2.4,2-2.7,4-2.7,19.3c0,3.1,0.1,5.9,0.3,9.1c0,0.3,0.3,5.5,0.4,6.7
	c0.2,4.6-0.2,7.1-1.8,9.5c-2.8,4.2-3.8,4.7-31.6,16.2c-9.1,3.8-15,8.3-18.7,13.7c-2.8,4.2-4.1,7.9-6.1,16.2c-1.4,5.8-2,8.2-3.2,11.4
	c-3.6,9.5-10.1,17-21.8,23.6c-12.2,6.9-22.6,20.5-32.4,41.1c-7.7,16.1-13.6,32.4-24.4,65.5l-2.6,8.1c-7.9,24.1-12.6,37.5-18.1,51.1
	c-8.8,21.7-23.2,42.7-41.5,62.7L0,486.7L0,486.7z M0,616.7v-0.8l1.7,0c10.5,0,12.4,8.7,7.7,22.3C6.9,644.7,3.8,651,0,656.9v-3.2
	c3.1-5.1,5.7-10.6,7.7-16.2c4.5-12.7,2.8-20-6.1-20c-0.6,0-1.1,0-1.7,0v-77.6c7.7-4.5,15.3-9.1,22.8-13.9
	c22.8-15.8,49.6-62.7,49.6-89.3c0-30.2,35.9-121.1,53.7-132.4c21.2-13.5,53.7-46.6,59.7-62.9c3.2-8.8,9.2-12.1,24-15.6
	c10.2-2.4,14.4-4,17.8-8c2.5-2.9,4.5-8,7.2-17.2c0.4-1.3,3.2-11.1,4-14.1c6-20.1,12.2-30.8,22.4-34c4.2-1.3,5-1.6,16.2-6.2
	c12.5-5,19.9-7.4,28.5-8.2c11.2-1.1,21.9,1.2,32.6,7.8c9,5.5,20.3,7.9,33.6,7.6c10-0.2,20.3-1.8,33-4.7c3-0.7,12.3-2.9,13.8-3.2
	c4.5-1,7.2-1.5,9.1-1.5c8.3,0,14.9-0.1,23.7-0.4c13.2-0.5,25.9-1.5,37.9-3.1c14.2-1.9,26.5-4.5,36.5-8c31.5-11,54.4-30.5,56.1-46
	c0.5-4.3,0.7-4.9,4.6-18.5c3.9-13.2,5.3-21.5,4.5-30.4c-0.3-3.7-1.1-7.3-2.5-10.7c-2.5-6.5-4.4-15.7-5.7-27h1.5
	c1.3,10.8,3.1,19.5,5.8,26.4c1.4,3.6,2.2,7.3,2.6,11.1c0.8,9.1-0.7,17.6-4.6,31c-3.9,13.4-4.1,14.1-4.6,18.2
	c-1.8,16.2-25.2,36.1-57.2,47.3c-10.1,3.5-22.5,6.2-36.8,8.1c-12,1.6-24.9,2.6-38,3.1c-8.8,0.3-15.4,0.4-23.7,0.4
	c-1.7,0-4.4,0.4-8.8,1.4c-1.4,0.3-10.7,2.5-13.8,3.2c-12.8,2.9-23.2,4.5-33.4,4.7c-13.6,0.3-25.2-2.1-34.5-7.8
	c-10.4-6.3-20.7-8.6-31.5-7.6c-8.4,0.8-15.7,3.1-28.1,8.1c-11.2,4.6-12.1,4.9-16.4,6.2c-9.5,2.9-15.5,13.3-21.3,32.9
	c-0.9,2.9-3.7,12.8-4,14.1c-2.8,9.4-4.8,14.6-7.5,17.8c-3.7,4.3-8.1,6-20,8.8c-13,3-18.5,6.1-21.5,14.2
	c-6.1,16.7-38.9,50.1-60.3,63.7c-17.2,11-52.9,101.3-52.9,131c0,27.2-27.2,74.6-50.4,90.7c-3.6,2.5-13.7,8.5-23.8,14.5v-1.9L0,616.7
	L0,616.7z M0,327.2v-1.8c12.4-6.4,24.2-17,36.4-31.6c6.3-7.6,23.7-31.3,26.3-34.2c3-3.4,6.8-6.6,12.4-10.7c1.8-1.3,8.2-5.9,9.1-6.6
	c15.6-11.4,23.3-19.9,26.6-32.3c1.3-5,2.6-11.3,4.1-20.5c0.4-2.4,3.3-20.8,4.3-26.3c4.8-27.9,9.5-44.6,16.8-53.5
	c18.1-22.1,33.1-45.9,33.1-54.4c0-4.2,0.6-5.6,10.1-26.2c1.1-2.5,2.1-4.6,2.9-6.5c4.2-9.6,6.5-16.7,6.9-22.3h1.7
	c-0.4,5.8-2.8,13.1-7,22.9c-0.9,2-1.8,4.1-3,6.6c-9.2,20-9.9,21.6-9.9,25.5c0,9.1-15.1,33.1-33.5,55.5c-7,8.5-11.7,25.1-16.4,52.7
	c-0.9,5.5-3.9,23.9-4.3,26.3c-1.5,9.3-2.8,15.6-4.1,20.7c-3.4,12.8-11.4,21.5-27.2,33.2l-9.1,6.6c-5.5,4.1-9.2,7.2-12.1,10.5
	c-2.5,2.9-19.9,26.5-26.3,34.2C25.2,309.8,12.9,320.8,0,327.2L0,327.2z M0,930.2V923c0.8,3.9,1.7,7.2,2.7,10.2
	c3.3,10,7.7,13.8,13.6,11c31.6-14.7,56.2-40.2,56.2-65.9c0-27,10.6-53.3,28.5-77.2c3.1-4.2,6.1-7.3,9.2-10c1.2-1,2.4-2,3.8-3
	l3.3-2.4c6.1-4.5,8.9-8.8,11.8-21c1.2-5.1,2.3-8.4,7-22.1l1-3.1c5.4-16,7.6-24.9,6.9-31.1c-0.8-7.4-6.3-8.7-18.8-2.7
	c-5,2.4-10,4.4-15.2,6.2c-23.1,7.8-44.9,9.7-71.1,9l-3.2-0.1l-2.4,0c-8.6,0-17.1,1.7-25.1,4.9c-3,1.2-5.7,2.9-8.2,4.8v-2.1
	c2.4-1.7,4.9-3.1,7.6-4.3c8.9-3.7,18.5-5.4,28.2-5l3.2,0.1c26,0.6,47.6-1.2,70.5-8.9c5.1-1.7,10.2-3.8,15.1-6.1
	c13.4-6.4,20.3-4.7,21.2,4c0.7,6.5-1.5,15.6-7,31.8l-1.1,3.1c-4.7,13.7-5.7,16.9-6.9,22c-3,12.5-6,17.2-12.4,21.9l-3.3,2.4
	c-1.4,1-2.6,1.9-3.7,2.9c-3.3,2.9-6.3,6.2-8.9,9.7c-17.7,23.6-28.2,49.6-28.2,76.2c0,26.5-25,52.4-57.1,67.4
	c-7.2,3.3-12.3-1.1-15.9-12C0.7,932.6,0.4,931.5,0,930.2L0,930.2z M0,826.6v-4.1l2.4,5.4c3.5,8,5.8,17.2,7.1,27.9
	c1.1,8.8,1.4,15.5,1.7,30.8c0.3,15.5,0.8,21.2,2.7,25.1c2.1,4.3,6.1,3.9,13.8-2.5c28.6-23.8,36.4-38.2,36.4-64.4
	c0-11.9,1.8-20.6,6.2-29.5c3.8-7.8,6.1-11,22.3-32.7c3.8-5.2,8-10.1,12.7-14.6c1.9-1.8,3.8-3.5,5.9-5.1c0.6-0.5,1.1-0.9,1.5-1.2
	c1.8-1.5,3.3-3.4,4.4-5.5c1.5-3.2,2.8-6.5,3.8-9.9l0.6-2l0.6-1.9c0.5-1.5,0.8-2.6,1.1-3.6c0.7-2.5,1.2-4.5,1.5-6.1
	c0.6-3.7,0.2-5.8-1.4-6.9c-3.9-2.7-15.5-0.4-39.7,8.2c-15.9,5.7-26.9,6.9-46.4,7.1c-12.8,0.1-17.4,0.7-22.1,3.5
	c-5.8,3.5-9.7,10.7-12.6,23.8c-0.8,3.7-1.6,7-2.5,10v-6.6l0.8-3.7c3-13.5,7.1-21,13.4-24.8c5.1-3.1,9.8-3.7,22.9-3.8
	c19.3-0.1,30.2-1.4,45.8-7c24.9-8.9,36.6-11.2,41.2-8c2.3,1.6,2.8,4.3,2.1,8.6c-0.4,2.1-0.9,4.2-1.6,6.3l-1.1,3.6l-0.6,1.9l-0.6,2
	c-1,3.5-2.3,6.9-3.9,10.2c-1.3,2.5-2.7,4.2-4.8,6l-1.5,1.3l-1.7,1.4c-1.5,1.2-2.7,2.3-4.1,3.6c-4.5,4.5-8.7,9.3-12.5,14.4
	c-16.2,21.5-18.4,24.8-22.2,32.4c-4.2,8.6-6,17-6,28.7c0,26.7-8,41.5-37,65.6c-8.4,7-13.6,7.6-16.4,2c-2-4.2-2.5-9.9-2.9-25.8
	c-0.3-15.3-0.6-21.9-1.7-30.7c-1.3-10.6-3.5-19.7-7-27.5L0,826.6L0,826.6z M632.1,0h1.7l2.5,8.8c5.5,19.3,8.1,32.2,8.8,46.3
	c0.8,18.3-2.5,35.4-11,51.9c-13,25.2-34.1,44.2-60.4,56.8c-20.6,9.9-43.5,15.3-60.4,15.3c-11.4,0-28.7,2.3-62.1,7.7l-3.8,0.6
	c-40.8,6.6-52.7,8.3-62.4,8.3c-5.8,0-6.8-0.1-32.6-4.7c-5.9-1.1-10.5-1.8-15-2.5c-33.7-4.9-51.7-2-53.3,13.1
	c-0.2,1.4-0.3,2.9-0.5,4.7l-0.5,4.5c-1.8,18.2-3.4,26.2-7.2,33.3c-4.8,8.9-12.9,13.2-26,13.2c-17,0-21.5,1-25.8,5.3
	c0.9-0.8-8.4,9.7-13.6,14.5c-4.6,4.2-23.9,20.9-26.3,23c-3.7,3.2-7.3,6.5-10.9,9.9c-11.6,10.8-19.7,19.6-24.3,26.9
	c-9.9,15.5-17.5,30.1-19.5,40.1c-2.8,13.8,6.1,15.9,31.7,2c24.3-13.1,49-25.3,74.2-36.5c5.8-2.6,23.4-10.3,26.1-11.6
	c8.4-3.7,13.8-6.3,18-8.6l3.2-1.8l3.6-2c2.9-1.6,5.6-2.9,8.3-4.2c30.2-14.5,57.5-17.4,83.9-2c38.1,22.2,63.8,61.7,63.8,94.1
	c0,31.9-1.2,41.9-8.6,55.3c-2.4,4.2-5.1,8.2-8.2,11.9c-10.8,12.9-19.7,27-21.3,35.4c-2,10.6,7.8,11.7,33.6-0.1
	c22.2-10.1,37.3-24.9,47.5-43.9c4.2-8,7.6-16.5,10.2-25.2c1.5-5,5.3-19.4,5.7-20.8c0.7-2.8,1.7-5.5,2.9-8
	c12.4-24.9,35.1-50.8,60.4-62.1c12.7-5.6,21.7-16.1,32.3-34.6c1.4-2.5,7.1-12.7,8.6-15.3c5.9-10.2,10.4-16.2,15.6-20
	c16.9-12.3,47.8-18.5,83.8-18.5c12.5,0,27.6-2.1,45.8-6c8.3-1.8,16.7-3.8,24.9-5.9c-2.2,0.5,25.9-6.6,32.4-8.1
	c23.6-5.5,68.4-8.3,106.8-8.3c28.9,0,46.4-15.4,64.2-64.4c11-30.3,11-43.9,4.5-57.2l-2-3.9c-1.7-3.1-2.5-6.6-2.6-10.2
	c0-6.7,0-6.7,4.2-40.9c0.8-6.2,1.3-11.2,1.9-16.1c1.5-14.1,2.3-25.3,2.3-34.7c0-1.6,0-3.2-0.1-5h1.7c0.1,1.8,0.1,3.4,0.1,5
	c0,9.4-0.8,20.7-2.3,34.8c-0.5,4.8-1.1,9.9-1.8,16.1c-4.2,34.1-4.2,34.1-4.2,40.7c0,3.3,0.8,5.9,2.4,9.5c0.4,0.8,1.9,3.9,1.9,3.9
	c6.8,13.7,6.8,27.8-4.4,58.5c-18.1,49.7-36,65.5-65.8,65.5c-38.3,0-83,2.8-106.5,8.3c-6.4,1.5-34.5,8.7-32.3,8.1
	c-8.3,2.1-16.6,4.1-25,5.9c-18.4,3.9-33.5,6-46.2,6c-35.7,0-66.3,6.1-82.8,18.2c-5,3.6-9.4,9.5-15.2,19.5
	c-1.5,2.5-7.1,12.8-8.6,15.3c-10.8,18.8-20,29.5-33.1,35.3c-24.8,11-47.3,36.7-59.6,61.3c-1.2,2.5-2.1,5.1-2.8,7.8
	c-0.4,1.3-4.2,15.8-5.7,20.8c-2.6,8.8-6,17.4-10.3,25.5c-10.3,19.3-25.7,34.3-48.3,44.6c-26.8,12.3-38.3,10.9-36-1.7
	c1.7-8.8,10.7-23,21.6-36.2c3-3.6,5.7-7.5,8-11.6c7.2-13.1,8.4-22.9,8.4-54.5c0-31.7-25.3-70.7-62.9-92.6
	c-25.9-15.1-52.7-12.3-82.4,2c-4,1.9-8,4-11.9,6.2l-3.2,1.8c-5.9,3.1-11.9,6-18.1,8.6c-2.7,1.2-20.3,9-26.1,11.6
	c-25.2,11.2-49.9,23.3-74.1,36.4c-26.6,14.4-37.3,11.9-34.1-3.8c2.1-10.3,9.7-25,19.7-40.7c4.7-7.5,12.9-16.3,24.6-27.2
	c3.3-3.1,6.9-6.3,10.9-9.9c2.4-2.1,21.7-18.9,26.2-23c5.1-4.7,14.3-15.2,13.6-14.4c4.7-4.7,9.6-5.8,27-5.8c12.5,0,20.1-4,24.6-12.4
	c3.7-6.8,5.2-14.7,7-32.6l0.4-4.5l0.5-4.7c0.9-9,7.4-14.2,18.7-16c9.1-1.5,20.8-0.8,36.4,1.4c4.5,0.7,9.1,1.4,15.1,2.5
	c25.5,4.5,26.6,4.7,32.3,4.7c9.5,0,21.5-1.7,62.2-8.3l3.8-0.6c33.5-5.4,50.9-7.7,62.4-7.7c16.6,0,39.2-5.3,59.6-15.1
	c25.9-12.5,46.8-31.2,59.6-56.1c8.4-16.2,11.7-33,10.8-51.1c-0.6-13.9-3.3-26.8-8.7-45.9L632.1,0z M654.9,0h1.7
	c1.3,6.5,3.2,14.5,5.8,24.8c6,23.4,5.1,45-1.2,64.6c-4,12.6-10.4,24.3-18.9,34.5c-9.7,11.5-20.5,21.9-32.2,31.3
	c-18.9,15-38.9,25.8-59.9,30.6c-12.4,2.8-25,5.1-37.6,6.8c-5.3,0.7-10.6,1.4-17.2,2.2l-15.6,1.9c-19.2,2.3-29.1,4.2-36.1,7.4
	c-15.5,7-47.2,10.1-82,10.1c-2.3,0-4.7-0.2-7.2-0.6c-4.4-0.7-8.3-1.7-15.2-3.8c-12.2-3.7-16-4.6-21-4.3c-6.5,0.4-11,3.8-14.1,11.5
	c-3.1,7.8-4,12.5-5.6,25c-1.8,15-4.8,20.2-16.6,23.8c-3.9,1.1-7.7,2.6-11.3,4.4c-1,0.5-1.9,1.1-2.9,1.7l-2.2,1.4
	c-3.2,1.9-6.4,2.5-15.4,2.5c-5.3,0-14.7-0.9-15.8-0.6c-2,0.5-1.2-0.2-11.9,10.4c-2.5,2.5-5.8,5.3-10.5,8.9c-2.5,2-11.9,9-13.2,10
	c-8.3,6.3-13.9,11-18.4,15.6c-8.1,8.3-11.4,15.2-9.3,21.2c2.2,6.1,6.8,7.4,14.8,4.7c4.5-1.6,8.8-3.5,12.9-5.8
	c2.5-1.3,13-6.9,15.6-8.3c6.6-3.6,13.5-6.7,20.5-9.5c6.2-2.5,12.4-5.2,18.4-8.1c3.4-1.6,17.9-8.6,21.7-10.4
	c7.3-3.5,13.5-6.3,19.4-8.8c28.6-12.2,48.9-16.5,62.8-11.1l9,3.5c3.8,1.5,6.9,2.7,10,4c7.4,3,14.7,6.3,21.8,10
	c30.6,16,50.6,36.9,58,66.4c11.6,46.4,6,75.9-13.5,104c-6.6,9.6-5.9,15.3,0.1,14.9c6.9-0.5,17-8.2,25.2-20.9
	c5.2-8,8.5-17.4,13.4-35.9l2.8-10.6c1.1-4.1,2.1-7.5,3-10.8c8.2-27.6,18.3-45.5,35.9-57.9c11.9-8.4,39.5-25.8,42.5-27.9
	c11.2-8,17.5-15.7,23.9-30c12.9-29.1,35.1-40.6,74.1-40.6c15.6,0,29.8-1.9,49.2-5.8c3.4-0.7,6.9-1.4,10.3-2.1c4-0.8,6.8-1.4,9.4-1.9
	c6.7-1.2,11.7-1.8,16-1.8c7.4,0,15.6-1.7,52.3-10l4.9-1.1c27.2-6.1,42.7-8.9,52.8-8.9c2.6,0,4,0,10.7,0.2c13,0.2,20.4,0.2,28.9-0.3
	c27.3-1.8,44.5-8.9,49.7-24.3c1.7-5,3.7-9.9,5.9-14.7c-0.3,0.5,3.8-8.3,4.8-10.6c9-20.5,9.3-36.5-2.4-65.7
	c-4.3-11.1-7.3-22.7-8.8-34.5c-2.7-20-2.3-38.6,0.2-67.2l0.3-3.5h1.7L949,3.7c-2.5,28.6-2.8,47.1-0.2,66.9
	c1.5,11.7,4.4,23.1,8.7,34.1c11.8,29.6,11.5,46.1,2.4,67c-1,2.4-5.1,11.2-4.8,10.7c-2.2,4.7-4.2,9.6-5.9,14.5
	c-5.4,16.2-23.2,23.6-51.1,25.4c-8.5,0.6-16,0.6-29,0.3c-6.6-0.1-8.1-0.2-10.6-0.2c-9.8,0-25.3,2.8-52.4,8.9l-4.9,1.1
	c-36.9,8.4-45.1,10-52.7,10c-4.2,0-9.1,0.6-15.7,1.8c-2.6,0.5-5.4,1-9.4,1.8c-3.4,0.7-6.9,1.4-10.3,2.1c-19.5,3.9-33.8,5.8-49.5,5.8
	c-38.4,0-60,11.2-72.5,39.4c-6.5,14.7-13,22.6-24.5,30.8c-3,2.1-30.6,19.5-42.5,27.9c-17.2,12.2-27.2,29.8-35.3,57
	c-1,3.3-1.9,6.7-3,10.8l-2.8,10.6c-5,18.6-8.3,28.2-13.6,36.3c-8.4,13-18.9,21.1-26.5,21.6c-7.8,0.5-8.8-7-1.6-17.5
	c19.2-27.7,24.7-56.7,13.2-102.7c-7.2-29-26.9-49.5-57.1-65.4c-6.7-3.5-13.7-6.7-21.6-9.9c-3.1-1.2-6.2-2.5-10-4l-9-3.5
	c-13.4-5.2-33.4-1-61.5,11c-5.9,2.5-12,5.3-19.3,8.8L253.8,316c-7.8,3.7-13.6,6.2-18.5,8.1c-7,2.7-13.8,5.9-20.3,9.4
	c-2.6,1.4-13.1,7-15.6,8.3c-4.2,2.3-8.6,4.3-13.2,5.9c-8.8,2.9-14.4,1.4-16.9-5.7c-2.4-6.7,1.1-14.2,9.7-22.9
	c4.6-4.7,10.3-9.4,18.6-15.8c1.3-1,10.7-8.1,13.2-10c3.6-2.7,7.1-5.7,10.4-8.8c11.2-11.2,10.2-10.3,12.7-10.8
	c1.4-0.3,11.1,0.6,16.2,0.6c8.7,0,11.7-0.5,14.6-2.2l2.2-1.4c1-0.7,2-1.2,3.1-1.8c3.7-1.9,7.6-3.4,11.6-4.5
	c11.1-3.4,13.7-8.1,15.5-22.4c1.5-12.5,2.5-17.4,5.7-25.4c3.3-8.2,8.4-12.1,15.6-12.5c5.3-0.3,9.2,0.6,21.6,4.3
	c4.9,1.6,9.9,2.9,15,3.8c2.4,0.4,4.7,0.6,6.9,0.6c34.5,0,66.2-3,81.3-9.9c7.2-3.3,17.1-5.2,36.5-7.5l15.7-1.9
	c6.5-0.8,11.8-1.5,17.1-2.2c13.6-1.9,25.7-4,37.5-6.8c20.7-4.8,40.5-15.4,59.2-30.3c11.6-9.3,22.3-19.7,32-31.1
	c8.3-10,14.6-21.5,18.6-33.9c6.3-19.3,7.2-40.6,1.2-63.7C658.6,16.9,656.7,8.5,654.9,0L654.9,0z M844.5,0h2.1c-0.8,1.1-1.5,2-2,2.5
	c-6.6,8.3-11.5,13.2-16.4,15.9c-2.5,1.5-5.4,2.3-8.3,2.4c-4,0-7.1,1.1-11.2,3.7l-4.4,2.8c-7.3,4.7-13.3,6.8-22.7,6.8
	c-9.3,0-16.6-2.1-26.8-6.7c-1.3-0.6-2.6-1.2-3.8-1.8l-3.6-1.6c-2.7-1.2-4.9-1.9-6.9-2.5c-1.8-0.5-3.6-0.7-5.4-0.7
	c-3.8,0-7.2-1.1-18.3-5.6l-2.6-1c-8.3-3.3-13.5-4.7-17.5-4.4c-4.9,0.3-7.4,3.4-7.4,10.2c0,34.6-8.7,84-20.2,95.6
	c-12.6,12.6-44.2,39.5-56.8,48.4c-21.9,15.7-51.9,33.7-73.5,41.8c-7.2,2.7-14.7,5-22.2,6.7c-5.5,1.3-11,2.4-18.7,3.7
	c-0.9,0.2-14.7,2.5-19.2,3.3c-8.1,1.4-15.5,2.9-23.3,4.6c-34.4,7.5-41.8,8.3-63.5,8.3c-4.1,0-4.8-0.1-23.4-3.3
	c-4-0.7-7.2-1.2-10.2-1.7c-13.5-2-23-2.3-29.4-0.3c-7.6,2.3-9.9,7.7-6.2,17.5c3.4,8.8,8.1,14.3,14.7,17.9c5.4,2.9,11.2,4.3,23,6.2
	c15.7,2.5,18.2,2.9,25.8,4.9c10.8,2.7,21.3,6.9,31,12.3c13.8,7.6,24.3,19.2,33.3,34.8c4.5,7.9,15.8,32.2,17.6,35.3
	c5.7,9.7,10.4,11,18.1,3.3c8.2-8.2,17.2-13.9,35.2-23.4c0.8-0.4,3.4-1.8,3.5-1.9c13.3-7,19.9-10.8,26.4-15.9
	c8.5-6.5,14.4-13.5,17.9-21.8c14.2-33.7,34.6-55.5,54.1-55.5l9.2,0c17.5,0.1,28.9,0,41.5-0.5c22.8-1,39.6-3.5,49-7.8
	c9.7-4.5,22.4-9.1,40.3-15c5.8-1.9,10.5-3.4,21.2-6.8c12.8-4.1,18.5-5.9,25.3-8.2c6.3-2.1,12.6-4.2,18.9-6.2c6.1-2,9.9-3.3,13.4-4.6
	c3.8-1.4,7.5-3,11.1-4.9c3.1-1.6,6.3-3.5,9.8-5.8c5.8-3.9,10.2-5.2,20.1-6.9l1.9-0.3c9.5-1.7,15-3.8,21.3-9.4
	c13-11.6,14.3-38.6,6.4-74.2c-2.8-12.8-3.5-32.1-2.6-59.1c0.3-10.4,0.8-20.7,1.4-31.1h1.7l-0.2,5.1c-0.5,10.7-0.9,18.4-1.1,26
	c-0.9,26.8-0.2,46.1,2.6,58.7c8,36.1,6.7,63.7-6.9,75.8c-6.5,5.8-12.3,8.1-22.1,9.8l-1.9,0.3c-9.6,1.6-13.9,2.9-19.4,6.6
	c-3.2,2.2-6.5,4.1-9.9,5.9c-3.7,1.9-7.4,3.6-11.3,5c-3.5,1.3-7.3,2.6-13.4,4.6c-6.3,2.1-12.6,4.1-18.9,6.2
	c-6.8,2.3-12.5,4.1-25.3,8.2c-10.7,3.4-15.4,4.9-21.2,6.8c-17.9,5.9-30.4,10.5-40.1,15c-9.6,4.4-26.6,6.9-49.6,7.9
	c-12.6,0.6-24,0.6-41.6,0.5l-9.1-0.1c-18.6,0-38.6,21.3-52.6,54.5c-3.6,8.6-9.7,15.9-18.5,22.5c-6.7,5.1-13.3,9-26.7,16l-3.5,1.9
	c-17.8,9.4-26.7,15.1-34.8,23.2c-8.6,8.6-14.6,6.9-20.7-3.7c-1.9-3.2-13.1-27.5-17.6-35.3c-8.9-15.4-19.1-26.7-32.7-34.2
	c-9.7-5.3-20-9.4-30.7-12.1c-7.5-1.9-10-2.4-25.7-4.8c-11.9-1.9-17.9-3.3-23.5-6.3c-7-3.7-12-9.6-15.5-18.8
	c-4-10.6-1.3-17.1,7.2-19.7c6.7-2,16.4-1.7,30.1,0.3c3.1,0.4,6.2,1,10.3,1.7c18.4,3.2,19.1,3.3,23.1,3.3c21.6,0,28.9-0.9,63.2-8.3
	c7.8-1.7,15.3-3.2,23.4-4.6c4.5-0.8,18.3-3.2,19.2-3.3c7.7-1.3,13.2-2.4,18.7-3.7c7.6-1.8,14.6-3.9,22-6.7c21.4-8,51.3-26,73.1-41.6
	c12.4-8.9,44-35.7,56.6-48.2c11.1-11.1,19.7-60.3,19.7-94.4c0-7.7,3.1-11.5,8.9-11.9c4.4-0.3,9.7,1.2,18.3,4.5l2.6,1
	c10.9,4.4,14.2,5.5,17.7,5.5c1.9,0,3.8,0.3,5.8,0.8c2.2,0.5,4.5,1.4,7.2,2.5c1.9,0.8,3.7,1.7,5.6,2.5l1.9,0.9
	c10,4.5,17,6.6,26.1,6.6c9,0,14.8-2,21.8-6.5c0.3-0.2,3.5-2.3,4.4-2.9c4.4-2.7,7.7-3.9,12.1-3.9c2.4,0,4.9-0.7,7.4-2.2
	c4.6-2.6,9.4-7.4,15.9-15.5L844.5,0L844.5,0z M540.9,1000h-3.4c0.8-4.9,1.5-10.3,2.1-16.1c0.7-6.8,1.3-13.7,1.6-20.3
	c0.1-2.3,0.2-4.4-0.6-12.1c-0.8-3.2-1.5-6.9-2.3-10.9c-3.3-18.8-4.4-38.2-1.9-56.3c1.3-10.4,4.2-20.4,8.6-29.9
	c5.4-11.2,12.4-21.4,21-30.4c5.6-6,9.2-9.2,19.7-18c7.5-6.3,10.6-9.3,12.5-12.5c1.1-1.8,1.6-3.4,1.6-5.1c0-2.9,0-2.9-1.2-15.4
	c-0.6-6.2-0.9-10.5-1.1-14.9c-0.8-20.2,2.7-32.7,13.5-36.3c26.5-8.8,43.1-20.2,55.7-42.6c15.8-28.1,42.9-52.5,59.8-52.5
	c20.6,0,33.3-3.3,49-14.7c11.3-8.2,15.8-11,20.8-12.4c3.7-1.1,6.3-1.2,15.2-1.2c3.1,0,5.9-1.4,9.3-4.4c1.8-1.6,8.5-8.5,9.3-9.3
	c10.1-9.7,20-14.6,34.7-14.6c4.1,0,7.6,0.1,12.2,0.2c12.5,0.4,14.8,0.3,18.8-1.2c5-1.8,9.2-5,24.6-18.6
	c13.3-11.8,17.9-14.9,38.1-27.4c2.4-1.5,4.3-2.7,6.1-3.9c5.6-3.7,10.9-7.9,15.8-12.5c6.9-6.5,13.4-13.1,19.4-19.8v5
	c-5.5,6-11.2,11.7-17.1,17.3c-5.3,5-10.3,8.9-16.2,12.8c-1.9,1.3-3.8,2.5-6.2,4c-20.1,12.5-24.5,15.5-37.7,27.1
	c-15.8,13.9-20,17.2-25.6,19.2c-4.6,1.7-7,1.8-20,1.4c-4.6-0.1-8-0.2-12.1-0.2c-13.8,0-22.9,4.5-32.4,13.7c-0.7,0.7-7.5,7.7-9.5,9.4
	c-3.9,3.5-7.4,5.2-11.5,5.2c-8.5,0-11,0.2-14.3,1.1c-4.4,1.3-8.8,3.9-19.7,11.9c-16.3,11.9-29.7,15.3-51,15.3
	c-15.4,0-41.6,23.7-56.9,50.8c-13.1,23.2-30.4,35-57.6,44.1c-8.8,2.9-12,14.2-11.2,33c0.2,4.3,0.5,8.6,1.1,14.7
	c1.2,12.7,1.2,12.6,1.2,15.7c0,2.3-0.7,4.5-2.1,6.8c-2.2,3.7-5.4,6.8-13.2,13.3c-10.4,8.7-13.9,11.9-19.4,17.7
	c-8.3,8.7-15.2,18.7-20.4,29.5c-4.3,9.2-7.1,18.9-8.3,28.9c-2.5,17.8-1.4,36.8,1.9,55.2c0.7,3.9,1.5,7.5,2.2,10.7
	c0.3,1.1,0.5,2.1,1,6.8c-0.4,9-1,17.9-1.9,26.9C542.4,989.9,541.7,995.1,540.9,1000L540.9,1000z M518.6,1000h-1.7l0.2-0.5
	c5.1-11.9,7.1-19.7,7.1-31.2c0-5.9-0.1-8.2-1.3-26.1c-1.3-20.1-1.7-32.7-0.9-47.2c1-19.2,4-36.8,9.7-53.6c2.2-6.3,4.7-12.5,7.6-18.5
	c5.8-11.9,11.4-20.6,17.4-27.7c2.3-2.7,4.7-5.2,7.2-7.6c0.7-0.7,5-4.7,6.1-5.7c9.5-9.3,12.5-19.2,12.5-48.6
	c0-31.4,4.8-39.6,26.4-47.1c1.8-0.6,3.2-1.1,4.6-1.6c3.5-1.3,6.9-2.8,10.2-4.5c8.2-4.3,16.1-10.4,24.1-19
	c42.5-46,61.9-58.6,93.9-58.6c13.8,0,24.2-3.2,36.7-10.5c3-1.7,23-14.7,30.3-18.8c4.7-2.6,9.4-5,14.4-7.3c13.2-6,23.3-7.4,44.3-8
	c12.5-0.3,17.8-0.8,23.8-2.6c7.6-2.3,13.4-6.7,18.2-14c3.7-5.7,11.4-11.8,24.4-20.1c2.7-1.7,5.4-3.4,9.4-5.8
	c15.9-9.7,19.3-11.9,24.7-15.9c8.9-6.7,15.5-13.9,22.8-24.6c3.2-4.8,6.4-9.6,9.4-14.6v3.2c-3.3,5.3-5.7,9-8,12.4
	c-7.4,10.8-14.1,18.2-23.2,25c-5.5,4.1-8.9,6.2-24.8,16c-3.1,1.9-6.3,3.9-9.4,5.8c-12.8,8.2-20.4,14.2-23.9,19.6
	c-5,7.7-11.2,12.3-19.1,14.7c-6.1,1.9-11.5,2.4-24.2,2.7c-20.8,0.6-30.7,2-43.7,7.8c-4.9,2.2-9.6,4.6-14.3,7.2
	c-7.2,4-27.2,17-30.2,18.8c-12.7,7.4-23.4,10.7-37.5,10.7c-31.4,0-50.5,12.3-92.7,58.1c-8.1,8.8-16.1,14.9-24.5,19.4
	c-3.3,1.7-6.7,3.2-10.4,4.6c-1.4,0.5-2.8,1-8.9,3.1c-8.5,2.9-12.4,5.4-15.5,10.6c-3.7,6.3-5.5,16.6-5.5,33.4
	c0,29.8-3.1,40.1-13,49.8c-1.1,1.1-5.4,5.1-6.1,5.8c-2.5,2.4-4.9,4.9-7.1,7.5c-5.9,6.9-11.4,15.5-17.1,27.3
	c-2.9,5.9-5.4,12.1-7.5,18.3c-5.6,16.6-8.6,34.1-9.6,53.2c-0.7,14.3-0.4,26.9,0.9,46.9c1.1,17.9,1.3,20.2,1.3,26.2
	C525.8,978.9,524.1,986.4,518.6,1000L518.6,1000z M560.4,1000h-1.7c-0.1-7.9,0.1-15.6,0.5-25c0.4-10.7-0.7-19.6-4.2-40.6l-0.5-3.1
	c-3.5-20.9-4.6-32.2-3.3-44.1c1.7-15.4,7.9-27.8,20-37.8c36.7-30.3,49.7-50.3,49.7-74.3c0-4.3-0.5-8-1.6-13.6
	c-1.6-8-1.8-9.5-1.6-12.6c0.3-4.3,2.1-7.8,5.9-11.2c4.4-3.9,11.7-7.7,22.9-11.7c16.2-5.8,25.9-15.3,40.5-35.9l3-4.2
	c7.5-10.5,11.8-16,17.4-21.3c7.2-6.8,15-11.3,24.2-13.6c22.2-5.5,33.9-9.1,42.2-12.7c3-1.3,6-2.8,8.8-4.5c1.8-1.1,2.9-1.7,7.1-4.3
	c4.5-2.8,8.7-3.5,19-3.8c9.1-0.3,13.2-0.7,18.3-2.3c6.1-2,11.6-5.5,15.9-10.4c8.1-8.8,16.7-12.7,29.6-14.8c1.8-0.3,3.1-0.5,6.4-1
	c11.5-1.6,16.6-2.8,22.5-6c7.5-4.1,11.3-7.4,39.1-32.8l5.2-4.7c16.1-14.5,26.9-23,35.7-27.5c7.1-3.5,12.7-7.8,18.7-14.3v2.4
	c-5.7,5.9-11.1,10-18,13.4c-8.6,4.3-19.3,12.8-35.3,27.2l-5.2,4.7c-28,25.6-31.7,28.8-39.4,33c-6.1,3.3-11.3,4.6-23,6.2
	c-3.3,0.5-4.6,0.7-6.4,1c-12.6,2.1-20.9,5.8-28.7,14.3c-4.5,5-10.2,8.8-16.6,10.8c-5.3,1.7-9.5,2.1-18.7,2.4c-10,0.3-14,1-18.1,3.5
	c-2.3,1.5-4.7,2.9-7.1,4.3c-2.9,1.7-5.9,3.2-9,4.6c-8.4,3.7-20.2,7.3-42.5,12.8c-16.2,4.1-25.4,12.7-40.7,34.3l-2.9,4.2
	c-14.8,20.9-24.7,30.6-41.3,36.5c-10.9,3.9-18.1,7.6-22.3,11.4c-3.5,3.1-5.1,6.2-5.4,10.1c-0.2,2.9,0,4.4,1.6,12.2
	c1.2,5.7,1.7,9.5,1.7,13.9c0,24.6-13.2,45-50.3,75.6c-11.7,9.7-17.7,21.7-19.4,36.7c-1.3,11.7-0.2,22.9,3.3,43.7l0.5,3.1
	c3.6,21.1,4.7,30.1,4.2,41C560.5,984.3,560.3,992,560.4,1000L560.4,1000z M159.8,1000h-3.4c1.1-6.4,1.9-14.7,2.7-26.6
	c0.3-5.2,0.4-6.8,0.6-9.3c2.2-29.2,6.7-45.2,19.2-55.3c7.7-6.3,12-14.9,14.4-26.7c0.8-4.2,1.2-6.4,2.2-15.3
	c1.1-9.2,1.9-13.4,3.7-17.3c2.4-5.1,6.4-7.8,12.3-7.8c23.8,0,64.1,15.2,89.3,33.7c14.4,10.6,35.4,22.2,52.9,28.5
	c21.7,7.8,36.5,7.3,41.2-2.9c2.8-6.1,3.2-6.8,4.4-9.6c4.9-11.1,7.8-20.3,8.7-29.2c0.4-3.6,0.4-7,0-10.3c-0.5-4.6-2.4-7.6-6.8-12.2
	l-2.2-2.3c-1.4-1.5-2.8-3-4-4.6c-1.6-2.1-3-4.4-4.2-6.8l-1.9-3.6c-2.7-5.2-4.5-7.7-6.9-9.3c-8.8-5.8-24.7-9.2-47.6-11.4
	c-5-0.5-10-0.9-15.1-1.2l-3.6-0.3c-15.9-1.2-25.2-2.6-31.8-5.3c-23.4-9.7-57.7-44-57.7-61.5c0-8.9,2.9-15.9,9.1-23.5
	c3.3-4.1,18.5-19.5,21.3-22.6c7.5-8.3,16.9-15.9,29.5-24.4c4.7-3.2,24.6-16,29.1-19.1c3.8-2.7,7.3-5.7,10.6-9
	c2.5-2.5,11.6-11.9,11.9-12.2c12-12.2,21.2-19.3,32.9-24c5.6-2.2,13.5-4.6,29.1-9c6.5-1.8,13.1-3.6,19.6-5.5c7.1-2,14.1-4,21.1-6.2
	c34-10.4,56.7-20.1,68-30.7c14.6-13.7,19.6-23.1,26.2-43.4c3.4-10.4,5.1-15.1,8.4-21.2c15.9-29.5,47.8-65.6,72.5-75.7
	c23.6-9.7,32.3-19.6,32.3-30.1c0-4.8,4.5-14,11.4-22.9c7.9-10.3,17.7-18.9,27.9-23.6c20.8-9.6,55.8-16.8,79-16.8
	c8.9,0,16.4-2.5,27.4-8.1c15.3-7.8,16.8-8.5,22.6-8.5c17.4,0,53.4-4.2,76.3-9.9l6.5-1.6l5.8-1.5c4.3-1.1,7.2-1.8,9.9-2.4
	c6.5-1.4,11.3-2,16-1.9c4.6,0.1,9.1,0.9,14.4,2.5c7.6,2.3,22.8-1.5,38.1-9.5c5.8-3,11.2-6.4,16.4-10.3v4
	c-18.5,13.6-42.9,22.8-55.5,19c-4.4-1.4-8.9-2.2-13.5-2.3c-4.4-0.1-8.9,0.5-15.2,1.9c-5.2,1.2-10.4,2.5-15.5,3.8l-6.5,1.6
	c-23.1,5.8-59.4,10-77.1,10c-5,0-6.5,0.7-21.1,8.1c-11.4,5.8-19.3,8.5-28.9,8.5c-22.7,0-57.2,7.1-77.6,16.5
	c-9.6,4.4-19,12.7-26.7,22.6c-6.4,8.4-10.7,17-10.7,20.9c0,12.1-9.7,23-34.4,33.2c-23.8,9.8-55.3,45.3-70.8,74.2
	c-3.2,5.9-4.9,10.5-8.2,20.7c-6.7,20.8-12,30.6-27.1,44.8c-11.8,11.1-34.8,20.9-69.3,31.5c-7,2.1-14.1,4.2-21.2,6.2
	c-6.5,1.8-13.1,3.7-19.7,5.5c-15.4,4.3-23.3,6.7-28.7,8.9c-11.2,4.5-20.1,11.3-31.7,23.2c-0.2,0.2-9.3,9.7-11.9,12.2
	c-3.4,3.4-7.1,6.6-11,9.4c-4.6,3.2-24.6,16-29.2,19.2c-12.3,8.4-21.6,15.9-28.9,23.9c-2.9,3.2-18,18.5-21.2,22.4
	c-5.8,7.1-8.4,13.4-8.4,21.4c0,15.8,33.3,49.2,55.6,58.5c6.1,2.5,15.2,3.9,30.7,5.1c2.4,0.2,4.8,0.4,7.2,0.5
	c5.4,0.4,8.4,0.6,11.5,0.9c23.5,2.3,39.7,5.7,49.1,11.9c3,2,5,4.8,8,10.5l1.8,3.5c1.1,2.2,2.4,4.3,3.9,6.3c1,1.4,2.2,2.7,3.8,4.3
	c0.4,0.4,1.8,1.9,2.2,2.3c4.9,5.1,7.1,8.7,7.7,14.2c0.4,3.5,0.4,7.2,0,11.1c-1,9.2-4,18.7-9,30.2c-1.2,2.8-1.6,3.6-4.4,9.7
	c-5.8,12.4-22.2,13-45.4,4.6c-17.8-6.4-39-18.2-53.7-29c-24.6-18.1-64.3-33-87.3-33c-8.3,0-10.7,5-12.7,22.1
	c-0.5,5.2-1.3,10.4-2.3,15.5c-2.5,12.5-7.2,21.7-15.6,28.6c-11.4,9.3-15.8,24.6-17.9,53c-0.2,2.5-0.3,4.1-0.6,9.3
	C161.7,985.3,161,993.6,159.8,1000L159.8,1000z M173.3,1000h-1.7c0.5-2.3,1-4.9,1.5-7.6l1.7-9.4c4.2-22.2,7-33.2,11.1-40.1
	c2.8-4.7,6.1-9.2,13.4-18.4c13.7-17.3,18.1-24.2,18.1-31.2l0-2.8c0-3,0-4.5,0-6.3c0.4-8.4,2.4-13.7,7.7-15.7
	c6.5-2.5,17.3,0.7,33.5,10.7c15.9,9.8,29.2,17.8,43.2,26.1c2.2,1.3,23.8,14,29.4,17.4c3.6,2.1,7.1,4.3,10.7,6.5
	c23,14.2,64.9,8.4,77.2-13c6-10.5,7.6-14.2,13-28.9c0.6-1.7,1.3-3.4,2-5.1c1.8-4.5,4.1-8.7,6.8-12.7c15.5-23.3,24.9-43.5,24.9-61.2
	c0-6.1,1.2-11,5.6-24.7c0.9-2.7,1.4-4.4,1.9-6.2c6.1-20.4,5.1-31.9-7.1-40c-5-3.4-10.7-5.5-16.6-6.3c-12-1.5-24.1,2-39.8,9.8
	c-2.6,1.3-11.1,5.7-12.7,6.5c-2.3,1.2-4.6,2.5-6.9,3.8l-7.3,4.4c-19.4,11.5-34,15.3-54.7,10.1c-5.5-1.4-10.4-2.3-21.8-4.4
	c-22.1-4-31.2-6.2-38.9-10.8c-10.4-6.1-12.4-15-4.8-27.7c6.7-11.1,14.8-21.4,24.1-30.5c4.5-4.4,9.1-8.7,13.9-12.8
	c-0.1,0.1,10.3-8.8,13-11.3c3.8-3.3,7.4-6.8,10.8-10.5c12.8-14.1,21.3-22.3,33.5-30.9c16.6-11.8,35.7-20.6,58.6-26
	c61.7-14.4,85-21.2,98-29.9c14.3-9.5,35.5-41.3,61.4-91.3c8.7-16.8,20.4-30.7,35.2-42.8c8.5-7.1,15.9-12.1,29.2-20.4
	c12.4-7.7,16-10.2,19-13.6c2-2.5,3.7-5.2,4.9-8.1c1-2.2,4.8-10.8,5-11.3c2.3-5,4.3-9,6.6-12.9c10.9-18.3,26.7-30,52.3-34.7
	c21.2-3.8,33.1-4.5,49.5-3.8c5.4,0.2,6.9,0.3,9.3,0.2c8.6-0.1,16.2-1.7,27.7-6.3c34.6-13.8,64.6-20.1,98.6-20.1
	c5.1,0,10,0.2,17.5,0.8l3.5,0.3c20.7,1.6,30.1,1.6,42.2-1c8.2-1.8,16.2-4.9,23.5-9.1v1.9c-7.2,4.1-15,7-23.1,8.8
	c-12.3,2.7-21.8,2.7-42.7,1.1l-3.5-0.3c-7.4-0.6-12.3-0.8-17.3-0.8c-33.8,0-63.7,6.2-98,19.9c-11.7,4.7-19.5,6.3-28.3,6.5
	c-2.5,0-4,0-9.4-0.2c-16.3-0.7-28,0-49.1,3.8c-25.1,4.5-40.5,16-51.2,33.8c-2.4,4.1-4.6,8.4-6.5,12.7c-0.2,0.5-4,9.1-5,11.3
	c-1.3,3.1-3.1,5.9-5.2,8.5c-3.1,3.5-6.8,6.1-19.3,13.9c-13.2,8.3-20.6,13.2-29.1,20.2c-14.6,12-26.2,25.7-34.8,42.3
	c-26,50.3-47.3,82.2-61.9,92c-13.3,8.9-36.6,15.6-98.6,30.1c-22.7,5.3-41.6,14-58,25.7c-12,8.6-20.4,16.7-33.2,30.7
	c-3.5,3.7-7.1,7.3-10.9,10.7c-2.8,2.5-13.2,11.4-13.1,11.3c-5.4,4.7-9.7,8.6-13.8,12.7c-9.2,9-17.2,19.2-23.8,30.2
	c-7.2,11.9-5.4,19.8,4.2,25.4c7.4,4.4,16.5,6.6,38.7,10.6c7.2,1.2,14.4,2.6,21.5,4.3c20.2,5,34.4,1.4,53.4-9.9l7.3-4.4
	c2.8-1.7,4.9-2.9,7-3.9c1.6-0.8,10.1-5.2,12.7-6.5c16-8,28.4-11.6,40.8-10c6.2,0.8,12.1,3,17.3,6.5c13,8.7,14.1,20.9,7.8,41.9
	c-0.5,1.8-1.1,3.5-1.9,6.2c-4.3,13.5-5.5,18.4-5.5,24.2c0,18.1-9.4,38.6-25.1,62.1c-2.6,3.9-4.8,8.1-6.6,12.4c-0.6,1.5-1.2,3-2,5.1
	c-5.4,14.7-7,18.5-13.1,29.1c-12.8,22.4-55.7,28.2-79.5,13.6c-3.5-2.2-7.1-4.3-10.7-6.5c-5.7-3.4-27.3-16.1-29.4-17.4
	c-14-8.3-27.3-16.3-43.2-26.1c-15.8-9.7-26.2-12.8-32.1-10.6c-4.5,1.7-6.3,6.4-6.7,14.2c-0.1,2.1-0.1,4.1,0,6.2l0,2.8
	c0,7.5-4.5,14.5-19.2,33.1c-6.5,8.2-9.8,12.6-12.6,17.3c-4,6.6-6.8,17.6-10.9,39.5l-1.7,9.4L173.3,1000L173.3,1000z M190.8,1000
	h-1.7c0.1-0.6,0.1-1.1,0.1-1.7c0-20.6,14.1-55.9,31.9-72.3c2.3-2.1,4.3-4.4,6.1-6.9c1.8-2.6,3.4-5.3,4.8-8.2
	c0.6-1.2,2.9-6.1,3.5-7.3c5.4-10.5,11.4-10.9,28.3,0.6c2.2,1.5,10.1,6.9,10.7,7.3c4.4,3,7.8,5.3,11.2,7.6
	c8.4,5.6,15.6,10.3,22.5,14.5c23.9,14.4,42.5,22.1,56.8,22.1c28.1,0,54.5-9.9,66-24.7c2.6-3.4,5.3-8.6,8.4-16
	c1.3-3.2,2.7-6.8,4.4-11.3l4.6-12.2c7.8-20.7,12.9-31.8,19.3-38.8c13.2-14.6,24.8-60,24.8-87.8c0-3.2,0.3-5.2,1.7-13.8
	c0.6-3.7,1-6,1.2-8.4c1-9.2,0.3-15.8-2.8-20.6c-7.7-11.8-32.8-15.4-64.1-8c-10.8,2.4-21.4,6-31.6,10.5c-8.6,3.9-28.5,16.2-27.5,15.7
	c-11.2,6.1-21.6,6.9-41.3,2.2c-49.2-11.9-50.7-14.4-25.4-44.7c29.1-34.9,78.5-77,94-77c16.5,0,89.7-20,109.6-29.9
	c15.8-7.9,40.5-35.3,61.4-63.1c1.2-1.6,22.5-36,32-49.3c15.6-21.9,30.4-37.6,44.9-45.9c12.1-6.9,21.9-17.1,31.3-31.2
	c3.2-4.8,17.5-29.4,21.2-34c2.6-3.2,5-5.3,7.5-6.5c23.4-10.4,40.4-15.1,65.3-15.1h48.3c6.7,0,12.3-0.7,38.2-4.2l7.2-1
	c16.5-2.2,27.6-3.2,36.3-3.2c2.8,0,4.9,0,10,0.1c31,0.3,47.6-0.8,74.8-6.7c5.2-1.1,10.2-3,15.2-5.5v1.9c-4.7,2.4-9.7,4.1-14.8,5.3
	c-27.3,5.9-44,7.1-75.1,6.7c-5.1,0-7.3-0.1-10-0.1c-8.6,0-19.6,1-36.1,3.2l-7.2,1c-26.1,3.5-31.6,4.2-38.4,4.2H770
	c-24.7,0-41.4,4.6-64.7,14.9c-2.2,1-4.5,3-6.9,6c-3.6,4.5-17.9,29-21.1,33.9c-9.5,14.3-19.5,24.7-31.9,31.7
	c-14.3,8.2-28.9,23.7-44.4,45.4c-9.5,13.3-30.8,47.7-32,49.4c-21,28-45.9,55.5-62,63.6c-20.1,10-93.6,30.1-110.4,30.1
	c-14.7,0-64,41.9-92.7,76.4c-24.3,29.2-23.6,30.3,24.6,42c19.3,4.7,29.3,3.8,40.1-2c-1.1,0.6,18.8-11.7,27.6-15.7
	c9-4.1,19.3-7.6,31.8-10.6c31.9-7.5,57.7-3.9,65.9,8.7c3.4,5.3,4.1,12.2,3.1,21.7c-0.3,2.9-0.8,5.7-1.2,8.5
	c-1.4,8.5-1.7,10.5-1.7,13.5c0,28.2-11.7,73.9-25.2,88.9c-6.1,6.8-11.3,17.7-18.9,38.3c-0.6,1.5-3.7,9.9-4.5,12.2
	c-1.7,4.6-3.1,8.2-4.5,11.4c-3.2,7.5-5.9,12.9-8.7,16.4c-11.8,15.2-38.7,25.3-67.3,25.3c-14.8,0-33.6-7.7-57.7-22.4
	c-6.9-4.2-14.2-8.9-22.6-14.5c-3.7-2.5-7.5-5-11.2-7.6l-10.7-7.3c-16.1-11-21-10.7-25.8-1.2c-0.6,1.1-2.9,6-3.5,7.2
	c-1.4,2.9-3.1,5.7-4.9,8.4c-1.9,2.6-3.9,5-6.3,7.2c-17.4,16-31.4,50.8-31.4,71L190.8,1000L190.8,1000z M141.3,1000h-1.8
	c1.9-4.2,3-8.7,3-13.3c0-33.3,8-70.1,20.2-82.2c8.6-8.6,12.9-14,16.5-21.2c4.4-9,6.6-20,6.6-34.8c0-11.4,1.9-19.3,5.6-25.1
	c2.9-4.5,6-7,14.8-12.5c2.3-1.4,4.5-2.9,6.5-4.6c7.7-6.6,11-10.3,12.9-15.7c2.4-6.7,1.5-15.1-3.1-26.7c-1.9-4.6-4.1-9.1-6.6-13.4
	l-1.5-2.8c-1.6-2.7-3-5.5-4.4-8.3c-8.6-17.8-6.3-31.5,12.8-49.6c13.9-13.2,28.8-25.2,44.7-35.9c6.6-4.5,28-18,32.1-20.8
	c3.3-2.3,7.2-5.5,12.9-10.5c0,0,12-10.6,15.8-13.8c8.3-7.1,15.1-12.5,21.7-16.9c7.9-5.2,14.9-8.8,21.4-10.5c21.3-5.7,26-7,36.3-9.9
	c20.9-6.1,36.6-11.5,46.9-16.7c4-1.9,8.2-3.5,12.4-4.6c14.4-4.4,20-6.8,28.3-13.5c11.3-9.1,21.8-23.7,32.2-46.4
	c26.6-57.9,31.8-65.6,53.6-82c5.2-3.9,10.6-6.8,19-10.7l3.9-1.7c19.9-8.9,28.1-14.9,35.2-29c3.1-6.3,4.1-10.5,5.6-20.4
	c1.3-8.6,2.5-12.6,5.9-17.1c4.3-5.7,11.7-10.4,23.9-15c5.6-2.1,12.3-4.2,20.1-6.2c27.2-7.2,42.1-8.9,66-9.7
	c11.5-0.4,15.8-0.9,21.1-3.3c2-0.9,3.9-2,6-3.5c6.2-4.5,13.6-7.6,22.1-9.4c9.5-2.1,17.8-2.6,31.2-2.4l3.9,0c4.7,0,11.3-1.7,32.8-7.8
	c18-5.1,26.6-7.2,32.2-7.2c1.4,0,3.2,0.2,5.9,0.7l8.3,1.5c16.4,2.8,29.1,3.1,41.9-0.4c13.3-3.6,24.7-11.3,33.8-23.7v2.7
	c-9.1,11.7-20.3,19-33.4,22.6c-13.1,3.6-26,3.2-42.6,0.4l-8.3-1.5c-2.7-0.4-4.4-0.6-5.6-0.6c-5.3,0-13.9,2-32.9,7.5
	c-20.6,5.9-27.2,7.5-32.1,7.5l-3.9,0c-13.2-0.2-21.4,0.3-30.8,2.4c-8.3,1.8-15.5,4.8-21.5,9.2c-2,1.4-4,2.7-6.2,3.7
	c-5.5,2.5-10,3.1-21.7,3.5c-23.7,0.7-38.5,2.5-65.6,9.6c-6.7,1.7-13.4,3.8-19.9,6.2c-11.9,4.5-19.1,9.1-23.2,14.5
	c-3.2,4.2-4.3,7.9-5.5,16.3c-1.5,10.1-2.5,14.5-5.8,20.9c-3.7,7.6-9.2,14.2-16.1,19.1c-5.2,3.8-9.9,6.2-19.9,10.7l-3.8,1.7
	c-8.3,3.8-13.6,6.6-18.7,10.5c-21.5,16.1-26.5,23.6-53.1,81.3c-10.5,22.9-21.2,37.8-32.7,47.1c-8.5,6.8-14.2,9.3-28.8,13.8
	c-4.2,1.2-8.3,2.7-12.2,4.5c-10.4,5.2-26.2,10.7-47.2,16.8c-12.1,3.5-24.2,6.8-36.3,9.9c-6.3,1.7-13.2,5.2-20.9,10.3
	c-7.5,5.2-14.7,10.8-21.6,16.8c-3.7,3.2-15.8,13.8-15.8,13.8c-4.2,3.8-8.5,7.3-13.1,10.6c-4.1,2.9-25.5,16.4-32.1,20.8
	c-15.8,10.6-30.7,22.6-44.5,35.7c-18.5,17.6-20.7,30.5-12.4,47.7c1.4,2.8,2.8,5.6,4.4,8.2l1.6,2.8c2.5,4.4,4.8,8.9,6.7,13.6
	c4.8,12,5.7,20.8,3.1,27.9c-2,5.7-5.5,9.6-13.4,16.4c-1.9,1.6-3.9,3-8.8,6.1c-6.5,4.1-9.5,6.5-12.2,10.7c-3.5,5.5-5.4,13.1-5.4,24.2
	c0,15.1-2.2,26.3-6.7,35.6c-3.6,7.5-8.1,12.9-16.8,21.7c-11.8,11.8-19.7,48.2-19.7,81.1C144.2,991.3,143.2,995.8,141.3,1000
	L141.3,1000z M612.2,1000h-1.7l-1.8-9.7c-5.1-27.1-6.7-43.7-4.6-62.1c1.2-9.7,1.3-16.1,0.9-25.5c-0.3-7.4-0.3-9.5,0.3-12.7
	c1.3-7.2,5.7-14.2,17.3-27.2c15.1-17,20.4-25.7,33-50.2c2.2-4.4,3.9-7.4,5.6-10.5c1.5-2.6,3-5.1,4.6-7.5c5.2-7.8,11.7-14,28.1-28
	c18.7-16,25.8-23.1,30.2-31.9c1.2-2.3,2.2-4.7,3.2-7.3c0.9-2.2,1.7-4.5,2.5-6.7c6-16.6,13.3-23.2,38.2-29.7
	c8.3-2.2,34.2-8.5,35.6-8.9c27-6.8,42.2-12.3,55.8-21c9.8-6.3,9.7-6.3,46.1-27.5l4.3-2.5c17-10,28.5-17,37.9-23.2
	c5-3.3,9.9-6.8,14.7-10.5c3.6-2.8,7.1-5.6,10.6-8.5c8.3-6.7,17.3-12.4,26.9-17.1v1.9c-9.2,4.6-17.8,10.1-25.8,16.5
	c0.3-0.2-7.9,6.4-10.6,8.5c-4.8,3.7-9.7,7.2-14.7,10.6c-9.4,6.3-20.9,13.3-38,23.3l-4.3,2.5c-36.3,21.2-36.3,21.2-46,27.5
	c-13.8,8.9-29.1,14.3-56.3,21.2c-1.4,0.3-27.3,6.7-35.6,8.9c-13.4,3.5-21.9,7.5-27.4,12.5c-4.4,4-6.7,8.1-9.6,16.2l-2.5,6.8
	c-1,2.5-2.1,5-3.3,7.4c-4.5,9.1-11.7,16.2-30.6,32.4c-16.2,13.9-22.7,20-27.7,27.7c-1.6,2.4-3.1,4.9-4.6,7.4c-1.7,3-3.3,6-5.6,10.4
	c-12.6,24.7-18,33.5-33.3,50.6c-11.4,12.8-15.7,19.6-16.9,26.4c-0.6,3.1-0.6,5.1-0.3,12.3c0.4,9.5,0.2,16-0.9,25.8
	c-2.2,18.2-0.6,34.6,4.5,61.6L612.2,1000L612.2,1000z M484.6,1000h-3.5l2.3-7.2c1.7-5.5,3.2-11.3,4.5-17.3
	c4.4-21.2,5.4-39.4,5.4-68.8c0-9.5-3.1-16.2-6.9-16.2c-4.9,0-11.6,9.3-18.2,28.5c-16.3,47.2-37.7,69.4-71.5,69.4
	c-37.4,0-48.8-2.2-80.7-16.8c-5.4-2.5-10.6-5.3-15.7-8.4c-4.9-3-21.3-14.3-24.7-16.2c-7-3.9-11.7-4.5-16.2-1.6
	c-1,0.7-2.1,1.5-3.2,2.6c-2.3,2.3-4.7,4.4-7.2,6.4c-1.7,1.4-3.4,2.7-5.1,4.1l-1.7,1.3c-13.9,11-18.9,18.9-18.9,35.3
	c0,1.7,0,3.3-0.1,5h-3.3c0.1-1.6,0.1-3.3,0.1-5c0-17.5,5.5-26.3,20.1-37.9c1.1-0.9,2.2-1.8,3.3-2.7c1.4-1.1,2.4-1.9,3.4-2.7
	c2.4-2,4.7-4,6.9-6.2c1.2-1.2,2.5-2.2,3.7-3c5.8-3.7,11.7-2.9,19.6,1.5c3.6,2,20,13.3,24.8,16.3c5,3,10.1,5.8,15.4,8.2
	c31.4,14.3,42.4,16.5,79.3,16.5c32.1,0,52.5-21.2,68.4-67.2c7.1-20.4,14.4-30.7,21.3-30.7c6.3,0,10.2,8.4,10.2,19.6
	c0,29.7-1,48-5.5,69.5c-1.3,6.2-2.8,12-4.6,17.7C485.9,996,485.2,998,484.6,1000L484.6,1000z M235.8,1000l0.8-1.6
	c4-7.2,7.6-14.6,10.9-22.1c4.5-10.5,9.6-16.1,15.4-17.5c6.2-1.6,11.9,1.2,20.9,8.5c9,7.3,10.1,8.1,12.9,8.5
	c2.7,0.4,7.1,1.9,14.8,4.9c2.2,0.8,18,7.2,23.1,9.2c5.1,2,9.7,3.7,14.1,5.3c5.2,1.8,10,3.4,14.4,4.7h-5.7c-2.9-0.9-6-2-9.2-3.1
	c-4.8-1.7-9.5-3.5-14.2-5.3c-5.1-2-20.9-8.4-23.1-9.2c-7.5-3-11.9-4.5-14.4-4.8c-3.2-0.5-4.2-1.2-13.7-8.8c-8.6-7-13.9-9.6-19.5-8.2
	c-5.2,1.3-9.9,6.5-14.3,16.6c-3.4,7.8-7.2,15.5-11.4,23L235.8,1000L235.8,1000z M424,1000c6.9-2.1,13.3-5.7,18.8-10.4
	c2.6-2.3,5.5-5.8,8.9-10.5c1.7-2.4,3.6-5.2,5.7-8.4c1.4-2.2,2.8-4.3,4.2-6.5l0.8-1.2l1.5-2.4c1.7-2.8,3.5-5.5,5.4-8.1
	c1.7-2.4,3-3.7,4.1-4.1c1.7-0.6,2.5,0.8,2.5,3.4l0,3.5c0.1,11.5-0.1,18.9-1.2,27.2c-0.7,6-2,11.9-4,17.6h-1.8
	c2.1-5.8,3.4-11.7,4.1-17.8c1-8.3,1.2-15.5,1.2-27l0-3.5c0-1.6-0.1-1.9-0.2-1.8c-0.6,0.2-1.7,1.4-3.3,3.5c-1.9,2.6-3.7,5.3-5.4,8
	l-1.5,2.4l-0.8,1.2c-1.4,2.2-2.8,4.4-4.2,6.5c-2.1,3.2-4,6-5.7,8.5c-3.4,4.8-6.4,8.4-9.2,10.7c-4.4,3.9-9.4,7-14.9,9.2L424,1000
	L424,1000z M117.8,1000h-2.3c5.6-5.7,8.6-13.9,8.6-25c0-31-0.1-28.9,1.7-34.6c1-3.2,2.5-6.2,5.4-11c0.7-1.2,8.2-13,11.3-18.1
	c5.1-8.3,18.4-27.5,20.3-30.9c5.8-10.1,7.9-20.1,7.9-40.3c0-13.1,4.2-23.7,13.5-39.1l4.7-7.7c1.5-2.4,2.9-4.8,4.1-7.3
	c2.7-5.2,4.1-9.6,4.4-13.8c0.3-6.3-2.2-12.1-8.2-18.2c-8.5-8.5-14.3-9-18.7-3.1c-3.5,4.9-5.8,12.9-8.4,27.4
	c-0.3,1.7-1.4,7.7-1.4,7.6c-1.4,7.8-2.3,12.2-3.5,16c-2.2,7.4-6.2,12.7-13.9,20.4l-5.4,5.3c-10.6,10.6-16.1,19.2-18.9,32.5l-1.9,9.2
	c-1.4,6.8-2.6,11.7-3.9,16.6c-6.1,22.9-16.1,43.3-37.6,74.5C62.9,979,57.3,991.9,57.5,1000h-1.7c-0.2-8.6,5.6-21.7,18.5-40.5
	c21.4-31.1,31.3-51.3,37.4-74c1.3-4.8,2.4-9.7,3.9-16.5l1.9-9.2c2.9-13.7,8.5-22.5,19.4-33.3c1-1.1,4.7-4.7,5.4-5.3
	c7.6-7.6,11.4-12.7,13.5-19.7c1.5-5.2,2.6-10.5,3.4-15.8l1.3-7.6c2.7-14.8,5-23,8.7-28.1c5-6.9,12-6.3,21.2,2.9
	c6.3,6.3,9,12.6,8.7,19.4c-0.2,4.4-1.7,9-4.5,14.5c-1.3,2.5-2.7,5-4.2,7.4l-4.7,7.7c-9.2,15.2-13.3,25.5-13.3,38.2
	c0,20.5-2.1,30.7-8.1,41.1c-2,3.5-15.3,22.7-20.4,31c-3.1,5.1-10.6,17-11.3,18.1c-2.9,4.7-4.3,7.6-5.3,10.7
	c-1.7,5.5-1.6,3.5-1.6,34.1C125.8,985.9,123,994.1,117.8,1000L117.8,1000z M516.8,0h1.8c-0.6,1.5-1.3,3-2,4.7
	c-6.5,15.1-9.1,25.2-9.1,42c0,12.7-3.5,19.3-11.1,21.7c-5.8,1.8-9.5,1.6-29.3-0.7c-19.2-2.3-31.9-2.6-46.9-0.2
	c-10.4,4.1-43.2,11.7-53.5,11.7c-18.6,0-61.3-4.8-90.2-11.7c-9.6-2.5-19.8-1-28.2,4.1c-6.7,3.9-11.8,8.4-23.2,19.9
	c-10.5,10.6-15.9,15.4-23,19.2c-11.8,6.3-18.7,12.7-22.3,20.4c-3,6.4-3.9,13.1-3.9,25.5c0,7.3-4.4,11.1-15.7,16.2
	c0.2-0.1-4.9,2.2-6.4,2.8c-14.6,6.8-21.2,13.8-21.2,27.6c0,20.9-8.1,32-28.9,46.6l-7.6,5.2c-3.2,2.2-5.5,3.8-7.8,5.5
	c-1.5,1.1-3,2.2-4.4,3.3c-11.9,9.4-18.3,24.2-25.9,55.5c-1,4.3-5.5,23.3-6.8,28.6c-2.6,10.8-5.5,21.6-8.7,32.2
	c-2.3,7.5-7.5,25.1-8.3,27.5c-1.7,5.7-2.7,8.2-4.1,10.5c-1.4,2.3-11.4,15.1-21.1,30.4l-9,14.5v-3.2l7.6-12.2
	c6.6-10.4,13.6-20.5,21-30.4c-0.5,0.8,2.2-4.7,4-10.2c0.7-2.4,6-20,8.2-27.5c3-10,5.7-20.1,8.6-32.1c1.3-5.2,5.7-24.3,6.8-28.6
	c7.7-31.6,14.2-46.7,26.5-56.4c1.4-1.1,2.9-2.2,4.4-3.3c2.3-1.7,4.7-3.3,7.8-5.5l7.6-5.2c20.4-14.3,28.2-25,28.2-45.2
	c0-14.6,7-22.1,22.1-29.1c1.5-0.7,6.6-2.9,6.4-2.9c10.8-4.8,14.8-8.3,14.8-14.7c0-12.7,0.9-19.5,4-26.2c3.8-8.1,10.9-14.7,23.1-21.2
	c6.9-3.7,12.2-8.3,23.6-19.9c10.5-10.7,15.6-15.2,22.5-19.2c8.8-5.3,19.5-6.9,29.5-4.3c28.8,6.9,71.3,11.6,89.8,11.6
	c10.2,0,42.9-7.5,53.2-11.7c15.2-2.4,28-2.1,47.5,0.2c19.4,2.3,23.2,2.5,28.6,0.8c6.8-2.2,9.9-8.1,9.9-20.2
	C505.8,29.8,508.4,19.5,516.8,0L516.8,0z M558.7,0h1.7c0.1,9.4,0.4,19.1,1.1,32.3c0.8,16.2,1.1,24.3,1.1,36
	c0,16.3-7.8,29.1-21.8,38.6c-10.9,7.4-24.9,12.4-40.5,15.5c-6.2,0.9-15.7,0.9-37.8,0.4c-11.2-0.3-15.6-0.4-20.6-0.4
	c-4.6,0-8.3,0.7-12.7,2.3c-1.5,0.5-7.6,2.9-9.3,3.5c-10.9,3.9-22.6,5.9-41.3,5.9c-13.5,0-22.6-2.3-37.4-8.2l-5.3-2.1
	c-20.9-8.1-35.4-8.6-62,1.9c-18.6,7.3-30.2,15.3-37.1,24.7c-5.2,7.1-7.2,13-9.9,26.3c-2,10.1-3.2,14.6-5.8,20.2
	c-2.7,5.9-6.6,9.7-11.8,12c-3.9,1.8-7.2,2.5-15.5,3.6c-15.1,2.1-21.3,5.1-26,16c-6.2,14.1-12.9,23.1-23.7,32.9
	c-4,3.6-21.9,18.4-26.5,22.4c-13.7,11.8-23.1,28.9-31.2,53.3c-1.9,5.9-3.8,11.9-5.4,17.8c0,0.1-3.8,13.3-4.8,16.8
	C61.7,420,46,460.2,32.3,473.9c-4.7,4.7-8.4,9.4-17.3,21.6C9.3,503.3,4.5,509.3,0,514v-2.6c4.6-5,9.5-11.4,15.8-19.9
	c6.7-9.2,10.5-14,15.3-18.7c13.4-13.5,29.1-53.6,43.1-101.3c1-3.5,4.8-16.7,4.8-16.8c2-7.1,3.7-12.5,5.5-17.9
	c8.2-24.6,17.7-41.9,31.7-54c4.6-4,22.5-18.7,26.5-22.3c10.7-9.7,17.2-18.5,23.3-32.4c2.8-6.4,6.7-10.5,12-13.1
	c4-1.9,7.7-2.8,15.9-3.9c7.6-1,10.8-1.7,14.5-3.4c4.8-2.2,8.4-5.7,11-11.2c2.5-5.5,3.7-9.8,5.7-19.8c2.7-13.6,4.7-19.6,10.2-27
	c7.1-9.6,19-17.8,37.9-25.3c26.9-10.6,41.9-10.1,63.2-1.8l5.3,2.1c14.6,5.8,23.5,8,36.8,8c18.5,0,30-1.9,40.8-5.8
	c1.7-0.6,7.8-3,9.3-3.5c4.2-1.6,8.7-2.4,13.3-2.4c5.1,0,9.4,0.1,23.4,0.4c19.2,0.5,28.7,0.4,34.7-0.4c15.4-3.1,29.2-8,39.9-15.3
	c13.6-9.2,21.1-21.5,21.1-37.2c0-11.7-0.3-19.8-1.2-37.8C559.1,18.4,558.7,9.1,558.7,0z M156.5,0h3.4c-1.2,6.7-2.7,11.4-5,15.8
	c-3.9,7.3-4.7,9.6-8.8,21.7c-0.9,2.9-2,5.7-3.2,8.4c-3.7,7.8-9.9,14.7-21.8,23.8c-13.3,10.2-23.8,27.6-33.4,52.6
	c-4,10.4-14.6,42.7-16.1,46.7c-4.5,11.9-10.9,21.2-26,39.5l-4.5,5.4c-10,12.2-15.6,20.1-19.5,28.6C17.7,250.6,9.7,258.9,0,266v-4
	c8.6-6.6,15.2-13.8,18.5-21c4.1-8.8,9.8-16.8,20-29.3l4.5-5.4c14.9-18,21.2-27,25.5-38.5c1.5-3.9,12.1-36.2,16.1-46.7
	C94.3,95.5,105,77.7,119,67c11.5-8.8,17.3-15.3,20.8-22.6c1.1-2.2,1.9-4.5,3.1-8c4.1-12.3,5-14.7,9-22.2C154.2,9.8,155.7,5,156.5,0z
	 M171.6,0h1.7c-2.8,13.8-4.8,21.1-7.6,25.4c-2.6,4.4-4.9,9-6.8,13.7c-2.1,5-4.1,10.3-5.8,15.7c-0.6,1.9-1.2,3.6-4,9
	c-7.4,7.1-14.5,14.5-21.3,22.2c-5.8,6.6-9.9,12.1-11.9,16.1c-1.6,3.2-3.4,10-6,21.6c-1.1,4.8-6.1,28.6-7.5,35.1
	c-6,27.4-11,44.5-16.5,53.3C73,232.9,68,238.3,23.9,280.6c-7.2,7-15.2,13.1-23.9,18.1v-1.9c8.3-4.8,15.9-10.7,22.7-17.4
	c44-42.2,48.9-47.6,61.5-68.2c5.3-8.6,10.3-25.6,16.3-52.8c1.4-6.5,6.4-30.3,7.5-35.1c2.6-11.8,4.5-18.7,6.2-22
	c2.1-4.2,6.3-9.8,12.1-16.5c1.5-1.7,3.1-3.5,4.8-5.3c4-4.3,8.3-8.7,12.5-12.9c1.5-1.5,2.9-2.8,5.6-5.7c2.2-7.6,4.9-15.1,8-22.4
	c2-4.8,4.3-9.5,7-13.9C166.8,20.5,168.9,13.4,171.6,0L171.6,0z M139.5,0h1.8c-3.5,7.9-10,14.9-19,20.5c-12,7.5-27.5,12-40.6,12
	c-14.8,0-19.7,11.7-19.6,35.9c0,2.8,0.1,5.3,0.2,10c0.2,5.5,0.2,7.4,0.2,10c0,9.5-1.3,18.8-3.3,27.5c-1,3.9-2.2,7.8-3.6,11.6
	c-3.9,8.8-7.7,17.6-11.7,26.4c-10.9,24.4-22,48.8-33.2,73.1c-2.9,6.4-6.5,12.4-10.7,18v-2.7c3.6-5,6.7-10.3,9.2-15.9
	c14.2-30.9,28.2-61.9,41.9-93c0.9-2,1.6-3.7,4.1-9.8c3.7-11.3,5.6-23.2,5.6-35.1c0-2.5,0-4.4-0.2-9.9c-0.1-4.7-0.2-7.2-0.2-10
	c0-11.3,0.9-19.4,3.4-25.6c3.2-7.8,9-12,17.8-12c12.8,0,28-4.4,39.8-11.7C129.9,13.8,136.1,7.3,139.5,0L139.5,0z M610.6,0h1.7
	c3.1,16.7,3.6,21.1,3.9,30.5c2,15.4,2.2,30.9,0.6,46.4c-1.6,14.6-5.2,26.7-11,35.2c-18.9,27.5-66.3,48.7-110.7,48.7
	c-8.5,0-17.4,0.5-27.2,1.4c-13.6,1.4-27.1,3.1-40.6,5.3c-35.9,5.4-46.1,6.7-60.5,6.7c-11.5,0-20.3-1.7-36.1-6.5l-4.6-1.4
	c-2.3-0.7-4.2-1.2-6.1-1.7c-13.3-3.4-23.7-3.4-36.2,1.2c-6.7,2.4-12.2,7.3-15.3,13.6c-2.7,5.1-4.2,10.1-6.7,21.4
	c-2.5,11.1-3.9,15.9-6.6,21.1c-3.3,6.7-9.2,11.8-16.4,13.9c-5.4,1.6-10.7,3.5-15.8,5.7c-10.9,4.7-16.8,9.3-23,17.4
	c-2.2,2.9-1.7,2.2-9,13.2c-3.3,4.9-7.8,9.7-14.1,15.2c-3.3,2.9-17.8,14.7-21.5,17.8c-12.3,10.6-21,20.2-27.7,31.9
	c-7,12.2-13,30.5-18.8,55.4c-1.4,6.2-2.9,12.7-4.4,20.2l-2,9.7l-1.8,9.1c-3,14.9-4.6,22.1-6.3,27.1c-11.3,34.1-28.8,70.3-45.2,85.3
	c-8.5,7.8-13.5,11.8-18.5,14.8c-1.5,0.9-3.1,1.7-4.9,2.6c-0.7,0.4-16,7.3-23.5,11.1l-2,1v-1.9l1.3-0.7c7.5-3.8,22.8-10.7,23.5-11.1
	c1.6-0.8,3.2-1.6,4.7-2.6c4.9-2.9,9.8-6.8,18.2-14.5c16.2-14.8,33.5-50.8,44.8-84.6c1.6-4.9,3.2-12,6.2-26.9l1.8-9.1
	c1.9-10,4.1-20,6.4-29.9c5.8-25.1,11.8-43.6,19-55.9c6.8-11.8,15.7-21.6,28-32.3c3.6-3.1,18.1-14.9,21.5-17.8
	c6.3-5.5,10.6-10.1,13.8-14.9c7.4-11.1,6.9-10.3,9.1-13.3c6.3-8.4,12.5-13.2,23.7-18c4.3-1.9,9.6-3.7,16-5.8
	c6.8-2,12.4-6.8,15.4-13.1c2.6-5,4-9.7,6.7-21.6c2.3-10.4,3.9-15.5,6.6-20.8c3.3-6.7,9.1-11.9,16.2-14.4c12.8-4.7,23.5-4.7,37.2-1.2
	c1.9,0.5,3.8,1,6.1,1.7l6.2,1.8c14.1,4.2,22.8,6,34.1,6c14.3,0,24.4-1.2,60.3-6.7c13.5-2.2,27.1-3.9,40.7-5.3
	c9.8-0.9,18.8-1.4,27.3-1.4c43.8,0,90.7-21,109.3-48c5.7-8.3,9.2-20.1,10.8-34.5c1.4-12.9,1.2-26.7,0-39.8c-0.3-2.9-0.6-5.7-1-8.5
	C614.2,20.9,613.7,16.8,610.6,0L610.6,0z M31.5,0h1.7c-3.2,12.6-4.6,17-9.1,27c-3.2,7.3-4.4,15.3-4,24.8c0.3,7.2,1.2,12.8,3.8,26.9
	c1.8,9.8,2.6,14.6,3.2,20.3c1.6,14.8,0.4,26.8-4.7,38C15.5,152.4,8,167.5,0,182.4v-3.5c7.4-14,14.4-28.1,20.9-42.5
	c4.9-10.9,6.1-22.5,4.5-37.1C24.8,93.5,24,88.8,22.2,79c-2.6-14.1-3.5-19.8-3.8-27.1c-0.4-9.7,0.8-18,4.2-25.5
	C27,16.5,28.4,12.2,31.5,0z M498.9,0c-2.2,6.5-4.9,12.7-8.2,18.7c-4.3,7.8-6.7,14.1-8.1,20l-0.7,3l-0.5,2.4
	c-0.2,1.2-0.6,2.4-1.2,3.4c-1.2,1.7-3.2,2.1-8.5,2.1c1.5,0-16.4-0.5-25-0.5c-17,0-30.7,1.4-49.1,4.3c-28.1,4.4-29.5,4.6-39.4,4.2
	c-4.5-0.2-9-0.8-13.3-1.8c-29.5-6.9-77-9.8-91.2-5c-4.5,1.5-9.8,4.7-15.9,9.3c-3.7,2.9-7.4,6-10.9,9.1c-2.3,2.1-15.3,14.2-18,16.4
	c-2.4,2-13.6,12.4-14.7,13.4c-2.5,2.2-5,4.4-7.6,6.5c-8.3,6.7-14.8,10.3-19.9,10.3c-5.9,0.1-7.2,0-8.6-0.7c-1.9-0.9-2.5-2.9-1.9-5.9
	c1.2-6,7.4-18.1,21.4-41.3c9.5-15.8,15.7-30,19.6-43.7c2.4-8.4,3.2-12.3,4.9-24.2h1.7c-1.7,12.2-2.6,16.2-5,24.7
	c-4,13.8-10.3,28.1-19.8,44.1c-13.8,23.1-20,35-21.2,40.8c-0.5,2.4-0.1,3.6,1,4.1c1,0.5,2.2,0.6,5.8,0.5c6.5,0,12.8-3.5,20.8-10
	c2.3-1.9,4.8-4,7.5-6.4c1.1-1,12.3-11.4,14.8-13.4c2.6-2.2,15.6-14.2,17.9-16.4c4-3.6,7.6-6.6,11-9.2c6.2-4.7,11.6-8,16.3-9.6
	c14.6-4.9,62.3-2,92.1,5c4.3,1,8.6,1.6,13,1.8c9.7,0.4,11.2,0.2,39.1-4.2c18.4-2.9,32.3-4.3,49.3-4.3c8.7,0,26.6,0.5,25.1,0.5
	c4.8,0.1,6.4-0.3,7.2-1.4c0.4-0.5,0.7-1.3,1-2.8l0.5-2.4l0.7-3.1c1.5-6,3.9-12.4,8.3-20.4c3.1-5.7,5.7-11.7,7.9-17.9L498.9,0
	L498.9,0z M484.6,0c-9.8,29.9-15.9,36.7-32.9,36.7c-7.5,0-17,0.5-47.8,2.5l-2.5,0.2c-26,1.6-39.1,2.3-48,2.3
	c-8.9,0-22.1-1.6-48.1-5.5l-2.6-0.4C272,31.3,262.5,30,255,30c-7.4,0-12.2,1.7-18.3,5.6c-0.2,0.1-3,1.9-3.8,2.4
	c-4,2.5-7.2,3.6-11.2,3.6c-4.7,0-6.8-2.4-6.8-7c0-1.7,0.3-3.8,0.8-6.8c0.3-1.4,1.5-7.3,1.8-8.9c1.3-6.8,2.2-12.8,2.4-18.9h3.3
	c-0.3,6.4-1.1,12.5-2.5,19.6c-0.3,1.6-1.5,7.5-1.8,8.8c-0.4,2-0.7,4.1-0.8,6.2c0,2.8,0.8,3.7,3.5,3.7c3.3,0,5.9-0.9,9.5-3.2
	c0.8-0.5,3.6-2.3,3.8-2.4c6.6-4.2,11.9-6.1,20.1-6.1c7.7,0,17.2,1.2,48.2,5.8l2.5,0.4c25.8,3.8,38.9,5.4,47.6,5.4
	c8.7,0,21.8-0.7,47.7-2.3l2.6-0.2c30.9-2,40.4-2.5,48-2.5c14.9,0,20.2-5.7,29.4-33.3H484.6z M235.9,0h1.9c-3.4,6.4-4.4,8.5-4.6,10.3
	c-0.2,1.9,0.7,2.7,3.9,3.3c3,0.5,6.4,0.6,18,0.6c10,0,21.7,0.9,35.6,2.7c6.6,0.8,13.4,1.8,21.9,3.1c40,6.2,37.5,5.8,44.7,5.8
	c40,0,86.4-3.7,100.7-11.6c4.8-2.6,8.4-7.5,11-14.3h1.8c-2.7,7.4-6.6,12.8-12,15.7c-14.7,8-61.1,11.8-101.5,11.8
	c-7.3,0-4.7,0.4-45-5.8c-8.5-1.3-15.3-2.3-21.8-3.1c-13.8-1.8-25.4-2.7-35.4-2.7c-11.7,0-15.2-0.1-18.3-0.6c-4-0.7-5.6-2.2-5.2-5.1
	C231.7,8.1,232.6,6.1,235.9,0L235.9,0z M363.2,0c9.5,2.7,17.3,4.2,23.5,4.2c16,0,27.8-1.2,37.3-4.2h5c-10.4,4.2-23.6,5.8-42.3,5.8
	c-7.5,0-17.2-2-29.2-5.8H363.2L363.2,0z M117.8,0c-4.8,5.4-11.6,9-20,10.9c-6.6,1.5-12.5,1.8-21.5,1.7c-1,0-1.9,0-2.9,0
	c-8.9,0-14.8-2.1-16.8-8.3c-0.4-1.4-0.7-2.8-0.7-4.2h1.6c0,1.4,0.2,2.6,0.6,3.7c1.8,5.3,6.9,7.1,15.2,7.1l2.9,0
	c8.9,0.1,14.7-0.2,21.1-1.6c7.5-1.7,13.6-4.7,18.1-9.2H117.8L117.8,0z M0,346.5c12.2-0.3,19.2,5.5,19.2,18.5
	c0,19-8.4,47.2-19.2,69.2v-3.8c9.9-21.2,17.5-47.4,17.5-65.3c0-12-6.2-17.2-17.5-16.9V346.5L0,346.5z M0,358.2c2,0.2,3.6,1,4.8,2.2
	c2.3,2.5,2.7,6.2,1.9,12.6l-0.3,2.2c-0.4,2.1-0.6,4.3-0.6,6.5c0,5.3-2.5,15.9-5.8,26.5v-5.7c2.5-8.5,4.2-16.4,4.2-20.7
	c0-1.6,0.1-2.9,0.6-6.7l0.3-2.1c0.7-5.9,0.4-9.3-1.5-11.3c-0.8-0.9-2-1.4-3.6-1.7V358.2z M0,684.8v-2.4c2-2.4,3.6-5,4.9-7.8
	c2.2-4.5,4.5-10.5,7.6-19.8c13.1-39.2,13-44.3,0.4-50.7c-3.7-1.9-8-2.4-13-1.5v-1.7c4.6-0.9,9.4-0.3,13.7,1.7
	c13.7,6.9,13.8,12.7,0.4,52.7c-3.1,9.4-5.4,15.4-7.7,20C4.9,678.8,2.7,682,0,684.8z M56.1,753.3c2.8,0,5.1-0.4,13.9-2.2l4-0.8
	c13.8-2.6,21.2-2.2,24.2,3.9c2.3,4.6-0.8,9.8-7.9,16.1c-2.7,2.4-5.5,4.6-8.5,6.8c-1.6,1.2-8.1,6-9.6,7.1c-3.1,2.3-4.9,3.9-5.8,5
	c-2.1,2.8-3.7,5.9-4.8,9.2c0.1-0.3-6.7,22.7-11.6,37c-4.5,13.1-9.3,17.9-14.7,14.3c-3.5-2.3-6.1-7.1-11-18.4
	c-3.3-7.7-4.2-9.6-5.7-12.3c-7.6-13.6-6.5-39.8-0.1-54.8c1.9-5.1,6.3-8.8,11.6-9.9c4.3-1.1,8.1-1.2,19.6-1.1L56.1,753.3L56.1,753.3z
	 M56.1,756.7c-1.9,0-3.5,0-6.4,0c-20.1-0.2-24.7,1-28.2,9c-6,14.1-7.1,39.2-0.1,51.9c1.6,2.9,2.5,4.8,5.8,12.6
	c4.5,10.5,7.1,15.1,9.8,16.9c2.7,1.8,5.8-1.3,9.7-12.6c4.1-12.3,8-24.6,11.6-37.1c1.2-3.6,3-7,5.3-10.1c1.1-1.4,3.1-3.2,6.4-5.7
	c1.5-1.2,8.1-5.9,9.7-7.1c3.4-2.5,6-4.6,8.2-6.6c6-5.4,8.5-9.5,7.2-12.1c-2-4-8.4-4.4-20.6-2.1l-3.9,0.8
	C61.5,756.3,59.2,756.7,56.1,756.7L56.1,756.7z M632.1,1000c-5.7-20.4-6.3-23.5-6.3-31.7c0-5.5-0.2-10.4-0.7-18.9
	c-1-17.2-1.1-22.5,0.4-28.4c2-7.9,7-11.8,16.1-11.8H685c6.8,0,8.6,3.1,9.9,11.8c0.2,1.3,0.2,1.6,0.3,2.2c1.4,8.9,4.7,12.6,14.8,12.6
	c6.1,0,9.2,0.7,10.7,2.3c1.3,1.4,1.3,2.4,0.6,6.5c-1.4,8.8,0.8,14.7,12.5,23c10.5,7.4,19.4,8.9,27.6,5.6c6.3-2.6,11.2-6.9,19.9-16.7
	l1.8-2l1.8-2c1.5-1.6,3-3.2,4.5-4.8c4.7-4.6,10.1-8.4,15.9-11.2c2.5-1.3,2.9-1.4,9.4-4.4c10.2-4.5,15-7.5,19.6-12.7
	c4.4-5,7.8-8.1,11.2-10.1c5.3-3.1,9.1-3.5,22.8-3.5c10,0,17.6-7.2,30-25l4.7-6.7c1.8-2.5,3.2-4.5,4.6-6.3
	c13.1-16.9,32.3-17.3,51.2,1.6c9.2,9.2,16.9,32.4,22.7,64.2c4.2,22.9,7,49.1,7.4,66.4h-1.7c-0.5-17.2-3.3-43.3-7.4-66.1
	c-5.7-31.4-13.4-54.4-22.3-63.3c-18.2-18.2-36.3-17.8-48.8-1.7c-1.4,1.8-2.8,3.8-4.6,6.2l-4.7,6.7c-12.7,18.2-20.6,25.7-31.4,25.7
	c-13.4,0-17,0.4-21.9,3.3c-3.2,1.9-6.5,4.8-10.7,9.7c-4.8,5.4-9.8,8.5-20.1,13.1c-3.2,1.4-6.3,2.8-9.4,4.3
	c-5.7,2.8-11,6.4-15.5,10.9c-2.2,2.2-4.3,4.4-6.2,6.7l-1.8,2.1c-8.8,9.9-13.8,14.4-20.5,17.1c-8.8,3.5-18.2,1.9-29.2-5.8
	c-12.2-8.6-14.7-15.2-13.2-24.6c0.6-3.5,0.6-4.3-0.2-5.2c-1.1-1.1-3.9-1.7-9.5-1.7c-11,0-14.9-4.4-16.4-14l-0.3-2.2
	c-1.1-8-2.5-10.4-8.2-10.4h-43.3c-8.3,0-12.7,3.4-14.5,10.6c-1.5,5.7-1.4,10.9-0.4,27.9c0.4,6.3,0.7,12.7,0.7,19
	c0,8,0.5,11,6.3,31.7L632.1,1000L632.1,1000z M654.9,1000c-2.2-11-2.7-17.8-2.3-24.7c0.1-1.2,0.2-2.4,0.3-4l0.4-4.3
	c0.6-6.3,0.8-11.6,0.8-18.7c0-8.2,2.4-12.9,7-14c4-1,9.3,0.9,15.3,5c11.1,7.5,23.3,21.8,27.6,32c7.9,19.1,23.5,26.1,55.9,26.1
	c14.3,0,23.9-3.9,34.4-13.1c2.4-2.1,25.1-25,35-33.3c12-10.1,19.6-12.6,34.4-13.9c9.2-0.8,13.3-1.5,19.1-3.9
	c7.6-3.2,15.6-9.1,24.8-18.8c12.4-12.9,22.1-14.9,29.1-7.2c5.5,6,9.1,17.6,11.4,33.7c1.2,8.6,1.6,12.9,2.6,29
	c0.4,6.2,0.3,8.9-1.5,30h-1.7c1.8-21.2,1.9-23.8,1.5-29.9c-1.1-16-1.4-20.3-2.6-28.8c-2.2-15.8-5.7-27.1-10.9-32.8
	c-6.3-6.8-14.9-5.1-26.7,7.2c-9.4,9.8-17.6,15.8-25.4,19.2c-6,2.5-10.2,3.3-19.3,4.1c-14.7,1.2-21.9,3.6-33.7,13.5
	c-9.8,8.3-32.5,31.2-35,33.3c-10.9,9.5-20.8,13.5-35.5,13.5c-33,0-49.2-7.4-57.4-27.2c-4.1-9.9-16.2-24-27-31.3
	c-5.7-3.9-10.6-5.6-14-4.8c-3.7,0.9-5.7,4.9-5.7,12.4c0,7.1-0.3,12.4-0.8,18.8l-0.4,4.3c-0.2,1.5-0.2,2.8-0.3,3.9
	c-0.4,6.8,0.1,13.6,2.3,24.6L654.9,1000L654.9,1000z M844.5,1000c4.2-5.4,14.9-19.6,18.2-23.8c9.1-11.6,21.7-20.6,32.3-23.2
	c11.7-2.8,19.2,2.4,19.2,15.4c0,6.7-0.1,8.6-1.2,31.7h-1.7c1.2-23.1,1.2-25,1.2-31.7c0-11.9-6.4-16.4-17.1-13.8
	c-10.2,2.5-22.5,11.3-31.4,22.6c-3.1,3.9-12.7,16.8-17.4,22.8H844.5L844.5,1000z M828.1,435.1c5.7,4.5,11.7,8.5,19.1,12.9
	c1.8,1.1,14,8.2,17.2,10.2c18.8,11.7,25,22.2,20.6,42.2c-2.4,10.9-7.5,18.5-15.6,24.1c-6.4,4.4-13.4,7.1-26.8,10.9
	c-19.9,5.7-22.8,6.6-31.4,10.5c-4.5,2-8.9,4.3-13,7c-18.5,11.8-31.8,12.8-46.6,5.5c-5.9-2.9-28.7-18.3-28.7-18.3
	c-2.8-1.8-5.7-3.5-8.7-5.1c-26.7-14.7-57.1-40.3-57.5-53.1c-0.2-5.8,3.3-10.9,10.5-17.1c1.7-1.5,3.6-3,6.1-4.9
	c1.2-0.9,5.6-4.3,6.6-5c7.4-5.7,12-9.6,15.5-14.1c18.5-23,44.2-47.8,57.3-53.8c20.1-9.2,33.1-9.6,45.6,0.2
	c5.4,4.2,9.4,10.9,14.3,22.2c0.5,1.1,3.8,9.1,4.8,11.2c2.7,6.1,4.8,9.7,7.1,11.6C825.6,433.1,826.8,434.1,828.1,435.1L828.1,435.1z
	 M822.2,434.6c-2.7-2.3-5-6.2-7.9-12.7c-1-2.2-4.3-10.2-4.8-11.3c-4.7-10.8-8.5-17.2-13.3-20.9c-11.4-8.9-23.1-8.6-42.2,0.2
	c-12.4,5.7-37.8,30.2-56.1,52.9c-3.8,4.7-8.5,8.8-16.1,14.6l-6.6,5c-2,1.5-4,3.1-6,4.8c-6.4,5.5-9.4,10-9.3,14.5
	c0.3,11.1,30.2,36.2,55.8,50.2c2.9,1.6,5.8,3.3,8.8,5.2c0.2,0.1,22.7,15.4,28.4,18.2c13.7,6.8,25.8,5.9,43.3-5.3
	c4.3-2.7,8.8-5.1,13.4-7.2c8.7-3.9,11.7-4.8,31.8-10.6c13-3.7,19.8-6.4,25.8-10.5c7.4-5.1,12-12,14.3-22
	c4.1-18.4-1.4-27.7-19.1-38.7c-3.2-2-15.4-9-17.2-10.1c-7.5-4.5-13.5-8.5-19.4-13.2C824.7,436.7,823.5,435.7,822.2,434.6
	L822.2,434.6z M146.2,402.7c7.2-5,13.1-8.3,20.2-11.6c1.4-0.7,2.9-1.3,4.6-2.1l7.3-3.1c10.1-4.4,20-9.4,29.6-14.9
	c15.1-8.8,30.6-16.9,46.4-24.2c7-3.2,36.5-16.4,35.3-15.9c31.9-14.4,46.8-11.5,82.5,13.4c13.2,9.2,22.1,22.1,27.4,37.8
	c5,14.7,6.3,27.5,6.3,46.2c0,13.9-1.1,21.6-6.1,31.6c-7,13.9-20.5,26.9-42.6,39.1c-40.7,22.5-64.7,45.9-88,79.7
	c-14.7,21.3-79.6,73.7-108.6,90.2c-35.3,20.2-78.9,36.8-108.7,36.8c-16.7,0-24.4-8-24.6-22.3C27,673,30.5,660.7,37.6,643
	c4.9-12.3,3.4-21.5-3.6-37.1c-5.3-11.9-6.5-15.2-6.5-20.9c0-5.6,3.1-11.5,9.2-18.4c4.3-5,5.8-6.4,19.8-19.2
	c8.5-7.8,13.5-12.7,17.8-17.9c15.8-18.9,21-32.4,29.8-74.6c5.2-25.1,11-33.8,25.2-42.1c1.3-0.8,6.6-3.7,7.8-4.5
	C140.3,406.5,143.3,404.7,146.2,402.7L146.2,402.7z M147.1,404c-2.9,2-6,3.9-9.1,5.7l-7.8,4.4c-13.7,8-19.3,16.3-24.4,41
	c-8.8,42.4-14.2,56.2-30.2,75.3c-4.4,5.3-9.5,10.3-18,18.1c-13.9,12.7-15.4,14.1-19.7,19c-5.8,6.7-8.8,12.3-8.8,17.4
	c0,5.3,1.1,8.5,6.3,20.2c7.1,16,8.7,25.6,3.6,38.4c-7,17.4-10.5,29.6-10.4,39.9c0.1,13.4,7.1,20.6,22.9,20.6
	c29.4,0,72.8-16.5,107.9-36.5c28.8-16.5,93.5-68.7,108.1-89.7c23.5-34,47.6-57.6,88.6-80.3c21.9-12,35.1-24.8,41.9-38.4
	c4.9-9.8,5.9-17.2,5.9-30.9c0-18.5-1.2-31.2-6.2-45.7c-5.2-15.4-13.9-27.9-26.8-36.9c-35.2-24.7-49.5-27.4-80.8-13.2
	c1.2-0.5-28.3,12.6-35.3,15.8c-2.8,1.3-5.5,2.6-8.1,3.8c-13,6.2-25.8,13-38.2,20.3c-9.6,5.6-19.5,10.6-29.7,15l-7.3,3.1
	c-1.7,0.7-3.2,1.4-4.6,2C160.1,395.8,153.4,399.6,147.1,404z M134.5,424.4c12.8-10.4,20.5-13.6,39.5-18.8
	c10.2-2.8,15.2-4.9,20.5-9.5c6.3-5.5,12.4-7.5,26.4-10.2c4.6-0.9,6.1-1.2,8.4-1.7c9.1-2.1,15.8-4.9,21.8-9.8
	c17.4-14.2,42.3-23.5,60.5-23.5c8.9,0,27.9,12.6,42.9,28.6c17.9,19.1,26.6,38.8,21.2,54.2c-5.3,15.2-19,30.9-38.4,46.4
	c-14.1,11.2-30.6,21.7-42,27.4c-6.2,3.1-11,8.1-16.3,16.6c-1.1,1.8-18.5,33.7-26.7,46.4c-9.4,14.4-25.7,28.9-50.4,46.6
	c-5.1,3.6-10.2,7.2-15.3,10.7c-0.2,0.1-11.3,7.7-14.3,9.8c-10.8,7.4-17.2,12.2-21.7,16.4c-19.4,17.8-61.9,25.9-72.8,15
	c-3.3-3.3-3.7-6.8-3.2-17.5c0.6-15.7-0.8-24.2-8.2-34.2c-3.3-4.4-7.3-8.3-11.7-11.5c-6.5-4.9-10.1-10.2-10.9-15.8
	c-1.6-11,6.4-21.8,23.6-36.1c2.6-2.2,11.1-9.1,11.8-9.6c3.1-2.4,6-5.1,8.7-7.9c6.8-7.7,9.7-15.9,13-33.4c0.5-2.4,0.9-4.9,1.3-7.3
	c0.5-3.1,1-5.5,1.5-7.9c1.2-6.3,2.5-12,4-17.7c1.7-6.3,2.3-9.2,3.9-17.3c1-5,1.5-7,2.6-9.1C116.1,439.3,116.2,439.2,134.5,424.4
	L134.5,424.4z M135.5,425.7c-17.9,14.6-18.1,14.7-20,18.5c-1,1.9-1.5,3.8-2.4,8.7c-1.6,8.1-2.3,11-3.9,17.4
	c-1.5,5.7-2.7,11.3-4,17.6c-0.8,3.9-1.5,7.7-2.1,11.6l-0.6,3.6c-3.3,17.8-6.3,26.2-13.4,34.2c-2.8,2.9-5.7,5.6-8.9,8.1
	c-0.7,0.6-9.2,7.4-11.8,9.6c-16.7,14-24.5,24.4-23,34.6c0.7,5.2,4.1,10,10.3,14.7c5,3.7,9,7.7,12.1,11.9c7.7,10.4,9.2,19.2,8.6,35.2
	c-0.4,10.2,0,13.5,2.8,16.3c10.2,10.2,51.7,2.2,70.5-15c4.6-4.2,11.1-9,21.9-16.5l14.3-9.8c6-4.1,10.7-7.4,15.3-10.7
	c24.5-17.6,40.7-32,49.9-46.2c8.2-12.6,25.5-44.5,26.7-46.3c5.4-8.8,10.4-14,17-17.3c11.3-5.7,27.7-16,41.7-27.2
	c19.2-15.3,32.7-30.9,37.9-45.7c5.1-14.6-3.4-33.8-20.9-52.5c-14.7-15.7-33.4-28.1-41.7-28.1c-17.8,0-42.4,9.2-59.5,23.1
	c-6.3,5.1-13.2,8-22.5,10.1c-2.3,0.5-3.9,0.8-8.5,1.7c-13.7,2.6-19.6,4.5-25.6,9.8c-5.6,4.8-10.7,7-21.2,9.9
	C155.6,412.3,148.1,415.4,135.5,425.7L135.5,425.7z M353.3,419.8c0,12.6-1,18.2-4.3,23.8c-1.8,3.1-12.8,16.7-14.3,18.8
	c-9.9,13.2-15.5,17.1-28.8,22.9c-2.2,1-3.7,1.7-5,2.5c-0.9,0.5-2,1.1-3.3,1.7c-1.2,0.5-7.4,3.2-9.2,4c-10.1,4.6-15,9.7-15,17.9
	c0,18.3-31.6,60.2-57.5,74.8c-13.6,7.7-35.5,15.6-54.6,19.8c-22.2,4.8-37.5,4.1-41-3.9c-2.2-4.9-7.3-7.1-20-9.7l-1-0.2
	c-8.1-1.6-11.6-2.6-15-4.4c-4.9-2.5-7.5-6.2-7.5-11.4c0-4.6,1.8-9.6,5.4-16.1c1.4-2.5,3-5.2,5.4-8.9c-0.3,0.4,4.7-7.3,6.1-9.6
	C104.7,524,110,511,110,496.4c0-30.7,18.7-55.6,45.8-71.4c8.7-5.1,15.4-5.5,25.3-3.5c8.4,1.7,10.1,1.5,12.4-2.5
	c7.5-13.1,11.7-15.8,26.4-15.8c6.5,0,11.6-1.6,17.4-5.3c2.6-1.6,14.4-10.3,18.3-12.8c15.3-10,18.9-11.7,42-19.9
	c11.6-4.1,25.3,2.1,37.2,15.2C345.9,392.3,353.3,408,353.3,419.8L353.3,419.8z M350,419.8c0-10.8-7.1-25.8-17.5-37.2
	c-11.1-12.2-23.6-17.9-33.6-14.3c-22.9,8.2-26.2,9.7-41.3,19.6c-3.7,2.4-15.6,11.1-18.3,12.8c-6.3,3.9-12,5.8-19.2,5.8
	c-13.5,0-16.6,2-23.5,14.2c-1.8,3.2-4.2,4.8-7.2,5.1c-2.2,0.2-3.2,0.1-8.7-1c-9.2-1.8-15.1-1.5-23,3.1
	c-26.2,15.3-44.2,39.2-44.2,68.6c0,15.3-5.5,28.8-16.9,47.1l-6.1,9.6c-2.3,3.6-3.9,6.3-5.3,8.7c-3.4,6-5,10.6-5,14.5
	c0,7,4.8,9.4,19.8,12.5l1,0.2c13.8,2.8,19.5,5.2,22.3,11.6c5.3,11.9,60,0,91-17.4c25-14,55.8-55,55.8-71.9c0-9.8,5.8-15.8,16.9-20.9
	c1.8-0.8,8.1-3.5,9.2-4c1.2-0.6,2.2-1.1,3-1.5c1.5-0.9,3.1-1.7,5.4-2.7c12.7-5.6,17.9-9.2,27.4-21.9c1.7-2.3,12.4-15.7,14.1-18.5
	C349.1,436.9,350,431.8,350,419.8L350,419.8z M288,382.4c0.2-0.2,4-2.5,4.9-3.1c1.6-0.9,2.8-1.6,4-1.9c4.3-1.4,8.4-0.2,18.4,5.2
	c24.8,13.3,32.4,38.1,15.3,64.5c-6.7,10.4-15.6,15-31.2,18.5c-1.4,0.3-2,0.4-5.2,1.1c-10.1,2.1-14.6,3.5-19.3,6.1
	c-6,3.4-10.1,8.3-12.5,15.7c-13.1,41.5-32.9,72.2-60.5,83.8c-27.4,11.5-35.2,14.2-46.6,14.8c-8.2,0.4-16.3-1.1-25.7-4.8
	c-3.2-1.2-6.4-2.7-9.4-4.3c-6.7-3.9-8.6-7.9-7.5-15.5c0.5-3.5,6.3-25.9,8.1-34.4c1-5.1,2-10.2,2.9-16.1c0.8-4.9,1.5-9.9,2.2-14.8
	c2.4-15.7,4.2-23.8,7.5-31.1c4.1-9,10.2-15,19.5-18.5c11-4.1,17.6-5.2,30-5.9c7.9-0.4,11.1-1.1,15-3.4c1-0.6,2-1.3,3-2.2
	c2-1.7,3.9-3.6,5.6-5.7c1-1.1,4-4.8,4.4-5.3c5.6-6.7,10.5-9.2,20.5-9.2c6.6,0,9.8-1.5,13.6-5.6c-0.3,0.3,4.6-5.2,6.4-7
	c3.4-3.3,7.2-6.1,11.3-8.3c2.5-1.4,5.2-2.7,8.3-4C277.1,388.6,282.7,385.7,288,382.4L288,382.4z M263.8,396.3
	c-4,2.2-7.7,4.9-10.9,8.1c-2.2,2.3-4.3,4.6-6.4,7c-4.1,4.4-7.8,6.1-14.8,6.1c-9.5,0-14,2.3-19.3,8.6c-0.4,0.5-3.4,4.2-4.4,5.3
	c-1.8,2.1-3.7,4.1-5.8,5.8c-1.1,0.9-2.2,1.7-3.3,2.4c-4.2,2.5-7.6,3.2-15.8,3.6c-12.3,0.7-18.7,1.7-29.5,5.8
	c-8.9,3.3-14.7,9-18.6,17.7c-3.2,7.1-5,15.1-7.3,30.6l-1.1,7.2l-1.2,7.6c-0.9,5.9-1.9,11.1-2.9,16.2c-1.8,8.6-7.6,30.9-8,34.3
	c-1,6.9,0.6,10.3,6.7,13.8c2.2,1.3,5.2,2.6,9.2,4.2c9.1,3.6,17,5.1,24.9,4.7c11.1-0.6,18.9-3.2,46.1-14.7
	c27-11.4,46.5-41.7,59.5-82.8c2.5-7.8,6.9-13.1,13.3-16.7c4.9-2.7,9.6-4.1,19.8-6.3c3.2-0.7,3.8-0.8,5.2-1.1
	c15.2-3.4,23.7-7.8,30.2-17.8c16.5-25.6,9.2-49.2-14.7-62.1c-9.6-5.2-13.4-6.3-17.1-5.1c-1.1,0.3-2.2,0.9-3.7,1.8
	c-0.9,0.5-4.6,2.9-4.9,3c-5.4,3.4-11.1,6.2-16.9,8.6C269,393.7,266.3,395,263.8,396.3L263.8,396.3z M193.2,450.9
	c26.9-4.8,43.9-1.6,54.1,10.3c8.5,9.9,1.9,35.7-9.9,59.2c-8,16-17.7,27-38.6,42c-23.6,16.8-59.2,20.3-67.8,6.4
	c-3.1-4.9-3.5-13.6-1.8-26.2c1.3-9.5,3.1-17.8,7.9-38.3l0.2-0.9c2.6-11.3,3.9-17.2,5.2-23.6c2.4-12.1,6.2-19.1,12.1-22.9
	c4.7-3,9.2-3.8,20.5-4.4C184.1,452.1,187.8,451.8,193.2,450.9L193.2,450.9z M193.5,452.5c-5.5,1-9.3,1.3-18.2,1.7
	c-11,0.5-15.4,1.3-19.7,4.1c-5.4,3.5-9,10.1-11.4,21.8c-1.3,6.4-2.6,12.2-5.2,23.6l-0.2,0.8c-4.8,20.4-6.5,28.8-7.8,38.2
	c-1.7,12.3-1.3,20.6,1.5,25.1c8,12.8,42.6,9.4,65.5-6.9c20.7-14.8,30.2-25.6,38.1-41.3c11.4-22.9,17.9-48.3,10.1-57.4
	C236.3,450.9,219.9,447.8,193.5,452.5z M220,460.8c11.9,0,17.8,5.1,18.7,14.5c0.7,6.7-0.7,13.6-4.6,26.6
	c-4.3,14.2-30.6,42.3-45.3,52.1c-11.7,7.8-33.4,9.4-44.3,1.6c-6.6-4.7-5.9-20.1,0-44.1c1.1-4.6,2.4-9.4,3.9-14.6
	c1.6-5.7,3.3-11.3,5.1-16.9l0.6-2c2.5-8,8.5-12.9,17.9-15.4c7.3-2,15.9-2.5,29.1-2.2l6.5,0.2C214.2,460.8,216.7,460.8,220,460.8z
	 M220,462.5c-3.3,0-5.9-0.1-12.3-0.2l-6.5-0.2c-13.1-0.3-21.5,0.2-28.7,2.2c-8.9,2.4-14.4,6.9-16.7,14.3c-0.9,2.9-1.8,5.8-2.7,8.7
	c-1.1,3.7-2.1,6.9-3,10.2c-1.5,5.2-2.8,10-3.9,14.5c-5.7,23.1-6.4,38.2-0.7,42.3c10.3,7.4,31.2,5.7,42.4-1.7
	c14.4-9.6,40.5-37.5,44.7-51.2c3.8-12.8,5.2-19.5,4.5-25.9C236.2,467,231,462.5,220,462.5L220,462.5z M190.4,474.2
	c4.8,0.1,9.7,0.9,14.3,2.3c9,3,14.5,8.4,14.5,16.8c0,16-15.8,28.7-37.2,35.8c-16.4,5.5-22.7-3-19.4-27.6
	c1.4-10.5,6.4-17.8,13.7-22.4C180.5,476.4,185.3,474.8,190.4,474.2z M189.4,476c-4.3,0.7-8.5,2.2-12.2,4.5
	c-7,4.4-11.6,11.3-12.9,21.3c-3.1,23.5,2.3,30.7,17.2,25.8c20.8-6.9,36.1-19.2,36.1-34.2c0-7.6-5-12.5-13.4-15.2
	c-4.4-1.4-9-2.2-13.7-2.2C190.2,475.8,189.9,475.9,189.4,476z M324.1,436.9c-4.5,16.3-24.9,16.4-44.5,5.5c-16.9-9.4-23-30-8.3-38.1
	c2.5-1.4,5-2.9,7.5-4.5l3.4-2.2c2.1-1.4,4.3-2.7,6.5-3.8c7.9-4,14.7-4.7,23.3-1.2C327.2,398.7,330.3,414.8,324.1,436.9L324.1,436.9z
	 M289.4,395.3c-2.2,1.2-4.3,2.4-6.4,3.7l-3.4,2.2c-1.4,0.9-2.5,1.6-3.6,2.2c-1.4,0.8-2.7,1.6-4,2.3c-13.2,7.3-7.6,26.3,8.3,35.2
	c18.8,10.5,38,10.4,42.1-4.5c5.9-21.4,3.1-36.6-11.2-42.3C303.2,390.9,296.9,391.4,289.4,395.3L289.4,395.3z M319.2,415.5
	c0,9.5-4.1,15-11.1,16.6c-5.5,1.3-12.6-0.1-18.5-3l-3.1-1.6c-1.1-0.6-2-1-2.7-1.5c-6.8-4-6.9-8.3,0.6-18.2
	C295.7,392.7,319.2,395.9,319.2,415.5L319.2,415.5z M317.5,415.5c0-8.8-4.8-14.2-12.2-15.3c-7-0.9-15,2.4-19.6,8.6
	c-6.9,9.2-6.8,12.4-1.1,15.8c0.7,0.4,1.5,0.8,2.6,1.4l3.1,1.5c5.6,2.8,12.3,4.1,17.4,2.9C313.9,429.1,317.5,424.3,317.5,415.5
	L317.5,415.5z M645,883.8c0-21.3,4.1-27.9,30.8-49.6c4-3.2,8.2-6.1,12.7-8.7c4.3-2.5,8.9-4.7,14.2-7c2.1-0.9,4.1-1.7,6.8-2.8
	l6.5-2.6c15.7-6.4,22.9-11.2,27.7-20.1c2-3.7,3.7-7.3,5.4-11.4c0.9-2.1,1.7-4.3,2.6-6.4l0.5-1.2l0.9-2.4
	c5.3-13.4,10.1-20.1,21.2-27.5c3-2,5.7-4.2,8.3-6.7c2.3-2.2,4.5-4.6,6.5-7.1c0.5-0.6,4.2-5.3,5.3-6.6c5.8-6.9,10.8-9.8,19.2-9.8
	c5.1,0,9.4-1,15.9-3.5c9-3.4,10.9-3.9,14.9-3.7c4.2,0.2,8.1,2.1,12,6c2.2,2.2,9.2,9.7,10.9,11.3c8.4,8.3,15.7,11.5,29.6,11.5
	c6.7,0,13.4,0.3,20.1,0.8c26.5,1.4,36.6,1,42.1-3.7c11.5-9.6,19.4-4.5,19.4,12.9c0,17.9-14.3,33.3-31.7,33.3c-8,0-13.9,2.4-15.6,6.1
	c-1.9,4.1,1.1,10.2,10,17.6c22.7,18.9,18.7,34.6-12.7,34.6c-8.9-0.2-17.6,3-24.3,8.7c-5.5,4.5-9.7,9.8-16.4,19.7l-2.5,3.7
	c-5.2,7.6-8.3,11.8-12.2,15.7c-10.3,10.3-15.5,12.7-21.7,11.5l-1.7-0.4c-1.4-0.4-2.9-0.6-4.4-0.6c-2.7,0-4,1.1-13.6,10.4
	c-8.1,7.8-13.4,11.3-19.7,11.3c-2.2,0-5.8,1.9-10.7,5.7c-2.1,1.6-4.5,3.6-7.5,6.2l-8.2,7.1c-2.5,2.2-5,4.3-7.6,6.4
	c-15.5,12.6-26,17-33.7,10.9c-4.5-3.6-6.9-7.5-7.7-12.1c-0.6-3.4-0.4-6,0.5-12.2c1.4-9.7,1.1-14-3-19.3c-3.9-5-4.9-5.4-6.3-4
	c-0.4,0.4-2.2,2.7-2.7,3.2c-3.7,4.2-8.1,5.9-15,4.7c-7.7-1.4-9.3-6.8-7.9-16.8l0.4-2.6c1-6.1,1.1-8.2,0.4-9.7
	c-0.7-1.4-3.2-1.6-8.7,0.7l-1.2,0.5c-23,9.2-25.4,10.1-32.4,11.1C650.5,898.4,645,894.3,645,883.8L645,883.8z M648.3,883.8
	c0,8.3,3.6,11,11.7,9.9c6.5-0.9,9-1.8,31.6-10.9l1.2-0.5c6.9-2.8,11.2-2.6,12.9,1c1.2,2.4,1,4.6-0.1,11.7l-0.4,2.5
	c-1.2,8.4-0.1,12.1,5.1,13.1c5.7,1,9-0.3,11.9-3.6c0.3-0.4,2.2-2.8,2.8-3.3c3.2-3.3,6.4-2.1,11.3,4.2c4.8,6.2,5.3,11.3,3.7,21.9
	c-1.7,11.2-0.9,15.7,6,21.2c5.8,4.7,15.2,0.8,29.5-10.8c2.2-1.8,4.6-3.8,7.5-6.3l8.2-7.2c3.1-2.6,5.4-4.6,7.6-6.3
	c5.6-4.3,9.6-6.4,12.8-6.4c5.1,0,9.9-3.2,17.4-10.4l4.1-4c1.6-1.5,2.8-2.6,3.9-3.5c3-2.5,5.5-3.8,7.9-3.8c1.7,0,3,0.2,5.2,0.7
	c1.2,0.3,1.2,0.3,1.6,0.4c4.9,1,9.1-0.9,18.7-10.5c3.7-3.7,6.8-7.7,11.8-15.2l2.5-3.7c6.9-10.2,11.3-15.6,17-20.4
	c7.4-6.3,16.8-9.7,26.5-9.5c28.1,0,31-11.7,10.6-28.7c-9.8-8.2-13.5-15.7-10.9-21.5c2.4-5.2,9.4-8.1,18.6-8.1
	c15.4,0,28.3-13.9,28.3-30c0-14.9-4.8-18-13.9-10.4c-6.6,5.5-16.6,6-44.4,4.5l-1.7-0.1c-8.5-0.4-13.3-0.7-18.2-0.7
	c-14.8,0-22.9-3.6-32-12.5c-1.7-1.6-8.8-9.2-10.9-11.3c-3.3-3.3-6.4-4.8-9.8-5c-3.4-0.2-5.1,0.3-13.6,3.4
	c-6.9,2.6-11.5,3.7-17.1,3.7c-7.2,0-11.4,2.4-16.6,8.7c-1,1.2-4.8,6-5.3,6.6c-2.1,2.6-4.3,5.1-6.7,7.4c-2.7,2.6-5.6,5-8.7,7
	c-10.4,6.9-14.8,13.2-19.9,26l-1,2.4l-0.5,1.2c-0.9,2.2-1.7,4.3-2.6,6.5c-1.6,4-3.5,7.9-5.5,11.7c-5.3,9.8-13,14.9-29.4,21.6
	l-6.5,2.6c-2.7,1.1-4.7,1.9-6.7,2.8c-4.7,2-9.4,4.3-13.8,6.8c-4.3,2.5-8.4,5.3-12.2,8.4C651.9,858,648.3,863.7,648.3,883.8
	L648.3,883.8z M870.4,750.9c5.1,2.5,10.9,3.4,17.8,2.8c4.2-0.3,8.2-1,14.7-2.5c8.9-2,10.5-2.3,13.9-2.6c4.6-0.4,8,0.3,10.5,2.3
	c2.6,2.2,3.3,4.5,2.1,7c-1.1,2.3-1.7,2.9-8.4,8.4c-5.9,4.9-8.4,8-8.4,11.8c0,12.2,2.1,16.7,13,26c6.4,5.5,9.9,11.4,8.8,16
	c-1.2,5.4-8.3,8.4-21,8.4c-12,0-21.2,7.7-33.4,24.5c-0.8,1.2-6.6,9.3-8.2,11.4c-2.3,3.3-5,6.4-7.9,9.2c-1.8,1.6-3.5,2.8-5.2,3.6
	c-4.7,2.1-8.4,2.6-16.4,2.9c-12.8,0.5-18.1,2.4-25,11.8c-2.6,3.6-5.2,6.7-7.8,9.3c-4.3,4.3-9.2,8.1-14.4,11.1
	c-0.2,0.1-17.8,10.3-24.7,14.7c-6.3,4-10.7,3.4-13.7-1.3c-2.1-3.4-3.2-7.6-4.8-17.2c-1.4-8.5-2.1-11.8-3.4-14.9
	c-1.6-3.8-3.7-5.4-6.7-4.8c-10.3,2.1-14.9,2.3-18.3,0.3c-3.9-2.3-5.2-7.7-4.4-17.9c0.3-3.3-1.7-4.8-6.3-5.1
	c-3.7-0.2-8.2,0.3-16.6,1.9l-1.1,0.2c-13.3,2.4-17.9,2.9-21.2,1.2c-4.8-2.4-2.7-8.8,7-20.3c9.1-10.9,17.7-18,26.3-22.5
	c6.2-3.3,9.9-4.4,20.3-6.8c12.1-2.9,17.3-5.8,23.4-15.5c4.9-7.9,17.9-31,20.2-34.7c6-9.4,11.3-15.2,18.4-18.9
	c4.3-2.3,7.9-4.7,15.3-10.1l2.3-1.7c13.1-9.5,20.5-13.3,29.5-13.3c7,0,10.8,2.3,15.2,7.9c0.6,0.7,2.8,3.7,3.3,4.4
	c1.4,1.8,2.7,3.3,4.1,4.7C862.5,746.2,866.2,748.9,870.4,750.9L870.4,750.9z M869.6,752.4c-4.7-2.3-8.3-5-11.5-8.3
	c-1.5-1.5-2.8-3-4.2-4.9c-0.6-0.8-2.8-3.7-3.3-4.4c-4.1-5.3-7.4-7.3-13.9-7.3c-8.5,0-15.7,3.7-28.5,13l-2.3,1.7
	c-7.5,5.5-11,7.9-15.5,10.2c-6.8,3.6-11.9,9.1-17.8,18.3c-2.3,3.6-15.3,26.7-20.2,34.7c-6.3,10.1-11.9,13.3-24.4,16.2
	c-10.2,2.4-13.8,3.5-19.9,6.7c-8.4,4.4-16.7,11.4-25.8,22.2c-9,10.8-10.9,16.1-7.6,17.8c2.8,1.4,7.5,1,20.2-1.3l1.2-0.2
	c8.5-1.5,13-2.1,16.9-1.9c5.3,0.3,8.2,2.5,7.8,6.8c-0.8,9.6,0.3,14.4,3.5,16.3c2.9,1.7,7.2,1.5,17.1-0.5c3.9-0.8,6.7,1.3,8.6,5.8
	c1.4,3.2,2.1,6.7,3.4,14.7l0.1,0.6c1.6,9.4,2.6,13.5,4.5,16.6c2.4,3.8,5.9,4.3,11.4,0.8c6.9-4.4,24.5-14.6,24.7-14.7
	c5.1-3,9.9-6.7,14.1-10.9c2.8-2.8,5.3-5.9,7.7-9.1c7.2-9.9,13-12,26.2-12.5c7.8-0.3,11.3-0.8,15.8-2.8c1.5-0.7,3.1-1.8,4.7-3.3
	c2.8-2.7,5.4-5.7,7.7-8.9c1.6-2.2,7.3-10.3,8.2-11.4c12.5-17.2,22-25.1,34.7-25.1c12.1,0,18.4-2.7,19.4-7.1
	c0.9-3.9-2.3-9.2-8.3-14.4c-11.2-9.6-13.6-14.6-13.6-27.3c0-4.4,2.7-7.9,9-13.1c6.3-5.3,7-5.9,8-7.9c0.8-1.8,0.4-3.3-1.6-5
	c-3.7-3.1-7.9-2.7-22.9,0.6c-6.5,1.4-10.6,2.2-14.9,2.5C881.1,755.9,875,755.1,869.6,752.4L869.6,752.4z M823,745.9
	c9.4-4.7,14.9-3.7,21.5,2.3c0.9,0.8,4.3,4.1,5,4.8c7,6.5,13.4,9.5,23.8,9.5c18.9,0,23.3,2.3,26.8,13.5c0.4,1.4,2.2,7.7,2.8,9.4
	c1.3,4.4,2.7,8.4,4.5,12.7c3.5,8.6,4.4,13.9,2.9,17.1c-1.3,2.7-3.5,3.6-8.9,4.6c-3.9,0.7-4.7,0.9-6.4,1.4c-3.1,1-5.6,2.3-7.7,4.4
	c-1.7,1.7-3.4,3.5-5.5,6.1c-1,1.2-4.8,5.8-5.8,6.9c-12,14.2-20.7,20.6-32.6,20.6c-6.3,0-11.6,2.1-17.6,6.7
	c-3.1,2.3-19.4,17.2-25.4,21.8c-4.7,3.6-9.7,6.9-14.9,9.8c-7.6,4.2-12.2,5.4-15,3.7c-2.2-1.3-2.8-3.4-3.2-9.2c-0.1-1-0.2-2-0.3-3
	c-0.9-7.9-3.7-11.4-11.9-11.4c-11.8,0-14.7-2-16.2-9c-1.6-7.7-3.5-11.2-10.9-16.1c-6.6-4.4-7.2-9-2.5-13.7
	c3.3-3.3,7.7-5.8,18.9-11.4c11-5.5,15.3-8,18.5-11.1c3.3-3.3,6.3-6.9,8.8-10.8c1.6-2.5,3-5.1,4.8-8.5l3.5-7.2c1.5-3,2.9-5.6,4.3-8.3
	C793.8,764,801.5,756.6,823,745.9L823,745.9z M785.7,782.1c-1.5,2.6-2.8,5.2-4.3,8.2l-3.5,7.2c-1.5,3-3.1,5.9-4.9,8.7
	c-2.6,4-5.7,7.7-9.1,11c-3.3,3.3-7.7,5.8-18.9,11.4c-11,5.5-15.3,8-18.5,11.1c-3.9,3.9-3.5,7.3,2.3,11.1c7.8,5.2,9.9,9.1,11.6,17.2
	c1.3,6.2,3.5,7.7,14.6,7.7c9.2,0,12.6,4.3,13.6,12.9c0.1,0.8,0.1,1.4,0.3,3.1c0.4,5.1,0.9,6.9,2.4,7.9c2,1.2,6.1,0.2,13.3-3.7
	c5.1-2.9,10-6.1,14.7-9.7c5.9-4.5,22.2-19.4,25.4-21.8c6.3-4.7,12-7,18.6-7c11.3,0,19.7-6.1,31.4-20l5.7-6.9
	c1.8-2.1,3.7-4.2,5.6-6.2c2.3-2.3,5.2-4,8.3-4.8c1.8-0.6,2.7-0.8,6.6-1.5c4.9-0.9,6.8-1.7,7.7-3.7c1.3-2.6,0.5-7.5-2.9-15.7
	c-1.7-4.2-3.3-8.5-4.6-12.8c-0.5-1.7-2.3-8-2.8-9.3c-3.2-10.3-6.9-12.3-25.2-12.3c-10.8,0-17.7-3.2-25-10c-0.7-0.7-4.1-3.9-5-4.8
	c-6.1-5.5-10.9-6.4-19.6-2C802.6,757.9,795.1,765.1,785.7,782.1L785.7,782.1z M878.8,801.9c-5,10.7-28,25.4-44.6,25.4
	c-8.9,0-12.6-5-11.8-13.1c0.5-5.8,3.5-13.2,6.5-17.7l2.5-3.9c1-1.5,2-3,3.1-4.5c6.1-8,13.1-12.4,22.7-12.4
	C872.4,775.8,883.6,791.7,878.8,801.9L878.8,801.9z M877.3,801.2c4.2-9.1-6.1-23.8-20-23.8c-9,0-15.5,4.1-21.4,11.8
	c-1,1.3-1.9,2.7-3.1,4.4c0,0-2,3.1-2.5,3.9c-2.9,4.3-5.8,11.4-6.3,16.9c-0.7,7.2,2.4,11.3,10.2,11.3
	C850.2,825.7,872.6,811.4,877.3,801.2L877.3,801.2z M761.2,835.8c3.5,0.3,7.4,1.3,9.8,3c3.5,2.5,3.7,6-0.4,10.1
	c-8.6,8.6-21.4,7.2-21.4-2.2C749.2,838.9,754.4,835.2,761.2,835.8L761.2,835.8z M761.1,837.5c-5.9-0.5-10.2,2.5-10.2,9.2
	c0,7.6,10.9,8.8,18.6,1.1c3.4-3.4,3.3-5.7,0.7-7.5C768,838.7,764.3,837.7,761.1,837.5L761.1,837.5z M810.4,460.9
	c7.7,3.9,28.8,13.7,32.3,15.7c4.5,2.4,8.5,5.6,11.7,9.4c2.3,2.7,4.4,5.6,6.2,8.7c4,6.3,0.1,12.8-10.3,19.4
	c-8.3,5.3-20.3,10.5-36.6,16.4c-8.1,2.9-32.7,11.1-35.2,12c-11,3.9-24.7,0.2-41.9-9.8c-6.5-3.8-13.3-8.3-21.6-14.2
	c-3.7-2.7-15.8-11.6-17.8-13.1c-4.6-3.5-9.4-6.6-14.4-9.5c-8-4.3-7.4-11.1,0.3-20.2c5.4-6.5,6.9-7.8,30.2-27.2
	c5-4.2,10-8.5,14.8-12.9c2.7-2.5,5.3-5.1,7.9-7.8c8.5-9,16.3-10.8,24.9-6.5c3.7,1.8,7.5,4.7,12.4,9.2c2.5,2.3,11.6,11.2,13.3,12.8
	C795.4,451.4,802.5,456.9,810.4,460.9L810.4,460.9z M809.6,462.4c-8.1-4.1-15.3-9.6-24.1-17.9c-1.7-1.7-10.8-10.6-13.3-12.8
	c-4.7-4.3-8.4-7.2-12-8.9c-7.9-3.9-15-2.3-23,6.2c-2.6,2.7-5.2,5.3-7.9,7.8c-4.1,3.8-8.6,7.7-14.9,12.9c-23.1,19.3-24.6,20.7-30,27
	c-7.1,8.5-7.6,14-0.8,17.7c3.7,2,8.2,5,14.6,9.6c2,1.4,14.1,10.4,17.8,13.1c6.9,5.1,14,9.8,21.4,14.1c16.8,9.7,30.1,13.3,40.5,9.6
	c2.5-0.9,27.1-9.1,35.2-12c16.2-5.8,28.1-11,36.2-16.2c9.7-6.2,13.2-11.8,9.8-17.1c-1.8-3-3.9-5.8-6.1-8.5c-3.2-3.7-7-6.8-11.3-9
	C838.4,476.1,817.4,466.3,809.6,462.4L809.6,462.4z M744.9,475.8c5.2-0.6,9.5-0.2,14,1.2c3.6,1.1,4.6,1.5,14.4,6.3
	c7.9,3.8,14,6.4,22,9.3c14,4.9,18.9,10.4,14.7,16.3c-3.5,4.9-13.4,9.9-29.7,15.3c-14.1,4.7-25.8,3.9-35.7-1.5
	c-7.7-4.2-13.9-10.8-20.2-20.5c-4.8-7.3-4.5-13.7,0.3-18.4C728.7,479.6,736,476.9,744.9,475.8L744.9,475.8z M745.1,477.5
	c-8.5,1-15.5,3.6-19.4,7.4c-4.2,4.2-4.5,9.6,0,16.3c6.2,9.5,12.2,15.8,19.7,19.9c9.5,5.2,20.7,5.9,34.4,1.4
	c16-5.3,25.7-10.2,28.9-14.7c3.2-4.6-0.8-9.1-13.9-13.7c-8.1-2.9-14.2-5.5-22.1-9.3c-9.7-4.7-10.7-5.1-14.2-6.2
	C754.1,477.2,749.5,476.9,745.1,477.5L745.1,477.5z M337.5,834c0,8-2.4,12.6-7.4,14.9c-3.8,1.7-7.6,2-18,2l-3,0
	c-15.3,0-28.3-12.7-28.3-25.8c0-12.6,17.7-17.5,32.9-9.1c4.6,2.6,7,3.2,14.3,4.6C335.4,821.9,337.5,824.3,337.5,834L337.5,834z
	 M335.8,834c0-8.8-1.5-10.6-8.1-11.8c-7.4-1.4-9.9-2.1-14.8-4.8c-14.3-7.9-30.4-3.5-30.4,7.6c0,12.2,12.3,24.2,26.7,24.2h3
	c10.1,0.1,13.8-0.2,17.3-1.8C333.7,845.3,335.8,841.3,335.8,834L335.8,834z M391.4,637.6c6.2-2.2,14.5-4.5,26.8-7.6
	c4.3-1.1,27.5-6.7,34.3-8.4c32.6-8.2,52.6-14.8,63.7-22.2c24.9-16.6,61.4-56.5,73-79.7c3.7-7.5,7.7-10.6,12.8-10.4
	c2.1,0.1,4.3,0.8,7.2,2c2,0.9,4,1.8,5.9,2.8l2.1,1c8,3.9,14,5.7,21.1,5.7c12,0,16.7,5.1,13.9,13.2c-2.3,6.8-9.9,14.8-18.5,20
	c-13.8,8.3-19.6,28.8-19.6,55.9c0,6-2.3,10.5-6.6,13.9c-3.3,2.6-7,4.3-14.1,6.9l-1.7,0.6c-8.1,2.9-11.6,4.6-14.5,7.4
	c-8.5,8.5-20.9,11.9-33.9,11.9c-2.3,0-4.1,1.5-6.6,5.2c-0.5,0.7-2.2,3.2-2.4,3.6c-4.5,6.5-8.2,9.5-14.2,9.5
	c-13.1,0-17.9,1.5-36.3,11.6c-8.6,4.7-14.7,6-24.4,6.1c-0.4,0-0.8,0-1.5,0c-8,0.1-11.9,0.5-17.5,2.2c-5.1,1.7-10,3.6-14.8,5.9
	c-3.6,1.7-17.5,8.3-17,8.1c-13,6.2-22.2,10-31.5,12.6c-20.7,5.9-31,3.7-45.7-6.8c-4.3-3.1-4.5-7.4-1.4-12.7
	c2.4-4.1,6.5-8.5,13.5-14.9l3-2.7c6.5-6,7.5-6.8,9.8-9.2c3.9-3.9,5.2-5.8,9.1-12.7c3.2-5.6,5.6-8.5,10.4-11.8
	C379.5,642.4,384.5,640,391.4,637.6L391.4,637.6z M391.9,639.1c-6.7,2.4-11.7,4.7-15.4,7.2c-4.6,3.1-6.8,5.8-9.9,11.2
	c-4,7-5.4,9.1-9.4,13c-2.4,2.4-3.3,3.3-9.9,9.3l-2.9,2.7c-6.8,6.4-10.9,10.7-13.2,14.6c-2.7,4.6-2.6,8,0.9,10.5
	c14.3,10.2,24.1,12.3,44.3,6.5c9.2-2.6,18.3-6.4,31.2-12.5c-0.5,0.2,13.4-6.5,17.1-8.1c4.9-2.3,9.9-4.3,15-6c5.8-1.8,9.8-2.2,18-2.3
	h1.5c9.5-0.2,15.3-1.4,23.7-5.9c18.6-10.1,23.7-11.8,37.1-11.8c5.3,0,8.7-2.7,12.8-8.8l2.5-3.7c2.8-4,5-5.9,8-5.9
	c12.6,0,24.6-3.3,32.7-11.4c3-3.1,6.7-4.8,15.1-7.8l1.7-0.6c14.3-5.2,19.6-9.4,19.6-19.3c0-27.7,5.9-48.7,20.4-57.4
	c8.3-5,15.6-12.8,17.8-19.1c2.4-6.9-1.4-11-12.3-11c-7.4,0-13.6-1.9-21.8-5.9c-12.5-6.1-11.3-5.6-14.5-5.7
	c-4.3-0.2-7.7,2.5-11.2,9.5c-11.7,23.4-48.5,63.6-73.6,80.3c-11.3,7.6-31.4,14.2-64.2,22.5c-6.7,1.7-30,7.3-34.3,8.4
	C406.3,634.7,398.1,637,391.9,639.1L391.9,639.1z M420,645.8c3.5,0,6.7-0.3,12.1-1.1c8.7-1.3,11.1-1.5,14.1-0.8
	c4.2,0.9,6.3,3.9,6.3,9.5c0,6.7-3.8,12.1-11,16.8c-5.4,3.5-10.9,5.9-23.6,10.7l-0.5,0.2l-3.8,1.4c-5.1,1.9-8.8,4.2-15.5,9l-1.3,1
	c-13.6,9.8-22.2,13.4-38.4,13.4c-8.3,0-11.5-3.4-9.6-9.4c1.4-4.7,6-10.9,13-18.5c2.1-2.3,4.4-4.7,6.9-7.2c5.3-5.2,18.7-17.7,19.1-18
	c0.8-0.8,1.5-1.5,2.3-2.1c5.6-4.5,9.6-5.1,23.6-4.9C416.5,645.8,418.1,645.8,420,645.8L420,645.8z M420,647.5c-1.9,0-3.5,0-6.3-0.1
	c-13.6-0.2-17.3,0.3-22.6,4.5c-0.7,0.6-1.5,1.2-2.2,2c-0.3,0.3-13.8,12.8-19.1,18c-2.3,2.3-4.6,4.7-6.9,7.1
	c-6.9,7.4-11.3,13.5-12.6,17.9c-1.5,4.8,0.7,7.2,8,7.2c15.8,0,24.1-3.4,37.4-13.1l1.3-1c6.9-4.9,10.7-7.3,15.9-9.3l3.8-1.4l0.4-0.2
	c12.6-4.7,18-7.1,23.3-10.5c6.8-4.4,10.3-9.3,10.3-15.4c0-4.8-1.6-7.1-5-7.8c-2.7-0.6-5.1-0.4-13.5,0.8
	C426.8,647.2,423.6,647.5,420,647.5L420,647.5z M607.4,571.9c-3.1,9.1-3.3,11.3-1.6,21.3c2,11.8-2.3,27.6-9.1,27.6
	c-0.8,0-1.7,0-2.5,0.1l-1.1,0.1c-4.8,0.3-8,0.3-11.6-0.3c-10.9-1.8-17.3-8.6-17.3-22.4c0-23.2,3.6-32.8,13.5-43.9
	c1.6-1.9,3-4,4.2-6.2c1-1.7,4.6-8.5,4.5-8.3c7.4-13.6,12.8-19.2,20.4-17.3c1.9,0.5,3.7,1.3,6,2.6l2.3,1.4c1.6,1,3.4,1.9,5.2,2.7
	c1.2,0.5,3,0.5,7.9,0.4l1.2,0c5.3-0.1,8,0.1,9.7,1.1c2.7,1.5,2,4.3-1.9,8.2c-2.1,2.1-4.3,4.2-6.4,6.3
	C613.1,562,609.6,565.9,607.4,571.9L607.4,571.9z M605.9,571.4c2.2-6.5,5.8-10.3,23.8-27.4c2.6-2.4,4.5-4.4,6.4-6.2
	c3.2-3.2,3.6-4.8,2.2-5.5c-1.4-0.8-3.9-1-8.9-0.9l-1.2,0c-5.2,0.1-7.1,0-8.6-0.6c-1.8-0.7-3.3-1.5-5.4-2.8l-2.3-1.4
	c-1.7-1.1-3.6-1.9-5.5-2.4c-6.5-1.6-11.5,3.6-18.5,16.5c0.1-0.2-3.6,6.6-4.5,8.4c-1.2,2.3-2.7,4.5-4.4,6.5
	c-9.7,10.8-13.1,20-13.1,42.8c0,13,5.8,19.1,15.9,20.7c3.3,0.5,6.5,0.6,11.2,0.3c0.7,0,1.4-0.1,2-0.1c0.7,0,1.2-0.1,1.6-0.1
	c5.3,0,9.3-14.8,7.5-25.7C602.5,583.2,602.6,580.7,605.9,571.4L605.9,571.4z M590.4,592.1c1,0.9,4.2,3.2,4.2,3.2
	c3.3,2.6,3.4,5.5,0,10.6c-6.2,9.4-14.7,5.1-14.7-7.6c0-6.3,0.8-9.4,3.4-10C585.4,587.9,586.8,588.8,590.4,592.1L590.4,592.1z
	 M588.2,594.6c-2.5-2.2-3.7-3.1-4-3c-0.3,0-0.8,2-0.8,6.8c0,9.8,4.4,12,8.6,5.7c2.5-3.8,2.5-4.7,0.7-6.2
	C592.7,598,589.4,595.6,588.2,594.6L588.2,594.6z M959.7,377.6c3.7-1.8,6.1-2.8,9.8-3.9l0.5-0.1c5.1-1.5,10-3.5,14.6-5.9
	c6.9-3.5,10.6-3.1,11.6,1.4c0.7,3.3,0.3,6.7-2.1,21.2c-3.8,22.7-15.3,43.6-35.3,60.5c-7.2,6-12.3,7.3-16.2,4.1
	c-3.1-2.6-5.2-7.6-7.7-17.5c-0.5-1.9-2.4-9.7-2.9-11.6c-1.3-5.2-2.8-10.3-4.5-15.4c-4-11.4-5-18-3.5-21.6c1.3-3,3.5-3.7,9.3-4.1
	c2.5-0.1,3.5-0.2,4.9-0.5l3.2-0.5c1.2-0.2,2-0.3,2.8-0.5c1.8-0.3,3.2-0.6,4.5-1C951.7,381.3,954.6,380.1,959.7,377.6L959.7,377.6z
	 M960.4,379.1c-5.2,2.6-8.1,3.8-11.1,4.6c-1.4,0.4-2.8,0.7-4.7,1c-2.1,0.4-4.2,0.7-6.3,1.1c-1.3,0.2-2.3,0.3-4.9,0.5
	c-5.2,0.3-6.9,0.8-7.9,3.1c-1.3,3.1-0.3,9.4,3.5,20.3c1.7,5.1,3.3,10.3,4.6,15.5l2.9,11.6c2.4,9.5,4.4,14.3,7.1,16.6
	c3.1,2.6,7.5,1.5,14.1-4.1c19.7-16.7,31-37.2,34.7-59.5c2.3-14.1,2.8-17.5,2.1-20.5c-0.7-3.1-3.1-3.3-9.2-0.3
	c-4.8,2.5-9.7,4.5-14.9,6l-0.5,0.2C966.7,376.3,963.5,377.5,960.4,379.1z M952.9,390.1c2.3-0.5,4.2-1.2,6.5-2.4
	c0.6-0.3,4.3-2.2,5.5-2.8c2.5-1.2,4.9-2.2,7.8-3.1c4.5-1.5,7.7-1.3,9.8,0.7c1.6,1.6,2.2,3.8,2.3,7c0,0.7,0,1.2,0,2.3
	c0,9.4-7.7,28.1-18.9,37.9c-7.2,6.3-12.2,7.8-16.5,4.2c-3.4-2.8-5.8-7.7-11.1-21.5c-3.1-8-3.4-13.5-1.1-17c1.9-2.8,4.8-3.9,9.7-4.5
	l2.1-0.2C951.1,390.4,952,390.3,952.9,390.1L952.9,390.1z M949.4,393.9l-2,0.2c-4,0.4-6.2,1.3-7.3,3c-1.5,2.4-1.3,6.8,1.4,14
	c5,13.1,7.3,17.8,10.1,20.1c2.7,2.2,6.1,1.2,12.2-4.1c10.4-9.1,17.8-26.9,17.8-35.4c0-1.1,0-1.5,0-2.1c-0.1-2.4-0.5-3.9-1.3-4.7
	c-1-1-3-1.1-6.4,0.1c-2.5,0.8-5,1.8-7.4,3c-1.2,0.6-4.9,2.4-5.5,2.8c-2.3,1.1-4.7,2-7.2,2.6C952.6,393.6,951.6,393.7,949.4,393.9
	L949.4,393.9z M569.9,245.6c-2.6,7.2-5.9,12.1-11.9,19l-4.3,4.9c-1.5,1.7-3,3.5-4.4,5.4c-3,3.9-5.6,8.1-7.8,12.5
	c-4.7,9.5-11.9,17-21.4,23.1c-7.1,4.6-13.7,7.7-26.1,12.6c-18.3,7.3-27.4,2.1-45.4-27.3c-4.8-7.8-14.7-14.4-30-21.1
	c-5-2.2-21.5-8.7-24-9.9c-8.3-3.6-11.7-6.2-10.7-9.7c1.1-3.9,8.8-6.7,25.8-10.1c27.7-5.5,44.9-6.4,66.5-5
	c13.2,0.8,16.1,0.8,21.2-0.4c3.3-0.8,6.5-2.2,10-4.3l4.6-2.8c16.4-10.2,21.6-13.3,28.8-16.5c10-4.5,17.6-5.5,23.2-2.3
	C576.2,220.4,577,226.4,569.9,245.6L569.9,245.6z M566.8,244.4c6.6-17.8,6-22.1-4.3-28c-4.4-2.5-11-1.6-20.2,2.5
	c-7.1,3.2-12.2,6.2-28.4,16.3l-4.6,2.9c-3.4,2.1-7.1,3.7-10.9,4.7c-5.6,1.3-8.7,1.3-22.2,0.5c-21.4-1.3-38.3-0.5-65.7,5
	c-8.2,1.6-14.1,3.1-18,4.6c-3.4,1.3-5.1,2.4-5.3,3.2c-0.3,1,2.5,3,8.8,5.8c2.5,1.1,19,7.6,24.1,9.9c15.9,7,26.2,13.8,31.4,22.4
	c17.2,28.2,24.8,32.6,41.3,26c12.2-4.9,18.7-7.9,25.5-12.4c9-5.9,15.8-12.9,20.2-21.8c2.4-4.8,5-9,8.1-13c1.5-1.9,3-3.7,4.5-5.5
	l4.3-4.9C561.2,255.8,564.3,251.2,566.8,244.4L566.8,244.4z M555.7,243.8c-13.2,21.3-30.9,36.2-55.5,42c-13,3-20.8-1.3-21.9-9.9
	c-0.9-7.4,3.8-15.1,10-15.1c5,0,9.3-2.8,25.6-15.3c2.4-1.9,4.3-3.3,6.1-4.6c7.3-5.3,12.9-8.6,18-10.1c9.3-2.8,15.5-3.6,18.9-2
	C561.2,230.7,560.7,235.7,555.7,243.8L555.7,243.8z M554.3,242.9c4.5-7.3,4.9-11.2,2-12.5c-2.8-1.3-8.9-0.6-17.7,2.1
	c-4.8,1.4-10.3,4.6-17.5,9.9c-1.8,1.3-3.6,2.7-6.1,4.6c-16.8,12.9-21,15.6-26.6,15.6c-5,0-9.2,6.7-8.3,13.2
	c0.9,7.5,7.7,11.3,19.8,8.4C523.9,278.5,541.2,263.9,554.3,242.9L554.3,242.9z M768.6,55.9c23.1,8.3,34.6,8.3,52.7,0
	c5-2.3,9.1-4.9,18.3-11.4c9.3-6.5,13.4-9.2,18.6-11.5c6.9-3.1,13-4,18.7-2.1c6.5,2.1,10.3,20.5,11.3,47.4c0.8,23.7-0.9,48.2-4.1,57
	c-3,8.2-9.8,13.6-19.2,16.7c-7,2.1-14.3,3.2-21.6,3c-9.6,0-15,4-20.3,12.7c-0.6,1-2.6,4.3-2.8,4.8c-2.9,4.8-5.1,7.2-8.2,8.2
	c-1.6,0.5-3.4,1.4-6.4,2.9l-4,2c-1.7,0.9-3.1,1.6-4.5,2.2c-10.7,5.2-19.5,7.9-28.6,7.9c-9.5,0-16.7,3.5-23.4,9.9
	c-1.9,1.8-7,7.5-7.7,8.2c-4.2,4.1-9.9,7.1-18.1,10.2c-2.3,0.9-10,3.5-10.4,3.7l-3.4,1.3c-1.5,0.6-3,1-4.5,1.3
	c-9.2,1.9-18.6-0.9-30-7.4c-2.1-1.2-8.5-5.1-9.6-5.7c-3.4-1.9-6.9-2.5-15.1-3.2l-2.9-0.2c-8-0.7-12.8-1.9-17-4.9
	c-8.3-6-11.3-12.9-9.4-20.5c2.2-9,10.8-18.4,24.7-28.8c3.6-2.6,7.2-5.2,10.8-7.7c-0.5,0.4,7.2-4.9,8.8-6c4.5-3.2,8-6.5,21.2-20.1
	l1.8-1.8c5.8-5.9,9.8-9.8,13.5-13c4.8-4.2,7.9-9.9,12.5-21.7l1-2.7c4.5-11.5,7.1-16.7,11.4-20.5c2.4-2.1,11.1-10.9,13.2-12.5
	C742.6,48.6,749.3,49,768.6,55.9L768.6,55.9z M768,57.5c-18.8-6.7-25-7.1-31-2.5c-2,1.5-10.7,10.2-13.1,12.4c-4,3.6-6.6,8.6-11,19.9
	l-1,2.7c-4.7,12.1-7.9,18-12.9,22.4c-5.3,4.7-10.4,9.6-15.3,14.8c-13.4,13.7-16.8,17-21.5,20.3c-1.6,1.1-9.4,6.4-8.8,6
	c-4.2,2.8-7.5,5.2-10.8,7.6c-13.6,10.2-22,19.3-24.1,27.9c-1.7,6.9,1,13.2,8.8,18.8c3.9,2.8,8.5,4,16.2,4.7l2.9,0.2
	c8.5,0.7,12.1,1.3,15.8,3.4c1.1,0.6,7.5,4.5,9.6,5.7c11.1,6.3,20.1,9,28.8,7.2c1.4-0.3,2.8-0.7,4.2-1.2c1.2-0.5,2.3-0.9,3.5-1.3
	c0.5-0.2,8.1-2.8,10.4-3.7c8-3,13.5-5.9,17.5-9.8c0.7-0.6,5.7-6.3,7.7-8.2c6.9-6.7,14.5-10.3,24.5-10.3c8.7,0,17.4-2.6,27.9-7.7
	c1.4-0.7,2.7-1.3,4.5-2.2c0.2-0.1,3.2-1.6,4-2c3.1-1.5,5-2.4,6.7-3c2.7-0.9,4.6-3,7.3-7.5l2.8-4.8c5.6-9.2,11.4-13.5,21.8-13.5
	c7.4,0,14.5-0.8,21.1-2.9c9-2.9,15.3-8,18.2-15.7c3.1-8.5,4.8-32.9,4-56.4c-0.9-25.9-4.7-44.1-10.1-45.9c-5.3-1.7-10.9-0.9-17.5,2
	c-5,2.3-9.1,4.9-18.3,11.4c-9.3,6.5-13.4,9.2-18.6,11.5C803.5,65.9,791.6,65.9,768,57.5L768,57.5z M791.7,91.7
	c9,0,12.6-0.3,16.2-1.6c2.1-0.7,16.6-8,24.8-11.6c3.2-1.4,5.9-4.1,11-10.1c4.3-5.1,5.3-6.2,7.3-8.1c6.2-5.6,11.8-5.5,17,2
	c10.4,14.8,9.3,26.6,0.1,45c-1.5,3-2.9,6-4.2,9.1c-0.5,1.3-1.7,4.5-1.8,4.8c-0.3,0.7-0.6,1.3-0.9,1.9c-1,1.9-2.6,3.7-6.7,7.8
	c-4,4-8.6,5.4-19.5,7.2c-3,0.5-3.7,0.6-5,0.8c-10,1.8-16,4.5-20.4,10.1c-5.9,7.6-13.2,12.5-25,17.9c-0.9,0.4-1.8,0.8-3,1.3l-3,1.3
	c-4.4,1.9-8.7,4-12.8,6.5c-4.3,2.7-8,3.9-15.7,5.8c-14.3,3.4-20.5,6.3-28.9,15.6c-8.5,9.4-16.9,12.7-27.7,11.2
	c-8.9-1.3-17.7-5-39.3-15.8c-10.5-5.2-10.7-13-2.5-22.6c5.6-6.6,5.9-6.8,32.3-27.4c13.5-10.5,21.6-17.6,27.7-24.8
	c4.2-5,7-9.5,8.3-13.8c9.2-30.5,20.8-36.6,38-25.9c3.2,2,11,7.6,12,8.2C775.6,90.3,780.9,91.7,791.7,91.7z M791.7,95
	c-11.4,0-17.3-1.5-23.5-5.4c-1-0.7-8.8-6.2-11.9-8.2c-15.1-9.4-24.4-4.5-33,24.1c-1.4,4.8-4.4,9.7-8.9,15
	c-6.3,7.4-14.5,14.6-28.2,25.3c-26.1,20.3-26.4,20.6-31.8,26.9c-6.9,8.2-6.8,13.3,1.5,17.5c21.2,10.6,29.8,14.2,38.2,15.5
	c9.6,1.4,17-1.5,24.8-10.1c9-9.9,15.7-13,30.6-16.6c7.4-1.8,10.8-2.9,14.7-5.4c4.2-2.5,8.7-4.8,13.2-6.7l3-1.3l3-1.3
	c11.4-5.2,18.2-9.8,23.7-16.9c5-6.4,11.7-9.4,22.4-11.4c1.4-0.2,2-0.3,5.1-0.8c10.2-1.7,14.3-3,17.6-6.3c3.9-3.9,5.3-5.6,6.2-7.1
	c0.3-0.4,0.5-0.9,0.7-1.6c0.1-0.2,1.2-3.4,1.8-4.8c1.1-2.7,2.4-5.7,4.3-9.4c8.7-17.5,9.7-28,0.1-41.6c-4-5.7-7.3-5.8-12.1-1.5
	c-1.8,1.7-2.9,2.8-7,7.7c-5.4,6.4-8.4,9.3-12.2,11c-8,3.5-22.7,10.9-25,11.7C804.9,94.6,801,95,791.7,95z M770.5,109.3
	c9.1,6.5,17.2,6.2,30.4,1.5c9-3.2,9.9-3.5,12.8-3.5c4.2,0,7,2.3,8.7,7.4c2.8,8.3-3.9,14.2-20.5,21.1c-4.5,1.9-27.1,10.3-33.3,12.9
	c-13.1,5.4-23.2,10.7-31.4,16.9c-21.7,16.4-30.6,19.9-39.5,16.1c-2.1-0.9-4.1-2-6-3.3l-3.3-2.1c-1.2-0.8-2.5-1.6-3.7-2.3
	c-5.5-3.3-4.7-7.1,1.4-12.2c2.2-1.9,17.8-12.7,22.5-16.5c11.8-9.5,19.8-19.1,24-30.6c5.1-14.1,8.1-20.2,11.3-22.3
	c2.9-1.9,5.6-0.9,10.3,3.2c1,0.9,5.7,5.1,6.8,6.2C764.2,104.6,767.2,107,770.5,109.3L770.5,109.3z M769.5,110.7
	c-3.3-2.4-6.3-4.8-9.6-7.7c-1.2-1.1-5.8-5.3-6.8-6.2c-4.2-3.6-6.2-4.4-8.3-3c-2.8,1.8-5.7,7.8-10.7,21.5
	c-4.3,11.8-12.5,21.6-24.5,31.3c-4.8,3.9-20.3,14.7-22.5,16.5c-5.4,4.5-5.9,6.9-1.6,9.5l3.8,2.3l3.3,2.1c2.4,1.5,4.1,2.5,5.8,3.2
	c8.2,3.4,16.6,0.1,37.9-15.9c8.4-6.3,18.6-11.7,31.8-17.1c6.3-2.6,28.8-11,33.3-12.9c15.8-6.6,21.9-12,19.5-19.1
	c-1.5-4.5-3.7-6.3-7.2-6.3c-2.7,0-3.6,0.3-12.3,3.4C787.8,117.3,779.2,117.6,769.5,110.7L769.5,110.7z"/>
</svg>
