<svg xmlns="http://www.w3.org/2000/svg" viewBox="0 0 1264 595">
  <g>
    <g>
      <rect width="632" height="595" fill="#cb3837"/>
      <g>
        <g>
          <polygon points="225.97 376.99 225.98 355.99 121 355.94 121.06 217.97 511 218.14 510.93 356.12 321.97 356.04 321.96 377.03 225.97 376.99" fill="#cb3837"/>
          <path d="M127.06,224l377.93.17-.05,126L316,350v21l-84,0V350L127,350l0-126m-12-12v12l0,126v12h12l93,0v21h12l84,0h12V362l177,.08h12v-12l0-126v-12H505L127.07,212Z" fill="#fff"/>
        </g>
        <path d="M127.06,224l377.93.17-.05,126L316,350v21l-84,0V350L127,350ZM148,329l42,0,0-63h21l0,63h21l0-84-84,0ZM253,245,253,350l42,0V329l42,0,0-84Zm42,21h21l0,42H295Zm63-21,0,84,42,0,0-63h21l0,63h21l0-63h21l0,63h21l0-84Z" fill="#cb3837"/>
        <g>
          <path d="M148,329l42,0,0-63h21l0,63h21l0-84-84,0Z" fill="#fff"/>
          <path d="M253,245,253,350l42,0V329l42,0,0-84Zm63,63H295l0-42h21Z" fill="#fff"/>
          <path d="M358,245.07l0,84,42,0,0-63h21l0,63h21l0-63h21l0,63h21l0-84Z" fill="#fff"/>
        </g>
      </g>
    </g>
    <g>
      <rect x="632" width="632" height="595" fill="#95c33a"/>
      <g>
        <g>
          <path d="M945.61,424.89a8,8,0,0,1-3.94-1.05l-12.54-7.43c-1.87-1.05-1-1.42-.34-1.63a24.91,24.91,0,0,0,5.67-2.59.94.94,0,0,1,.93.07L945,418a1.25,1.25,0,0,0,1.16,0l37.57-21.69a1.18,1.18,0,0,0,.58-1V351.92a1.21,1.21,0,0,0-.59-1L946.2,329.22a1.2,1.2,0,0,0-1.16,0L907.5,350.89a1.19,1.19,0,0,0-.6,1v43.36a1.14,1.14,0,0,0,.59,1l10.28,6c5.59,2.79,9-.5,9-3.81V355.62a1.07,1.07,0,0,1,1.09-1.08h4.76a1.07,1.07,0,0,1,1.08,1.08v42.81c0,7.44-4.06,11.72-11.12,11.72-2.17,0-3.88,0-8.66-2.35l-9.86-5.68a8,8,0,0,1-3.94-6.85V351.91a7.9,7.9,0,0,1,3.94-6.84l37.61-21.7a8.26,8.26,0,0,1,7.9,0l37.56,21.71a7.93,7.93,0,0,1,3.94,6.84v43.36a8,8,0,0,1-3.94,6.84l-37.56,21.7a8,8,0,0,1-4,1.05" fill="#fff"/>
          <path d="M957.22,395c-16.44,0-19.89-7.55-19.89-13.88a1.08,1.08,0,0,1,1.09-1.08h4.85a1.1,1.1,0,0,1,1.08.92c.73,4.95,2.91,7.44,12.85,7.44,7.92,0,11.29-1.79,11.29-6,0-2.41-1-4.21-13.26-5.41-10.29-1-16.65-3.29-16.65-11.51,0-7.58,6.4-12.1,17.11-12.1,12,0,18,4.18,18.74,13.15a1.13,1.13,0,0,1-.29.84,1.15,1.15,0,0,1-.8.34h-4.88a1.08,1.08,0,0,1-1.06-.84c-1.17-5.2-4-6.87-11.73-6.87-8.64,0-9.65,3-9.65,5.27,0,2.73,1.18,3.53,12.85,5.08s17,3.69,17,11.81-6.83,12.87-18.74,12.87m45.76-46h1.26a1.09,1.09,0,0,0,1.23-1.15c0-1.11-.76-1.11-1.18-1.11h-1.3Zm-1.53-3.56h2.79c1,0,2.84,0,2.84,2.15a1.87,1.87,0,0,1-1.53,2c1.12.07,1.19.81,1.34,1.84a8,8,0,0,0,.43,2.15h-1.72c0-.38-.31-2.45-.31-2.56-.12-.46-.28-.69-.85-.69H1003v3.26h-1.57Zm-3.36,4a6.07,6.07,0,1,0,6.05-6.05,6.08,6.08,0,0,0-6.05,6.05m13.32,0a7.24,7.24,0,1,1-7.24-7.24,7.26,7.26,0,0,1,7.24,7.24" fill="#fff"/>
        </g>
        <path d="M829.28,255.26a4.82,4.82,0,0,0-2.41-4.18L787,228.17a4.63,4.63,0,0,0-2.19-.64h-.41a4.7,4.7,0,0,0-2.2.64l-39.83,22.91a4.87,4.87,0,0,0-2.41,4.19l.09,61.72a2.36,2.36,0,0,0,1.19,2.08,2.28,2.28,0,0,0,2.39,0l23.68-13.56a4.87,4.87,0,0,0,2.41-4.17V272.5a4.81,4.81,0,0,1,2.4-4.17l10.08-5.8a4.82,4.82,0,0,1,2.41-.65,4.65,4.65,0,0,1,2.39.65l10.08,5.8a4.81,4.81,0,0,1,2.4,4.17v28.83a4.89,4.89,0,0,0,2.42,4.18l23.66,13.55a2.37,2.37,0,0,0,2.41,0A2.41,2.41,0,0,0,829.2,317Zm188,32.14a1.2,1.2,0,0,1-.6,1L1003,296.33a1.22,1.22,0,0,1-1.2,0l-13.69-7.89a1.2,1.2,0,0,1-.6-1V271.61a1.24,1.24,0,0,1,.59-1.05l13.68-7.9a1.24,1.24,0,0,1,1.21,0l13.68,7.9a1.21,1.21,0,0,1,.61,1.05Zm3.7-117a2.44,2.44,0,0,0-2.4,0,2.41,2.41,0,0,0-1.18,2.08v61.12a1.68,1.68,0,0,1-.84,1.46,1.7,1.7,0,0,1-1.69,0l-10-5.75a4.86,4.86,0,0,0-4.81,0l-39.85,23a4.81,4.81,0,0,0-2.4,4.16v46a4.84,4.84,0,0,0,2.4,4.17l39.85,23a4.86,4.86,0,0,0,4.81,0l39.84-23a4.83,4.83,0,0,0,2.41-4.17V187.85a4.81,4.81,0,0,0-2.47-4.2Zm132.68,100.78A4.82,4.82,0,0,0,1156,267V255.88a4.82,4.82,0,0,0-2.4-4.16l-39.59-23a4.78,4.78,0,0,0-4.82,0l-39.83,23a4.81,4.81,0,0,0-2.41,4.17v46a4.85,4.85,0,0,0,2.42,4.19L1109,328.63a4.81,4.81,0,0,0,4.72,0l23.94-13.3a2.41,2.41,0,0,0,0-4.19l-40.08-23a2.39,2.39,0,0,1-1.22-2.08V271.66a2.41,2.41,0,0,1,1.21-2.09l12.47-7.19a2.39,2.39,0,0,1,2.4,0l12.47,7.19a2.41,2.41,0,0,1,1.21,2.08V283a2.4,2.4,0,0,0,3.61,2.08Z" fill="#46483c" fill-rule="evenodd"/>
        <path d="M1111,269a.89.89,0,0,1,.92,0l7.65,4.41a.93.93,0,0,1,.46.8v8.83a.94.94,0,0,1-.46.8l-7.65,4.41a.89.89,0,0,1-.92,0l-7.64-4.41a.93.93,0,0,1-.47-.8v-8.83a.91.91,0,0,1,.46-.8Z" fill="#fff" fill-rule="evenodd"/>
        <path d="M891.14,229l-39.62,22.87a4.77,4.77,0,0,0-2.39,4.14v45.77a4.8,4.8,0,0,0,2.39,4.14l39.63,22.88a4.75,4.75,0,0,0,4.78,0l39.62-22.88a4.82,4.82,0,0,0,2.39-4.14V256a4.78,4.78,0,0,0-2.4-4.14L895.93,229a4.82,4.82,0,0,0-4.8,0" fill="#fff"/>
      </g>
    </g>
  </g>
</svg>
