<svg id="fcd1e291-fdc8-4efa-b352-3368794b39cf" data-name="npm"
	xmlns="http://www.w3.org/2000/svg" viewBox="0 0 1264 595">
	<rect x="0.15" y="0.07" width="1264" height="595" fill="#cb3837"/>
	<g>
		<g>
			<polygon points="533.64 384.27 533.65 361.2 418.26 361.15 418.33 210.68 845.74 210.87 845.67 361.33 637.97 361.24 637.96 384.32 533.64 384.27" fill="#cb3837"/>
			<path d="M424.33,216.68l415.4.18-.06,138.47L632,355.24v23.08l-92.31,0V355.2l-115.39-.05.06-138.47m-12-12v12l-.06,138.46v12h12l103.39,0v23.08h12l92.31,0h12V367.25l195.71.08h12v-12l.06-138.47v-12h-12l-415.41-.18Z" fill="#fff"/>
		</g>
		<path d="M424.33,216.68l415.4.18-.06,138.47L632,355.24v23.08l-92.31,0V355.2l-115.39-.05Zm23,115.4,46.15,0,0-69.23h23.08l0,69.23h23.08l0-92.31-92.31,0Zm115.43-92.26,0,115.39,46.15,0V332.15l46.16,0,0-92.31Zm46.14,23.1H632l0,46.15H608.91Zm69.25-23.05,0,92.31,46.15,0,0-69.23H747.4l0,69.23h23.08l0-69.23h23.08l0,69.23H816.6l0-92.31Z" fill="#cb3837"/>
		<g>
			<path d="M447.36,332.08l46.15,0,0-69.23h23.08l0,69.23h23.08l0-92.31-92.31,0Z" fill="#fff"/>
			<path d="M562.79,239.82l0,115.39,46.15,0V332.15l46.16,0,0-92.31ZM632,309.08H608.91l0-46.15H632Z" fill="#fff"/>
			<path d="M678.18,239.87l0,92.31,46.15,0,0-69.23H747.4l0,69.23h23.08l0-69.23h23.08l0,69.23H816.6l0-92.31Z" fill="#fff"/>
		</g>
	</g>
</svg>
