<svg xmlns="http://www.w3.org/2000/svg" viewBox="0 0 1264 595">
	<g>
		<rect width="1264" height="595" fill="#1c78c0"/>
		<g>
			<path d="M389.68,204.13l82.52,46.68v93.38l-82.52,46.68-82.53-46.68V250.81Z" fill="#fff"/>
			<path d="M457.47,341,392.4,377.78V349.12l40.54-22.31Zm4.45-4V260l-23.79,13.75v49.48Zm-140.29,4,65.06,36.81V349.12l-40.56-22.31Zm-4.46-4V260L341,273.73v49.48ZM320,255l66.73-37.75v27.7l-42.76,23.53-.34.19Zm139.17,0L392.4,217.24v27.7l42.76,23.5.34.2Z" fill="#8ed6fb"/>
			<path d="M386.69,342.59l-40-22V277l40,23.09Zm5.71,0,40-22V277l-40,23.09Zm-43-70.61,40.16-22.07L429.7,272l-40.15,23.18Z" fill="#1c78c0"/>
			<path d="M555.43,327H573L591,267.27H573.82l-10.62,42.4-11.33-42.4H537l-11.43,42.4-10.51-42.4H497.94L515.77,327h17.59l11.09-38.27Zm36.45-29.7c0,17.93,12.22,31.2,31.43,31.2,14.86,0,22.86-8.92,25.14-13.14l-10.4-7.89a17.45,17.45,0,0,1-14.53,7.32c-8.8,0-15.2-5.72-15.54-13.72h42.07c.11-1.15.11-2.28.11-3.43,0-19.53-10.52-31.88-29-31.88-17,0-29.26,13.48-29.26,31.54Zm16.57-6.53c.68-6.84,5.48-12.11,12.92-12.11,7.21,0,12.45,4.8,12.79,12.11ZM656.11,327H671v-6.16a23.28,23.28,0,0,0,17.72,7.66c17.15,0,29.26-12.9,29.26-31.31s-11.2-31.41-28.34-31.41c-10.28,0-16.23,5.72-17.72,7.76V244.41H656.13V327Zm15.31-29.7c0-11.2,6.63-17.59,15.31-17.59,9.15,0,15.31,7.2,15.31,17.59,0,10.62-6.4,17.25-15.31,17.25C677.13,314.57,671.42,306.79,671.42,297.32Zm52.67,51.07h15.76V320.84c1.49,1.94,7.42,7.66,17.72,7.66,17.15,0,28.34-12.91,28.34-31.42,0-18.27-12.11-31.3-29.26-31.3-10.17,0-16.12,5.71-17.72,7.76v-6.29H724.07v81.14ZM739.4,297c0-9.49,5.72-17.25,15.31-17.25,8.92,0,15.32,6.63,15.32,17.25,0,10.4-6.17,17.59-15.32,17.59C746,314.57,739.4,308.17,739.4,297Zm49.37,11.53c0,12.56,10.28,20,22.39,20,6.87,0,11.43-2,14.52-5.38l1,3.88h13.94V289.19c0-13.37-5.71-23.41-24.9-23.41a44.61,44.61,0,0,0-23.55,7.08l5.95,10.75A35.28,35.28,0,0,1,814,279.38c7,0,10.85,3.54,10.85,8.81v3.88c-2.17-1.49-6.86-3.3-12.92-3.3-14,0-23.2,8-23.2,19.74Zm15.76-.46c0-4.91,4.22-8.34,10.28-8.34s10.4,3.09,10.4,8.34c0,5-4.35,8.23-10.27,8.23S804.53,313,804.53,308.05Zm74.4,6.52c-9.94,0-17-7.21-17-17.36,0-9.59,6.29-17.48,16.47-17.48a20.27,20.27,0,0,1,13.94,5.71l4.46-13.26a30.38,30.38,0,0,0-18.85-6.4c-18.17,0-31.78,13.37-31.78,31.54s13.27,31.2,31.89,31.2a30.07,30.07,0,0,0,18.61-6.4l-4.22-12.9c-2.64,2.15-7.44,5.35-13.5,5.35ZM902.58,327h15.76V296.17l20,30.85h18.51l-22.62-32.69,21-27.08H937.53l-19.19,25.14v-48H902.58Z" fill="#fff"/>
		</g>
	</g>
</svg>
