<svg xmlns="http://www.w3.org/2000/svg" viewBox="0 0 1264 595">
	<g>
		<rect width="1264" height="595" fill="#95c33a"/>
		<g>
			<g>
				<path d="M628.73,472.37a10.85,10.85,0,0,1-5.41-1.44l-17.21-10.19c-2.57-1.44-1.32-1.95-.47-2.24a34.62,34.62,0,0,0,7.78-3.55,1.31,1.31,0,0,1,1.28.09l13.22,7.85a1.74,1.74,0,0,0,1.6,0l51.55-29.76a1.61,1.61,0,0,0,.79-1.39V372.25a1.66,1.66,0,0,0-.8-1.42L629.53,341.1a1.61,1.61,0,0,0-1.59,0l-51.51,29.73a1.66,1.66,0,0,0-.82,1.41v59.49a1.6,1.6,0,0,0,.8,1.38l14.12,8.15c7.66,3.83,12.34-.68,12.34-5.22V377.32a1.47,1.47,0,0,1,1.5-1.48h6.53a1.48,1.48,0,0,1,1.48,1.48v58.74c0,10.22-5.57,16.09-15.26,16.09-3,0-5.33,0-11.88-3.22l-13.53-7.8a10.89,10.89,0,0,1-5.4-9.4V372.24a10.83,10.83,0,0,1,5.4-9.39l51.6-29.77a11.28,11.28,0,0,1,10.84,0l51.54,29.78a10.87,10.87,0,0,1,5.41,9.39v59.49a10.89,10.89,0,0,1-5.41,9.39L634.15,470.9a10.77,10.77,0,0,1-5.43,1.45" fill="#fff"/>
				<path d="M644.65,431.38c-22.56,0-27.29-10.35-27.29-19a1.49,1.49,0,0,1,1.5-1.49h6.65a1.5,1.5,0,0,1,1.48,1.26c1,6.79,4,10.21,17.63,10.21,10.87,0,15.49-2.45,15.49-8.22,0-3.31-1.32-5.78-18.2-7.43-14.11-1.39-22.83-4.5-22.83-15.79,0-10.4,8.77-16.6,23.47-16.6,16.5,0,24.68,5.73,25.71,18a1.47,1.47,0,0,1-.4,1.15,1.51,1.51,0,0,1-1.09.48h-6.7a1.49,1.49,0,0,1-1.45-1.16c-1.61-7.14-5.5-9.42-16.1-9.42-11.86,0-13.24,4.13-13.24,7.22,0,3.76,1.63,4.86,17.63,7,15.84,2.11,23.37,5.07,23.37,16.21s-9.37,17.66-25.71,17.66m62.79-63.08h1.73a1.5,1.5,0,0,0,1.69-1.58c0-1.52-1-1.52-1.63-1.52h-1.78Zm-2.1-4.88h3.83c1.32,0,3.9,0,3.9,2.94a2.56,2.56,0,0,1-2.11,2.74c1.54.1,1.64,1.11,1.85,2.53a10.76,10.76,0,0,0,.58,2.94H711c-.07-.52-.43-3.35-.43-3.51-.15-.63-.37-.94-1.16-.94h-2v4.46h-2.15ZM700.65,369a8.33,8.33,0,1,0,8.3-8.31,8.34,8.34,0,0,0-8.3,8.31m18.27,0a9.94,9.94,0,1,1-9.94-9.94,10,10,0,0,1,9.94,9.94" fill="#fff"/>
			</g>
			<path d="M469.1,239.62a6.63,6.63,0,0,0-3.31-5.74l-54.65-31.44a6.43,6.43,0,0,0-3-.87h-.57a6.54,6.54,0,0,0-3,.87L349.9,233.88a6.67,6.67,0,0,0-3.3,5.75l.12,84.69a3.25,3.25,0,0,0,1.63,2.86,3.12,3.12,0,0,0,3.28,0l32.49-18.61a6.68,6.68,0,0,0,3.31-5.73V263.27a6.57,6.57,0,0,1,3.29-5.71l13.84-8a6.57,6.57,0,0,1,3.3-.89,6.39,6.39,0,0,1,3.28.89l13.83,8a6.61,6.61,0,0,1,3.3,5.72v39.56a6.68,6.68,0,0,0,3.31,5.73l32.47,18.6a3.25,3.25,0,0,0,3.3,0,3.32,3.32,0,0,0,1.64-2.85ZM727,283.72a1.65,1.65,0,0,1-.82,1.43L707.4,296a1.67,1.67,0,0,1-1.65,0L687,285.15a1.65,1.65,0,0,1-.82-1.43V262.05a1.68,1.68,0,0,1,.81-1.44l18.76-10.83a1.66,1.66,0,0,1,1.67,0l18.77,10.83a1.66,1.66,0,0,1,.83,1.44Zm5.07-160.52a3.3,3.3,0,0,0-4.91,2.88V210a2.31,2.31,0,0,1-3.46,2L710,204.07a6.6,6.6,0,0,0-6.6,0l-54.67,31.55a6.61,6.61,0,0,0-3.3,5.71v63.12a6.62,6.62,0,0,0,3.3,5.72l54.67,31.57a6.61,6.61,0,0,0,6.61,0l54.67-31.59a6.59,6.59,0,0,0,3.3-5.71V147.12a6.61,6.61,0,0,0-3.39-5.77ZM914.12,261.48a6.61,6.61,0,0,0,3.28-5.71v-15.3a6.62,6.62,0,0,0-3.28-5.71l-54.33-31.53a6.57,6.57,0,0,0-6.61,0l-54.66,31.55a6.56,6.56,0,0,0-3.31,5.71v63.1a6.62,6.62,0,0,0,3.33,5.74l54.31,31a6.62,6.62,0,0,0,6.48,0l32.85-18.26a3.3,3.3,0,0,0,0-5.75l-55-31.56a3.27,3.27,0,0,1-1.66-2.85V262.12a3.28,3.28,0,0,1,1.65-2.86l17.11-9.87a3.23,3.23,0,0,1,3.29,0l17.12,9.87a3.3,3.3,0,0,1,1.66,2.85v15.56a3.33,3.33,0,0,0,1.65,2.87,3.3,3.3,0,0,0,3.3,0Z" fill="#46483c" fill-rule="evenodd"/>
			<path d="M855.68,258.52a1.3,1.3,0,0,1,1.27,0l10.49,6.06a1.25,1.25,0,0,1,.63,1.09v12.12a1.28,1.28,0,0,1-.63,1.1L857,284.94a1.26,1.26,0,0,1-1.27,0l-10.48-6.05a1.27,1.27,0,0,1-.64-1.1V265.67a1.23,1.23,0,0,1,.63-1.09Z" fill="#fff" fill-rule="evenodd"/>
			<path d="M554,203.54l-54.36,31.38a6.56,6.56,0,0,0-3.28,5.68v62.8a6.58,6.58,0,0,0,3.28,5.69L554,340.49a6.59,6.59,0,0,0,6.57,0l54.35-31.4a6.58,6.58,0,0,0,3.28-5.69V240.6a6.55,6.55,0,0,0-3.29-5.68l-54.35-31.38a6.59,6.59,0,0,0-6.58,0" fill="#fff"/>
		</g>
	</g>
</svg>
